<?xml version="1.0" encoding="UTF-8" standalone="no"?>
<svg width="137px" height="74px" viewBox="0 0 137 74" version="1.1" xmlns="http://www.w3.org/2000/svg" xmlns:xlink="http://www.w3.org/1999/xlink" xmlns:sketch="http://www.bohemiancoding.com/sketch/ns">
    <!-- Generator: Sketch 3.2.2 (9983) - http://www.bohemiancoding.com/sketch -->
    <title>Group</title>
    <desc>Created with Sketch.</desc>
    <defs></defs>
    <g id="Page-1" stroke="none" stroke-width="1" fill="none" fill-rule="evenodd" sketch:type="MSPage">
        <g id="Page" sketch:type="MSArtboardGroup" transform="translate(-540.000000, -27.000000)">
            <g id="Group-+-Group" sketch:type="MSLayerGroup" transform="translate(507.000000, 27.000000)">
                <g id="Group" transform="translate(33.000000, 0.000000)" sketch:type="MSShapeGroup">
                    <path d="M106.737581,53.8292362 C114.417325,56.0377795 120.122727,51.9205984 123.889606,44.8087087 L136.844934,18.5762126 C137.362127,16.7219055 135.687355,16.3948346 134.990529,16.8169843 L112.984598,31.6318819 C112.045185,32.2860236 111.696771,31.4591102 112.007196,30.8044252 C112.31762,30.1491969 115.333945,24.192378 115.333945,24.192378 C115.751824,22.5564803 114.26754,22.1750787 113.659174,22.4103307 L105.986485,25.5854173 L88.6949862,9.27914173 C88.6949862,9.27914173 84.8271653,2.46281102 83.9013196,0.949700787 C82.9754738,-0.563952756 81.6420606,0.391181102 81.6545427,1.76737795 C81.6670248,3.1435748 81.7229229,9.16993701 81.7229229,9.16993701 C81.7229229,9.16993701 18.2666722,30.4903937 13.3644656,32.1268346 C8.46225895,33.762189 6.43201928,36.8476299 5.29180716,40.6589291 C4.15159504,44.469685 0.389600551,57.0467008 0.389600551,57.0467008 L5.71185675,50.9258031 L12.002832,71.374252 L33.0416722,71.374252 L35.4925041,60.781937 L57.1847548,60.781937 L62.3729642,71.374252 L83.0845565,71.374252 L89.7429394,49.3306535 L106.737581,53.8292362" id="Fill-9" fill="#726658"></path>
                    <path d="M79.1185069,10.0446614 L79.1554105,13.6027795 C79.1624656,14.3134252 79.7339284,14.8860709 80.439438,14.8980236 L80.4757989,14.8980236 C81.1975895,14.8909606 81.7766501,14.2987559 81.769595,13.5761575 L81.7229229,9.16993701 L79.1185069,10.0446614" id="Fill-10" fill="#5B4A42"></path>
                    <path d="M105.988656,28.3101024 C105.475262,28.3101024 104.98846,28.0047638 104.780063,27.5005748 C104.504372,26.8328504 104.821309,26.0673307 105.488829,25.7913307 L113.659174,22.4103307 C114.326694,22.1343307 115.090815,22.4521654 115.366507,23.1198898 C115.642198,23.7881575 115.325262,24.5531339 114.657741,24.8291339 L106.487397,28.2101339 C106.324587,28.2775039 106.154722,28.3101024 105.988656,28.3101024" id="Fill-11" fill="#5B4A42"></path>
                    <path d="M113.715072,34.0267795 C113.294479,34.0267795 112.881485,33.8235827 112.629129,33.4481575 C112.226446,32.8483465 112.385457,32.0350157 112.984598,31.6318819 L134.990529,16.8169843 C135.589669,16.4133071 136.401548,16.5724961 136.804774,17.1728504 C137.207457,17.7726614 137.048446,18.5854488 136.449306,18.9885827 L114.443375,33.8034803 C114.219782,33.9539764 113.966342,34.0267795 113.715072,34.0267795" id="Fill-12" fill="#5B4A42"></path>
                    <path d="M88.9858733,51.8380157 L82.7936694,50.2059213 L82.4376584,50.1124724 L76.1065234,48.4434331 C75.4086116,48.259252 74.9918182,47.5437165 75.1752507,46.8444803 C75.3592259,46.1457874 76.0745041,45.7285276 76.772416,45.9127087 L89.7429394,49.3306535 L88.9858733,51.8380157" id="Fill-13" fill="#5B4A42"></path>
                    <path d="M27.0377851,73.0786063 C26.9455262,73.0786063 26.8516391,73.0688268 26.7577521,73.0481811 C26.0527851,72.8938819 25.6050579,72.1968189 25.7591846,71.491063 L29.4717934,54.4437165 C29.6259201,53.7374173 30.3227466,53.2902756 31.0277135,53.4434882 C31.7332231,53.5983307 32.1804077,54.2953937 32.026281,55.0011496 L28.3136722,72.0484961 C28.180168,72.6608031 27.6390964,73.0786063 27.0377851,73.0786063" id="Fill-14" fill="#5B4A42"></path>
                    <path d="M127.856198,73.9098661 L2.03398072,73.9098661 C1.31219008,73.9098661 0.72661708,73.3241811 0.72661708,72.6010394 C0.72661708,71.8784409 1.31219008,71.2922126 2.03398072,71.2922126 L127.856198,71.2922126 C128.578532,71.2922126 129.163562,71.8784409 129.163562,72.6010394 C129.163562,73.3241811 128.578532,73.9098661 127.856198,73.9098661" id="Fill-15" fill="#5B4A42"></path>
                    <path d="M89.8248871,25.6375748 L99.1799449,28.6371732 L94.502416,30.6001417 L89.8248871,25.6375748" id="Fill-16" fill="#FFFFFF"></path>
                    <path d="M82.2330606,48.8536299 L89.2995537,50.7992126 L83.0845565,71.374252 L75.3136391,71.2922126 L82.2330606,48.8536299" id="Fill-17" fill="#5B4A42"></path>
                    <path d="M35.4925041,60.781937 L29.4555124,60.781937 L27.1039945,71.2922126 L33.0416722,71.374252 L35.4925041,60.781937" id="Fill-18" fill="#5B4A42"></path>
                </g>
            </g>
        </g>
    </g>
</svg>