<?xml version="1.0" encoding="UTF-8" standalone="no"?>
<svg width="197px" height="138px" viewBox="0 0 197 138" version="1.1" xmlns="http://www.w3.org/2000/svg" xmlns:xlink="http://www.w3.org/1999/xlink" xmlns:sketch="http://www.bohemiancoding.com/sketch/ns">
    <!-- Generator: Sketch 3.2.2 (9983) - http://www.bohemiancoding.com/sketch -->
    <title>Imported Layers</title>
    <desc>Created with Sketch.</desc>
    <defs></defs>
    <g id="Page-1" stroke="none" stroke-width="1" fill="none" fill-rule="evenodd" sketch:type="MSPage">
        <g id="Page" sketch:type="MSArtboardGroup" transform="translate(-507.000000, -27.000000)">
            <g id="Imported-Layers" sketch:type="MSLayerGroup" transform="translate(507.000000, 27.000000)">
                <path d="M14.0315014,98.9720787 C22.1177273,98.9720787 24.3976088,104.785465 24.3976088,111.197031 C24.3976088,115.108843 24.3433388,117.608598 21.2494077,120.216472 C19.7298485,121.520409 18.752989,120.75978 18.752989,122.82489 C18.752989,125.052449 19.4584986,127.768984 21.2494077,127.768984 C22.2268099,127.768984 22.8232369,127.497331 22.9865895,127.497331 C24.7232287,127.497331 24.9945785,128.96426 24.9945785,131.463472 C24.9945785,132.658748 24.9403085,134.125677 24.9403085,135.756142 C24.9403085,136.842756 24.5061488,137.820709 21.6835675,137.820709 C16.69073,137.820709 14.1394986,134.125677 13.1083691,130.105205 C11.8058898,125.052449 10.1777906,124.182614 9.8521708,124.182614 C9.41801102,124.182614 9.41801102,125.052449 9.41801102,125.487094 L9.41801102,133.202598 C9.41801102,135.375827 9.41801102,137.549055 6.16181267,137.549055 L2.3623719,137.549055 C0.191573003,137.549055 0.191573003,135.375827 0.191573003,133.202598 L0.191573003,103.318535 C0.191573003,101.145307 0.191573003,98.9720787 3.44777135,98.9720787 L14.0315014,98.9720787 L14.0315014,98.9720787 Z M9.36374105,108.643488 C9.36374105,109.349787 9.41801102,110.59885 9.41801102,111.740339 C9.41801102,112.826953 9.36374105,113.804906 9.36374105,114.456874 C9.36374105,116.250331 9.68936088,116.575772 11.8601598,116.575772 C14.3028512,116.575772 14.845551,114.18522 14.845551,111.740339 C14.845551,109.295457 14.3028512,106.306724 11.8601598,106.306724 C9.68936088,106.306724 9.36374105,106.687039 9.36374105,108.643488 L9.36374105,108.643488 Z" id="Fill-1" fill="#373737" sketch:type="MSShapeGroup"></path>
                <path d="M35.738405,110.110417 C35.738405,113.098606 35.738405,113.098606 38.7232534,113.098606 C41.7081019,113.098606 41.7081019,113.098606 41.7081019,110.273409 L41.7081019,103.318535 C41.7081019,101.145307 41.7081019,98.9720787 44.964843,98.9720787 L47.6783416,98.9720787 C50.9345399,98.9720787 50.9345399,101.145307 50.9345399,103.318535 L50.9345399,133.202598 C50.9345399,135.375827 50.9345399,137.549055 47.6783416,137.549055 L44.964843,137.549055 C41.7081019,137.549055 41.7081019,135.375827 41.7081019,133.202598 L41.7081019,125.052449 C41.7081019,121.466079 41.491022,121.248756 38.7232534,121.248756 L38.125741,121.248756 C36.3891019,121.248756 35.738405,121.248756 35.738405,124.019622 L35.738405,125.052449 L35.738405,133.202598 C35.738405,135.375827 35.738405,137.549055 32.4816639,137.549055 L29.7681653,137.549055 C26.5119669,137.549055 26.5119669,135.375827 26.5119669,133.202598 L26.5119669,103.318535 C26.5119669,101.145307 26.5119669,98.9720787 29.7681653,98.9720787 L32.4816639,98.9720787 C35.738405,98.9720787 35.738405,101.145307 35.738405,103.318535 L35.738405,110.110417" id="Fill-2" fill="#373737" sketch:type="MSShapeGroup"></path>
                <path d="M62.1130689,133.202598 C62.1130689,135.375827 62.1130689,137.549055 58.8563278,137.549055 L56.1428292,137.549055 C52.8866309,137.549055 52.8866309,135.375827 52.8866309,133.202598 L52.8866309,103.318535 C52.8866309,101.145307 52.8866309,98.9720787 56.1428292,98.9720787 L58.8563278,98.9720787 C62.1130689,98.9720787 62.1130689,101.145307 62.1130689,103.318535 L62.1130689,133.202598" id="Fill-3" fill="#373737" sketch:type="MSShapeGroup"></path>
                <path d="M80.8904793,116.358992 C81.0532893,116.358992 81.1618292,116.195457 81.1618292,115.815685 L81.1618292,103.318535 C81.1618292,101.145307 81.1618292,98.9720787 84.4180275,98.9720787 L87.1320689,98.9720787 C90.3882672,98.9720787 90.3882672,101.145307 90.3882672,103.318535 L90.3882672,133.202598 C90.3882672,135.375827 90.3882672,137.549055 87.1320689,137.549055 C82.2472287,137.549055 81.8673388,136.679764 81.1075592,135.049843 L73.8891102,119.347181 C73.7263003,119.020654 73.5634904,118.803874 73.4549504,118.803874 C73.2921405,118.803874 73.2378705,119.020654 73.2378705,119.347181 L73.2921405,133.202598 C73.2921405,135.375827 73.2921405,137.549055 70.0359421,137.549055 L67.3219008,137.549055 C64.0657025,137.549055 64.0657025,135.375827 64.0657025,133.202598 L64.0657025,103.318535 C64.0657025,101.145307 64.0657025,98.9720787 67.3219008,98.9720787 L70.1987521,98.9720787 C71.9896612,98.9720787 72.5866309,99.1888583 73.4006804,100.873654 L80.4020496,115.815685 C80.5648595,116.195457 80.7276694,116.358992 80.8904793,116.358992" id="Fill-4" fill="#373737" sketch:type="MSShapeGroup"></path>
                <path d="M92.1232782,113.859236 C92.1232782,105.111449 92.9373278,98.7004252 104.388835,98.7004252 C115.297642,98.7004252 116.057964,105.002787 116.057964,113.641913 C116.057964,116.902299 116.220231,120.107811 116.220231,122.987339 C116.220231,131.572134 114.863482,137.820709 104.388835,137.820709 C92.9373278,137.820709 92.1232782,131.409142 92.1232782,122.715685 C92.1232782,121.248756 92.1775482,119.781827 92.1775482,118.260567 C92.1775482,116.738764 92.1232782,115.271835 92.1232782,113.859236 L92.1232782,113.859236 Z M101.403986,109.295457 L101.403986,126.410717 C101.403986,128.040638 101.403986,130.213866 104.117485,130.213866 C106.831526,130.213866 106.831526,128.040638 106.831526,126.410717 L106.831526,109.295457 C106.831526,107.937189 106.831526,106.306724 104.117485,106.306724 C101.403986,106.306724 101.403986,107.937189 101.403986,109.295457 L101.403986,109.295457 Z" id="Fill-5" fill="#373737" sketch:type="MSShapeGroup"></path>
                <path d="M137.656328,116.902299 C137.656328,117.010417 137.710598,117.119079 137.873408,117.173953 C141.780846,118.47789 143.192408,122.770559 143.192408,126.573709 C143.192408,128.692606 142.649708,130.812047 141.726576,132.55063 C139.06789,137.440394 136.788008,137.549055 133.26046,137.549055 L121.157171,137.549055 C117.900972,137.549055 117.900972,135.375827 117.900972,133.202598 L117.900972,103.318535 C117.900972,101.145307 117.900972,98.9720787 121.157171,98.9720787 L132.8263,98.9720787 C139.827127,98.9720787 142.161278,103.64452 142.161278,108.643488 C142.161278,111.849 140.858256,115.055055 137.873408,116.630646 C137.710598,116.684976 137.656328,116.793638 137.656328,116.902299 L137.656328,116.902299 Z M127.12741,110.001756 C127.12741,112.718291 127.12741,113.641913 129.840909,113.641913 C132.012251,113.641913 132.55495,111.903331 132.55495,110.001756 C132.55495,108.100181 132.012251,106.306724 129.840909,106.306724 C127.12741,106.306724 127.12741,107.28522 127.12741,110.001756 L127.12741,110.001756 Z M127.12741,125.324102 C127.12741,128.583945 127.12741,130.213866 130.112259,130.213866 C132.8263,130.213866 133.09765,127.768984 133.09765,125.324102 C133.09765,122.878677 133.09765,120.542457 130.112259,120.542457 C127.12741,120.542457 127.12741,122.063717 127.12741,125.324102 L127.12741,125.324102 Z" id="Fill-6" fill="#373737" sketch:type="MSShapeGroup"></path>
                <path d="M144.655526,113.859236 C144.655526,105.111449 145.469576,98.7004252 156.921625,98.7004252 C167.830433,98.7004252 168.590212,105.002787 168.590212,113.641913 C168.590212,116.902299 168.753022,120.107811 168.753022,122.987339 C168.753022,131.572134 167.396273,137.820709 156.921625,137.820709 C145.469576,137.820709 144.655526,131.409142 144.655526,122.715685 C144.655526,121.248756 144.709796,119.781827 144.709796,118.260567 C144.709796,116.738764 144.655526,115.271835 144.655526,113.859236 L144.655526,113.859236 Z M153.936234,109.295457 L153.936234,126.410717 C153.936234,128.040638 153.936234,130.213866 156.649733,130.213866 C159.363774,130.213866 159.363774,128.040638 159.363774,126.410717 L159.363774,109.295457 C159.363774,107.937189 159.363774,106.306724 156.649733,106.306724 C153.936234,106.306724 153.936234,107.937189 153.936234,109.295457 L153.936234,109.295457 Z" id="Fill-7" fill="#373737" sketch:type="MSShapeGroup"></path>
                <path d="M183.350559,111.794669 C183.567639,111.794669 185.358548,104.623016 186.55303,101.145307 L186.66157,100.873654 C187.257997,99.0801969 187.257997,98.9720787 191.817218,98.9720787 L192.522727,98.9720787 C195.019689,98.9720787 196.050818,98.9720787 196.050818,100.602 C196.050818,102.503575 189.809229,115.707024 189.809229,117.119079 C189.809229,118.53222 196.702058,133.745906 196.702058,135.919134 C196.702058,137.440394 194.476989,137.712047 192.468457,137.712047 C191.328788,137.712047 190.297658,137.603386 189.754959,137.603386 C186.443948,137.603386 186.986647,137.277402 185.955518,134.560866 L183.024939,124.128827 C182.970669,124.019622 182.862129,123.910961 182.75359,123.910961 C182.64505,123.910961 182.53651,124.019622 182.48224,124.128827 L180.040091,134.560866 C179.063231,137.549055 178.846152,137.603386 175.318061,137.603386 L173.689961,137.603386 C171.899052,137.603386 169.999603,137.386063 169.999603,135.919134 C169.999603,134.289213 176.13211,118.53222 176.13211,117.119079 C176.13211,115.707024 170.542303,102.503575 170.542303,100.602 C170.542303,99.1350709 171.790512,98.917748 173.961311,98.917748 C175.100981,98.917748 176.56627,98.9720787 178.249182,98.9720787 C179.497391,98.9720787 179.768741,99.678378 180.148631,100.547669 C180.148631,100.602 180.257171,100.710661 180.257171,100.764992 C180.257171,100.81878 180.365711,100.927441 180.365711,100.982315 C180.365711,101.036646 180.419981,101.090433 180.419981,101.145307 C181.45111,104.623016 183.024939,111.468685 183.079209,111.577346 C183.133479,111.740339 183.242019,111.794669 183.350559,111.794669" id="Fill-8" fill="#373737" sketch:type="MSShapeGroup"></path>
                <path d="M139.737581,53.8292362 C147.417325,56.0377795 153.122727,51.9205984 156.889606,44.8087087 L169.844934,18.5762126 C170.362127,16.7219055 168.687355,16.3948346 167.990529,16.8169843 L145.984598,31.6318819 C145.045185,32.2860236 144.696771,31.4591102 145.007196,30.8044252 C145.31762,30.1491969 148.333945,24.192378 148.333945,24.192378 C148.751824,22.5564803 147.26754,22.1750787 146.659174,22.4103307 L138.986485,25.5854173 L121.694986,9.27914173 C121.694986,9.27914173 117.827165,2.46281102 116.90132,0.949700787 C115.975474,-0.563952756 114.642061,0.391181102 114.654543,1.76737795 C114.667025,3.1435748 114.722923,9.16993701 114.722923,9.16993701 C114.722923,9.16993701 51.2666722,30.4903937 46.3644656,32.1268346 C41.462259,33.762189 39.4320193,36.8476299 38.2918072,40.6589291 C37.151595,44.469685 33.3896006,57.0467008 33.3896006,57.0467008 L38.7118567,50.9258031 L45.002832,71.374252 L66.0416722,71.374252 L68.4925041,60.781937 L90.1847548,60.781937 L95.3729642,71.374252 L116.084556,71.374252 L122.742939,49.3306535 L139.737581,53.8292362" id="Fill-9" fill="#726658" sketch:type="MSShapeGroup"></path>
                <path d="M112.118507,10.0446614 L112.15541,13.6027795 C112.162466,14.3134252 112.733928,14.8860709 113.439438,14.8980236 L113.475799,14.8980236 C114.19759,14.8909606 114.77665,14.2987559 114.769595,13.5761575 L114.722923,9.16993701 L112.118507,10.0446614" id="Fill-10" fill="#5B4A42" sketch:type="MSShapeGroup"></path>
                <path d="M138.988656,28.3101024 C138.475262,28.3101024 137.98846,28.0047638 137.780063,27.5005748 C137.504372,26.8328504 137.821309,26.0673307 138.488829,25.7913307 L146.659174,22.4103307 C147.326694,22.1343307 148.090815,22.4521654 148.366507,23.1198898 C148.642198,23.7881575 148.325262,24.5531339 147.657741,24.8291339 L139.487397,28.2101339 C139.324587,28.2775039 139.154722,28.3101024 138.988656,28.3101024" id="Fill-11" fill="#5B4A42" sketch:type="MSShapeGroup"></path>
                <path d="M146.715072,34.0267795 C146.294479,34.0267795 145.881485,33.8235827 145.629129,33.4481575 C145.226446,32.8483465 145.385457,32.0350157 145.984598,31.6318819 L167.990529,16.8169843 C168.589669,16.4133071 169.401548,16.5724961 169.804774,17.1728504 C170.207457,17.7726614 170.048446,18.5854488 169.449306,18.9885827 L147.443375,33.8034803 C147.219782,33.9539764 146.966342,34.0267795 146.715072,34.0267795" id="Fill-12" fill="#5B4A42" sketch:type="MSShapeGroup"></path>
                <path d="M121.985873,51.8380157 L115.793669,50.2059213 L115.437658,50.1124724 L109.106523,48.4434331 C108.408612,48.259252 107.991818,47.5437165 108.175251,46.8444803 C108.359226,46.1457874 109.074504,45.7285276 109.772416,45.9127087 L122.742939,49.3306535 L121.985873,51.8380157" id="Fill-13" fill="#5B4A42" sketch:type="MSShapeGroup"></path>
                <path d="M60.0377851,73.0786063 C59.9455262,73.0786063 59.8516391,73.0688268 59.7577521,73.0481811 C59.0527851,72.8938819 58.6050579,72.1968189 58.7591846,71.491063 L62.4717934,54.4437165 C62.6259201,53.7374173 63.3227466,53.2902756 64.0277135,53.4434882 C64.7332231,53.5983307 65.1804077,54.2953937 65.026281,55.0011496 L61.3136722,72.0484961 C61.180168,72.6608031 60.6390964,73.0786063 60.0377851,73.0786063" id="Fill-14" fill="#5B4A42" sketch:type="MSShapeGroup"></path>
                <path d="M160.856198,73.9098661 L35.0339807,73.9098661 C34.3121901,73.9098661 33.7266171,73.3241811 33.7266171,72.6010394 C33.7266171,71.8784409 34.3121901,71.2922126 35.0339807,71.2922126 L160.856198,71.2922126 C161.578532,71.2922126 162.163562,71.8784409 162.163562,72.6010394 C162.163562,73.3241811 161.578532,73.9098661 160.856198,73.9098661" id="Fill-15" fill="#5B4A42" sketch:type="MSShapeGroup"></path>
                <path d="M122.824887,25.6375748 L132.179945,28.6371732 L127.502416,30.6001417 L122.824887,25.6375748" id="Fill-16" fill="#FFFFFF" sketch:type="MSShapeGroup"></path>
                <path d="M115.233061,48.8536299 L122.299554,50.7992126 L116.084556,71.374252 L108.313639,71.2922126 L115.233061,48.8536299" id="Fill-17" fill="#5B4A42" sketch:type="MSShapeGroup"></path>
                <path d="M68.4925041,60.781937 L62.4555124,60.781937 L60.1039945,71.2922126 L66.0416722,71.374252 L68.4925041,60.781937" id="Fill-18" fill="#5B4A42" sketch:type="MSShapeGroup"></path>
            </g>
        </g>
    </g>
</svg>