<?xml version="1.0" encoding="UTF-8" standalone="no"?>
<svg width="55px" height="260px" viewBox="0 0 55 260" version="1.1" xmlns="http://www.w3.org/2000/svg" xmlns:xlink="http://www.w3.org/1999/xlink" xmlns:sketch="http://www.bohemiancoding.com/sketch/ns">
    <!-- Generator: Sketch 3.2.2 (9983) - http://www.bohemiancoding.com/sketch -->
    <title>Group</title>
    <desc>Created with Sketch.</desc>
    <defs></defs>
    <g id="Page-1" stroke="none" stroke-width="1" fill="none" fill-rule="evenodd" sketch:type="MSPage">
        <g id="Page" sketch:type="MSArtboardGroup" transform="translate(-211.000000, -904.000000)" fill="#FFFFFF">
            <g id="Group" sketch:type="MSLayerGroup" transform="translate(212.000000, 904.000000)">
                <path d="M0,113 L8.71069422,113 C10.3679848,113 12.1471663,114.263621 12.689987,115.837979 L25.558888,153.162021 C26.0993002,154.729393 26.1017088,157.263621 25.558888,158.837979 L12.689987,196.162021 C12.1495749,197.729393 10.3680281,199 8.71069422,199 L0,199 L0,113 Z" id="Rectangle-9" sketch:type="MSShapeGroup" transform="translate(13.000000, 156.000000) scale(-1, 1) translate(-13.000000, -156.000000) "></path>
                <path d="M27,113 L35.7106942,113 C37.3679848,113 39.1471663,114.263621 39.689987,115.837979 L52.558888,153.162021 C53.0993002,154.729393 53.1017088,157.263621 52.558888,158.837979 L39.689987,196.162021 C39.1495749,197.729393 37.3680281,199 35.7106942,199 L27,199 L27,113 Z" id="Rectangle-10" sketch:type="MSShapeGroup"></path>
                <path d="M0,200 L8.71069422,200 C10.3679848,200 12.3064251,201.203854 13.0402322,202.688701 L25.2086429,227.311299 C25.9424901,228.796227 25.94245,231.203854 25.2086429,232.688701 L13.0402322,257.311299 C12.306385,258.796227 10.3680281,260 8.71069422,260 L0,260 L0,200 Z" id="Rectangle-14" sketch:type="MSShapeGroup" transform="translate(13.000000, 230.000000) scale(-1, 1) translate(-13.000000, -230.000000) "></path>
                <path d="M27,200 L35.7106942,200 C37.3679848,200 39.3064251,201.203854 40.0402322,202.688701 L52.2086429,227.311299 C52.9424901,228.796227 52.94245,231.203854 52.2086429,232.688701 L40.0402322,257.311299 C39.306385,258.796227 37.3680281,260 35.7106942,260 L27,260 L27,200 Z" id="Rectangle-13" sketch:type="MSShapeGroup"></path>
                <path d="M0,0 L8.71069422,0 C10.3679848,0 12.0561385,1.30181833 12.4773697,2.89288111 L25.7715053,53.1071189 C26.1944922,54.704813 26.1927366,57.3018183 25.7715053,58.8928811 L12.4773697,109.107119 C12.0543829,110.704813 10.3680281,112 8.71069422,112 L0,112 L0,0 Z" id="Rectangle-12" sketch:type="MSShapeGroup" transform="translate(13.000000, 56.000000) scale(-1, 1) translate(-13.000000, -56.000000) "></path>
                <path d="M27,0 L35.7106942,0 C37.3679848,0 39.0561385,1.30181833 39.4773697,2.89288111 L52.7715053,53.1071189 C53.1944922,54.704813 53.1927366,57.3018183 52.7715053,58.8928811 L39.4773697,109.107119 C39.0543829,110.704813 37.3680281,112 35.7106942,112 L27,112 L27,0 Z" id="Rectangle-11" sketch:type="MSShapeGroup"></path>
            </g>
        </g>
    </g>
</svg>