<?xml version="1.0" encoding="UTF-8" standalone="no" ?>
<svg width="53px" height="86px" viewBox="0 0 53 86" version="1.1" xmlns="http://www.w3.org/2000/svg" xmlns:xlink="http://www.w3.org/1999/xlink" xmlns:sketch="http://www.bohemiancoding.com/sketch/ns" preserveAspectRatio="none">
  <!-- Generator: Sketch 3.2.2 (9983) - http://www.bohemiancoding.com/sketch -->
  <title>Rectangle 9 + Rectangle 10</title>
  <desc>Created with Sketch.</desc>
  <defs></defs>
  <g id="Page-1" stroke="none" stroke-width="1" fill="none" fill-rule="evenodd" sketch:type="MSPage">
    <g id="Page" sketch:type="MSArtboardGroup" transform="translate(-212.000000, -1017.000000)" fill="#FFFFFF">
      <g id="Rectangle-9-+-Rectangle-10" sketch:type="MSLayerGroup" transform="translate(212.000000, 1017.000000)">
        <path d="M0,0 L8.71069422,0 C10.3679848,0 12.1471663,1.26362094 12.689987,2.83797947 L25.558888,40.1620205 C26.0993002,41.7293933 26.1017088,44.2636209 25.558888,45.8379795 L12.689987,83.1620205 C12.1495749,84.7293933 10.3680281,86 8.71069422,86 L0,86 L0,0 Z" id="Rectangle-9" sketch:type="MSShapeGroup" transform="translate(13.000000, 43.000000) scale(-1, 1) translate(-13.000000, -43.000000) "></path>
        <path d="M27,0 L35.7106942,0 C37.3679848,0 39.1471663,1.26362094 39.689987,2.83797947 L52.558888,40.1620205 C53.0993002,41.7293933 53.1017088,44.2636209 52.558888,45.8379795 L39.689987,83.1620205 C39.1495749,84.7293933 37.3680281,86 35.7106942,86 L27,86 L27,0 Z" id="Rectangle-10" sketch:type="MSShapeGroup"></path>
      </g>
    </g>
  </g>
</svg>
