<?xml version="1.0" encoding="UTF-8" standalone="no"?>
<svg width="34px" height="58px" viewBox="0 0 34 58" version="1.1" xmlns="http://www.w3.org/2000/svg" xmlns:xlink="http://www.w3.org/1999/xlink" xmlns:sketch="http://www.bohemiancoding.com/sketch/ns">
    <!-- Generator: Sketch 3.2.2 (9983) - http://www.bohemiancoding.com/sketch -->
    <title>Group</title>
    <desc>Created with Sketch.</desc>
    <defs></defs>
    <g id="Page-1" stroke="none" stroke-width="1" fill="none" fill-rule="evenodd" sketch:type="MSPage">
        <g id="Page" sketch:type="MSArtboardGroup" transform="translate(-267.000000, -626.000000)" stroke="#FFFFFF" fill="#726658">
            <g id="Group" sketch:type="MSLayerGroup" transform="translate(269.000000, 627.000000)">
                <path d="M0,0 L30,0 L27,16 L3,16 L0,0 Z" id="Rectangle-44" sketch:type="MSShapeGroup"></path>
                <path d="M0,5 L30,5 L27,21 L3,21 L0,5 Z" id="Rectangle-49" sketch:type="MSShapeGroup"></path>
                <path d="M0,10 L30,10 L27,26 L3,26 L0,10 Z" id="Rectangle-46" sketch:type="MSShapeGroup"></path>
                <path d="M0,15 L30,15 L27,31 L3,31 L0,15 Z" id="Rectangle-47" sketch:type="MSShapeGroup"></path>
                <path d="M0,20 L30,20 L27,36 L3,36 L0,20 Z" id="Rectangle-48" sketch:type="MSShapeGroup"></path>
                <path d="M0,25 L30,25 L27,41 L3,41 L0,25 Z" id="Rectangle-53" sketch:type="MSShapeGroup"></path>
                <path d="M0,30 L30,30 L27,46 L3,46 L0,30 Z" id="Rectangle-50" sketch:type="MSShapeGroup"></path>
                <path d="M0,35 L30,35 L27,51 L3,51 L0,35 Z" id="Rectangle-51" sketch:type="MSShapeGroup"></path>
                <path d="M0,40 L30,40 L27,56 L3,56 L0,40 Z" id="Rectangle-52" sketch:type="MSShapeGroup"></path>
            </g>
        </g>
    </g>
</svg>