<?xml version="1.0" encoding="UTF-8" standalone="no"?>
<svg width="104px" height="50px" viewBox="0 0 104 50" version="1.1" xmlns="http://www.w3.org/2000/svg" xmlns:xlink="http://www.w3.org/1999/xlink" xmlns:sketch="http://www.bohemiancoding.com/sketch/ns">
    <!-- Generator: Sketch 3.2.2 (9983) - http://www.bohemiancoding.com/sketch -->
    <title>Group</title>
    <desc>Created with Sketch.</desc>
    <defs></defs>
    <g id="Page-1" stroke="none" stroke-width="1" fill="none" fill-rule="evenodd" sketch:type="MSPage">
        <g id="Page" sketch:type="MSArtboardGroup" transform="translate(-430.000000, -593.000000)" fill="#726658">
            <g id="Group" sketch:type="MSLayerGroup" transform="translate(430.000000, 593.000000)">
                <path d="M0,0 L30,0 L27,16 L3,16 L0,0 Z" id="Rectangle-30" sketch:type="MSShapeGroup"></path>
                <path d="M0,17 L30,17 L27,33 L3,33 L0,17 Z" id="Rectangle-31" sketch:type="MSShapeGroup"></path>
                <path d="M0,34 L30,34 L27,50 L3,50 L0,34 Z" id="Rectangle-32" sketch:type="MSShapeGroup"></path>
                <path d="M37,0 L67,0 L64,16 L40,16 L37,0 Z" id="Rectangle-35" sketch:type="MSShapeGroup"></path>
                <path d="M37,17 L67,17 L64,33 L40,33 L37,17 Z" id="Rectangle-33" sketch:type="MSShapeGroup"></path>
                <path d="M37,34 L67,34 L64,50 L40,50 L37,34 Z" id="Rectangle-34" sketch:type="MSShapeGroup"></path>
                <path d="M74,0 L104,0 L101,16 L77,16 L74,0 Z" id="Rectangle-38" sketch:type="MSShapeGroup"></path>
                <path d="M74,17 L104,17 L101,33 L77,33 L74,17 Z" id="Rectangle-36" sketch:type="MSShapeGroup"></path>
                <path d="M74,34 L104,34 L101,50 L77,50 L74,34 Z" id="Rectangle-37" sketch:type="MSShapeGroup"></path>
            </g>
        </g>
    </g>
</svg>