<?xml version="1.0" standalone="no"?>
<!DOCTYPE svg PUBLIC "-//W3C//DTD SVG 1.1//EN" "http://www.w3.org/Graphics/SVG/1.1/DTD/svg11.dtd" >
<svg>
<metadata>
Created by FontForge 20090622 at Mon May 25 13:59:20 2015
 By deploy user
Copyright (c) 2013 by Carrois Corporate. All rights reserved.
</metadata>
<defs>
<font id="HWTArtz" horiz-adv-x="521" >
  <font-face 
    font-family="HWT Artz"
    font-weight="700"
    font-stretch="condensed"
    units-per-em="1000"
    panose-1="0 0 8 6 0 0 0 0 0 0"
    ascent="800"
    descent="-200"
    x-height="710"
    cap-height="710"
    bbox="-68 -200 734 876"
    underline-thickness="50"
    underline-position="-50"
    unicode-range="U+000D-U+2122"
  />
<missing-glyph horiz-adv-x="500" 
 />
    <glyph glyph-name=".notdef" horiz-adv-x="500" 
 />
    <glyph glyph-name=".null" horiz-adv-x="0" 
 />
    <glyph glyph-name="nonmarkingreturn" horiz-adv-x="333" 
 />
    <glyph glyph-name="NULL" horiz-adv-x="0" 
 />
    <glyph glyph-name="NULL" horiz-adv-x="0" 
 />
    <glyph glyph-name="CR" unicode="&#xd;" horiz-adv-x="200" 
 />
    <glyph glyph-name="space" unicode=" " horiz-adv-x="200" 
 />
    <glyph glyph-name="exclam" unicode="!" horiz-adv-x="214" 
d="M56 710h100q19 0 28 -10t10.5 -20t1.5 -30q0 -59 -10.5 -164.5t-13.5 -154.5q-1 -9 -1 -24q-3 -57 -9.5 -69t-37.5 -12h-35q-31 0 -37.5 11.5t-10.5 66.5q0 7 -0.5 15.5t-0.5 11.5q-3 50 -13.5 155t-10.5 164q0 20 1.5 30t10.5 20t28 10zM148 0h-81q-10 0 -15.5 1t-14 4
t-12.5 12t-4 23v100q0 40 46 40h51q51 0 62 -15.5t11 -84.5q0 -57 -7 -68.5t-36 -11.5z" />
    <glyph glyph-name="quotedbl" unicode="&#x22;" horiz-adv-x="410" 
d="M56 710h100q19 0 28 -10t10.5 -20t1.5 -30q0 -16 -10 -60t-11 -57q-5 -59 -12.5 -71.5t-38.5 -12.5h-35q-13 0 -20 1.5t-11 9t-5.5 14t-4.5 25.5t-7 35q0 1 -4 18l-8.5 35.5t-8.5 37.5t-4 25q0 20 1.5 30t10.5 20t28 10zM254 710h100q19 0 28 -10t10.5 -20t1.5 -30
q0 -16 -10 -60t-11 -57q-5 -59 -12.5 -71.5t-38.5 -12.5h-35q-13 0 -20 1.5t-11 9t-5.5 14t-4.5 25.5t-7 35q0 1 -4 18l-8.5 35.5t-8.5 37.5t-4 25q0 20 1.5 30t10.5 20t28 10z" />
    <glyph glyph-name="numbersign" unicode="#" horiz-adv-x="750" 
d="M50 18q0 16 7.5 44t20 64t15.5 48l-70 3l-13 3q-14 4 -14 19q0 13 9 45q12 42 20 56t28 15l84 3q5 16 14 48.5t14 47.5q-23 1 -73 4q-5 0 -13 2q-15 4 -15 21q0 13 9 43q9 31 13.5 42.5t13 20t22.5 8.5l85 3q4 12 19.5 64.5l19.5 65.5q6 19 21.5 23t60.5 4q36 0 48 -4.5
t12 -18.5q0 -8 -1 -13q0 -1 -13 -51l-18 -69l102 2l38 127q6 19 21.5 23t60.5 4q36 0 48 -4.5t12 -18.5q0 -8 -1 -13q-3 -18 -30 -115q95 -2 103 -4q16 -5 16 -21q0 -5 -1 -7l-21 -77q-9 -29 -23.5 -35t-69.5 -6h-15q-4 0 -14 -0.5t-15 -0.5l-25 -90q90 0 99 -3
q17 -4 17 -22q0 -4 -1 -6l-22 -77q-9 -29 -23.5 -35t-69.5 -6h-15q-22 0 -31 -1l-13 -41q-8 -25 -15.5 -52t-11 -38.5t-8 -23.5t-10 -15.5t-13.5 -5.5t-22 -2h-80q-11 0 -17 7.5t-6 15.5q0 37 39 144l4 10h-97q-10 -30 -19 -60.5t-13 -46t-9.5 -31t-9 -21.5t-10 -11
t-13.5 -6t-19 -1h-80q-11 0 -17 7.5t-6 15.5zM404 412h-87l-26 -93q16 0 48 0.5t49 0.5q5 16 13.5 47.5t12.5 44.5h-10z" />
    <glyph glyph-name="dollar" unicode="$" horiz-adv-x="396" 
d="M247 668q37 0 52.5 -0.5t32.5 -4t22 -11t5 -20.5v-67q0 -25 -38 -25h-8q-50 6 -76 6q-12 0 -27 -8.5t-15 -23.5q0 -20 9.5 -33.5t38.5 -33.5q84 -59 113.5 -106t29.5 -104q0 -76 -27 -110q-23 -29 -54 -44t-50 -19.5t-19 -11.5q0 -3 0.5 -18t0.5 -19q0 -20 -20 -20h-45
q-14 0 -17 4.5t-3 16.5v29q0 7 -1 8.5t-9 1.5q-73 1 -102.5 9t-29.5 36v75q0 7 1 11t10 7.5t26 3.5q20 0 47.5 -5.5t57.5 -5.5q25 0 45.5 8.5t20.5 26.5q0 12 -2 19t-16.5 24t-43.5 41q-80 66 -108.5 100t-28.5 80q0 140 119 173q13 3 13 11v26q0 20 23 20h46q17 0 17 -18
v-12q0 -17 10 -17z" />
    <glyph glyph-name="percent" unicode="%" horiz-adv-x="617" 
d="M81 16v4q3 27 78 191l106 238.5l107 239.5q8 16 21 21t42 5h23q34 0 45.5 -3.5t11.5 -15.5v-4l-3 -13q-15 -41 -98.5 -239.5l-130.5 -302.5l-20 -46l-15.5 -35.5t-11.5 -24t-11 -18t-11.5 -9.5t-15 -6t-19.5 -1l-79 1q-19 0 -19 18zM351 168q0 89 34 121.5t105 32.5
q4 0 12 -0.5t13 -0.5q23 -1 46.5 -16.5t36.5 -52.5q9 -29 9 -84v-9q0 -47 -9.5 -79.5t-27 -48t-27.5 -20.5t-24 -9q-23 -5 -40 -5q-75 0 -101.5 39.5t-26.5 131.5zM480 224q-17 0 -25.5 -10t-9.5 -20.5t-1 -33.5q0 -22 1 -32.5t9.5 -20.5t25.5 -10q18 0 26.5 10t10 20.5
t1.5 32.5q0 18 -0.5 26t-4 18.5t-11.5 15t-22 4.5zM10 554q0 89 34 121.5t105 32.5q4 0 12 -0.5t13 -0.5q23 -1 46.5 -16.5t36.5 -52.5q9 -29 9 -84q0 -45 -10 -79t-26 -51t-28.5 -25t-23.5 -11q-23 -5 -40 -5q-75 0 -101.5 39.5t-26.5 131.5zM139 610q-17 0 -25.5 -10
t-9.5 -20.5t-1 -33.5q0 -22 1 -32.5t9.5 -20.5t25.5 -10q18 0 26.5 10t10 20.5t1.5 32.5q0 18 -0.5 26t-4 18.5t-11.5 15t-22 4.5z" />
    <glyph glyph-name="ampersand" unicode="&#x26;" horiz-adv-x="646" 
d="M377 359q29 -39 58.5 -74.5t33.5 -35.5q2 0 6 4q21 26 27.5 50t5 34t11 16t48.5 6h4q17 0 25 -0.5t18.5 -2.5t15 -7t4.5 -14q0 -51 -26 -102q-13 -25 -27.5 -46l-21.5 -31t-7 -15q0 -12 58 -70l4 -4q23 -21 23 -42q0 -16 -8.5 -20.5t-31.5 -4.5h-125q-18 0 -29 12
t-18.5 24.5t-16.5 12.5q-4 0 -26 -13.5t-64.5 -27t-96.5 -13.5q-97 0 -153 52.5t-56 159.5q0 45 19 83t41 58.5l41 38t19 25.5q0 4 -7.5 15t-16 25t-16 42t-7.5 62q0 79 56.5 119t150.5 40q80 0 134.5 -41t54.5 -117q0 -36 -5.5 -60.5t-24.5 -55.5q-11 -19 -30.5 -35
l-32.5 -26t-13 -16q0 -1 2 -5zM240 530q0 -26 15 -50.5t35 -24.5q19 0 34.5 26.5t15.5 51.5q0 22 -11.5 39.5t-36.5 17.5q-27 0 -39.5 -17.5t-12.5 -42.5zM338 148l-96 122q-16 18 -20 18t-12 -7.5t-16 -25.5t-8 -40q0 -34 20 -61t62 -27q71 0 71 17q0 3 -1 4z" />
    <glyph glyph-name="quotesingle" unicode="'" horiz-adv-x="214" 
d="M56 710h100q19 0 28 -10t10.5 -20t1.5 -30q0 -16 -10 -60t-11 -57q-5 -59 -12.5 -71.5t-38.5 -12.5h-35q-13 0 -20 1.5t-11 9t-5.5 14t-4.5 25.5t-7 35q0 1 -4 18l-8.5 35.5t-8.5 37.5t-4 25q0 20 1.5 30t10.5 20t28 10z" />
    <glyph glyph-name="parenleft" unicode="(" horiz-adv-x="248" 
d="M9 357q0 82 13.5 145.5t34.5 100.5t48.5 61t52 32.5t49.5 8.5q22 0 22 -34v-70q0 -19 -5.5 -32.5t-11.5 -16.5l-5 -4q-29 -21 -29 -191q0 -179 29 -200q22 -5 22 -45v-85q0 -32 -25 -32q-24 0 -47.5 8t-51.5 32t-48.5 62.5t-34 105.5t-13.5 154z" />
    <glyph glyph-name="parenright" unicode=")" horiz-adv-x="248" 
d="M229 357q0 -87 -13.5 -154t-34 -105.5t-48.5 -62.5t-51.5 -32t-47.5 -8q-25 0 -25 32v85q0 18 5.5 29t11.5 13l5 3q29 21 29 200q0 170 -29 191q-22 10 -22 53v70q0 34 22 34q25 0 49.5 -8.5t52 -32.5t48.5 -61t34.5 -100.5t13.5 -145.5z" />
    <glyph glyph-name="asterisk" unicode="*" horiz-adv-x="297" 
d="M179 517q-5 -1 -5 -10q0 -7 1.5 -16.5l3 -19t3.5 -18t4 -13.5l1 -6q0 -20 -37 -20q-39 0 -39 21q0 1 0.5 4t0.5 5q10 60 10 65q0 9 -3 9q-9 0 -38.5 -26.5t-34.5 -26.5q-11 0 -24.5 19.5t-13.5 34.5q0 14 37.5 26.5t37.5 19.5q0 8 -37.5 20t-37.5 25t11 29.5t24 16.5
q3 0 31 -20.5t41 -20.5q6 0 6 11l-9 66v2l-1 2q0 19 37 19q13 0 20 -1t13 -6.5t6 -15.5q-15 -49 -15 -69q0 -8 5 -8q10 0 40 25.5t35 25.5q11 0 24 -20t13 -33q0 -12 -41 -26.5t-41 -21.5q0 -9 40 -26t40 -31q0 -15 -13.5 -32t-24.5 -17q-9 1 -36 29.5t-34 28.5z" />
    <glyph glyph-name="plus" unicode="+" horiz-adv-x="510" 
d="M325 290v-125q0 -10 -1 -15.5t-4 -14t-12 -12.5t-23 -4h-60q-14 0 -23 4t-12 12.5t-4 14t-1 15.5v125q0 3 -3.5 6.5t-6.5 3.5h-119q-9 0 -14.5 0.5t-12.5 4t-10.5 12t-3.5 22.5v56q0 45 41 45h123q6 0 6 11v108q0 13 1.5 20t11 13.5t27.5 6.5h60q14 0 23 -3t12.5 -10.5
t4 -13t0.5 -16.5v-106q0 -3 3.5 -6.5t6.5 -3.5h117q21 0 32 -9t11 -36v-56q0 -14 -3 -22.5t-10.5 -12t-13 -4t-16.5 -0.5h-117q-3 0 -6.5 -3.5t-3.5 -6.5z" />
    <glyph glyph-name="comma" unicode="," horiz-adv-x="196" 
d="M182 235v-101q0 -29 -17 -81q-11 -34 -24.5 -46t-35.5 -12h-33q-15 0 -19.5 3t-4.5 16q0 10 13 25t13 36q0 14 -4 17t-16 3q-16 0 -29 12.5t-13 27.5v100q0 14 4 23t12.5 12t14 4t15.5 1h81q11 0 16.5 -0.5t13 -4t10.5 -12.5t3 -23z" />
    <glyph glyph-name="hyphen" unicode="-" horiz-adv-x="292" 
d="M233 300h-171q-10 0 -15.5 1t-14 4t-12.5 12t-4 23v60q0 14 4 23t12.5 12t14 4t15.5 1h171q11 0 16.5 -0.5t13 -4t10.5 -12.5t3 -23v-60q0 -14 -3 -23t-10.5 -12.5t-13 -4t-16.5 -0.5z" />
    <glyph glyph-name="period" unicode="." horiz-adv-x="202" 
d="M143 0h-81q-10 0 -15.5 1t-14 4t-12.5 12t-4 23v100q0 14 4 23t12.5 12t14 4t15.5 1h81q11 0 16.5 -0.5t13 -4t10.5 -12.5t3 -23v-100q0 -14 -3 -23t-10.5 -12.5t-13 -4t-16.5 -0.5z" />
    <glyph glyph-name="slash" unicode="/" horiz-adv-x="347" 
d="M4 18q0 29 52 191q19 58 71 237t73 242q6 19 21.5 23t60.5 4q36 0 48 -4.5t12 -18.5q0 -8 -1 -13q-9 -40 -63.5 -238.5t-86.5 -304.5q-7 -21 -14 -45.5t-10 -36t-8 -25t-8.5 -18t-10 -9.5t-14 -6t-19.5 -1h-80q-11 0 -17 7.5t-6 15.5z" />
    <glyph glyph-name="zero" unicode="0" horiz-adv-x="458" 
d="M14 355v59.5t1.5 54.5t4.5 52.5l8 46t13 43l19.5 34.5t27.5 30.5t36 21t46.5 14.5t58.5 4q143 0 187 -102q27 -64 28 -221v-37v-59.5t-1.5 -54.5t-4.5 -52.5l-8 -46t-13 -43l-19.5 -34.5t-27.5 -30.5t-36 -21t-46.5 -14.5t-58.5 -4q-143 0 -187 102q-27 64 -28 221v37z
M229 565q-20 0 -30.5 -13t-12.5 -29.5t-2 -45.5v-251q0 -29 2 -45.5t12.5 -31t30.5 -14.5q30 0 39.5 30.5t9.5 93.5q0 14 -0.5 46t-0.5 50q0 17 0.5 47.5t0.5 43.5q0 61 -9.5 90t-39.5 29z" />
    <glyph glyph-name="one" unicode="1" horiz-adv-x="365" 
d="M171 60v404v14q0 27 -5 27q-11 0 -66 -50q-12 -11 -24 -11q-16 0 -44.5 29.5t-28.5 49.5q0 12 12 23l47 42.5t71 72.5l4 5q28 31 42 37.5t61 6.5h56q24 0 36 -13.5t13.5 -26.5t1.5 -40v-570q0 -15 -1 -22.5t-6.5 -18t-18.5 -15t-35 -4.5h-55q-21 0 -34.5 4.5t-18.5 15
t-6 18t-1 22.5z" />
    <glyph glyph-name="two" unicode="2" horiz-adv-x="458" 
d="M311 143q1 0 35.5 1t45.5 1q51 0 51 -62v-30q0 -15 -1 -21.5t-6 -15.5t-17 -12.5t-32 -3.5h-319q-19 0 -30.5 4.5t-16 15t-5.5 18t-1 22.5v60q0 8 4.5 17t14.5 20.5t20.5 21l30 28l34.5 33.5q60 60 96 116q23 37 31 68.5t8 87.5q0 31 -12.5 49.5t-31.5 18.5
q-22 0 -33.5 -25t-11.5 -53q0 -2 1.5 -22t1.5 -23q0 -31 -30 -31h-88q-14 0 -21 7.5t-8 14.5t-1 22v38q0 94 34 143q20 29 52.5 44t56.5 17.5t62 2.5q97 0 142 -33q36 -27 54.5 -77t18.5 -102q0 -62 -11 -110.5t-48 -92.5q-32 -38 -71 -76t-61 -57t-22 -22t3 -3q8 0 40 0.5
t41 0.5z" />
    <glyph glyph-name="three" unicode="3" horiz-adv-x="477" 
d="M178 435h13q81 0 81 68q0 76 -70 76q-32 0 -58 -31q-2 -2 -5.5 -6t-5 -6t-4 -5t-4 -4t-4 -3t-4 -2.5t-3.5 -1t-4 -0.5q-9 0 -26 14l-36 29q-21 17 -21 29q0 10 9 23q45 61 90.5 80.5t121.5 19.5q46 0 92 -17t68 -51q30 -47 30 -93q0 -44 -9.5 -77t-20.5 -48t-20.5 -25.5
t-9.5 -13.5q0 -8 28 -28q27 -21 41 -51.5t16 -49.5t2 -50q0 -216 -250 -216q-87 0 -140 31q-15 8 -39 33t-24 42q0 14 22 36l45 44q10 11 21 11t19 -8q41 -46 97 -46q78 0 78 77q0 47 -21 66.5t-70 19.5l-11 -1q-10 -1 -18 -1q-28 0 -28 62v11q0 14 0.5 22.5t3.5 19t10 16
t18 5.5z" />
    <glyph glyph-name="four" unicode="4" horiz-adv-x="491" 
d="M206 160h-167q-30 0 -30 36q0 72 16 107q138 300 158 337q27 49 44 59.5t71 10.5h77q37 0 37 -46v-349q0 -11 7.5 -13t35.5 -2q13 0 16.5 -8t3.5 -36v-34q0 -62 -18 -62h-10q-25 0 -31.5 -5.5t-6.5 -31.5q0 -7 1 -28t1 -35q0 -20 -1.5 -30t-10.5 -20t-28 -10h-91
q-28 0 -36 13t-8 50q0 8 0.5 32t0.5 40q0 17 -6 21t-25 4zM240 375v65q0 29 -4 29q-2 0 -15 -26.5l-32 -68t-30 -62.5q-2 -6 -2 -7q0 -7 34 -7h15q23 0 28.5 7t5.5 35v35z" />
    <glyph glyph-name="five" unicode="5" horiz-adv-x="469" 
d="M74 617v13q0 16 0.5 24t3.5 21t9 19t18 11t29 5h231q30 0 40.5 -15.5t10.5 -54.5q0 -41 -7.5 -55.5t-31.5 -14.5q-11 0 -32 1t-25 1h-61q-33 0 -40 -9t-7 -40q0 -42 4 -52t23 -10q5 0 23.5 2t43.5 2q70 0 110.5 -60.5t40.5 -160.5q0 -107 -59.5 -178t-172.5 -71
q-102 0 -169 59q-46 40 -46 57q0 16 13 27l29 28q37 36 48 37q9 0 21 -12q24 -27 41.5 -36.5t40.5 -9.5q39 0 56 27.5t17 66.5q0 21 -2 34.5t-9.5 30.5t-26.5 26t-48 9q-16 0 -43 -6t-37 -6q-16 0 -26 8t-10 23v259z" />
    <glyph glyph-name="six" unicode="6" horiz-adv-x="465" 
d="M392 570q-10 0 -32.5 2.5t-33.5 2.5q-47 0 -81 -22q-20 -13 -39.5 -41t-19.5 -60q0 -15 6 -15q2 0 22 10q32 19 85 19q36 0 76.5 -23t61.5 -77q15 -41 15 -123q0 -53 -12 -96t-29 -67.5t-39 -42t-37.5 -24.5t-29.5 -10q-37 -8 -66 -8q-55 0 -95 14t-65 39.5t-40 65.5
t-21 86.5t-6 108.5q0 171 47 259q29 54 97.5 100.5t171.5 46.5h21q24 0 39 -4t21.5 -12.5t8 -16t1.5 -21.5q0 -7 1 -23t1 -24q0 -44 -29 -44zM229 325q-24 0 -35.5 -14t-13 -29t-1.5 -47t1.5 -47t13 -29t35.5 -14t35.5 14t13 29t1.5 47t-1.5 47t-13 29t-35.5 14z" />
    <glyph glyph-name="seven" unicode="7" horiz-adv-x="411" 
d="M35 710h326q43 0 43 -43v-37q0 -9 -8.5 -36t-24.5 -73t-23 -68q-33 -100 -67 -270l-9 -44q-3 -18 -7.5 -48t-7.5 -42t-9.5 -27.5t-17.5 -21t-29 -5.5h-101q-36 0 -36 40q0 51 31 151l32 109t43 143q2 9 22 60.5t20 65.5q0 9 -14 9q-10 0 -59 -1.5t-73 -1.5q-26 0 -38 3.5
t-14 9t-2 18.5v83q0 26 23 26z" />
    <glyph glyph-name="eight" unicode="8" horiz-adv-x="487" 
d="M368 385q0 -4 13.5 -14t33 -27t31.5 -34q29 -42 29 -113q0 -92 -65.5 -147t-165.5 -55q-105 0 -168 49t-63 153q0 37 14.5 71t31.5 52.5t31.5 32.5t14.5 16t-9 8.5t-21.5 19t-25 30t-21.5 47.5t-9 66q0 67 50 120q51 55 175 55q93 0 151 -43t58 -128q0 -40 -9 -70.5
t-21.5 -46t-24.5 -25t-21 -13t-9 -4.5zM245 434q7 0 17.5 8.5t21 29.5t10.5 48q0 72 -50 72q-29 0 -43 -16.5t-14 -55.5q0 -67 58 -86zM230 305q-11 0 -25.5 -30.5t-14.5 -66.5q0 -23 13 -45.5t41 -22.5q23 0 37.5 17t14.5 49q0 71 -66 99z" />
    <glyph glyph-name="nine" unicode="9" horiz-adv-x="467" 
d="M91 -5q-21 1 -29 4t-13.5 22.5t-5.5 62.5q0 51 38 51l36 -1h1q53 0 106.5 35.5t53.5 93.5q0 8 -3 8q-2 0 -4 -2q-34 -22 -98 -22q-76 0 -118 64t-42 154q0 69 16 118.5t37.5 74t54.5 38.5t55 16.5t52 2.5q55 0 94 -13t70.5 -46t47 -95t15.5 -155q0 -248 -94 -334
q-84 -77 -270 -77zM232 576q-24 0 -35.5 -14t-13 -29t-1.5 -47q0 -25 1 -37.5t5 -29.5t15 -24.5t29 -7.5t29 7.5t15 24.5t5 29.5t1 37.5q0 32 -1.5 47t-13 29t-35.5 14z" />
    <glyph glyph-name="colon" unicode=":" horiz-adv-x="203" 
d="M144 300h-81q-10 0 -15.5 1t-14 4t-12.5 12t-4 23v100q0 14 4 23t12.5 12t14 4t15.5 1h81q11 0 16.5 -0.5t13 -4t10.5 -12.5t3 -23v-100q0 -14 -3 -23t-10.5 -12.5t-13 -4t-16.5 -0.5zM144 0h-81q-10 0 -15.5 1t-14 4t-12.5 12t-4 23v100q0 14 4 23t12.5 12t14 4t15.5 1
h81q11 0 16.5 -0.5t13 -4t10.5 -12.5t3 -23v-100q0 -14 -3 -23t-10.5 -12.5t-13 -4t-16.5 -0.5z" />
    <glyph glyph-name="semicolon" unicode=";" horiz-adv-x="197" 
d="M139 395h-81q-10 0 -15.5 1t-14 4t-12.5 12t-4 23v100q0 14 4 23t12.5 12t14 4t15.5 1h81q11 0 16.5 -0.5t13 -4t10.5 -12.5t3 -23v-100q0 -14 -3 -23t-10.5 -12.5t-13 -4t-16.5 -0.5zM182 235v-101q0 -29 -17 -81q-11 -34 -24.5 -46t-35.5 -12h-33q-15 0 -19.5 3
t-4.5 16q0 10 13 25t13 36q0 14 -4 17t-16 3q-16 0 -29 12.5t-13 27.5v100q0 14 4 23t12.5 12t14 4t15.5 1h81q11 0 16.5 -0.5t13 -4t10.5 -12.5t3 -23z" />
    <glyph glyph-name="less" unicode="&#x3c;" horiz-adv-x="232" 
d="M213 301v-88q0 -21 -9 -21q-7 0 -77.5 37t-82.5 45q-29 19 -29 85v17q0 70 29 89l147 90q8 5 12 5q13 0 13 -49q0 -9 -0.5 -28t-0.5 -29q0 -9 -62 -42.5t-62 -37.5t61 -34.5t61 -38.5z" />
    <glyph glyph-name="equal" unicode="=" horiz-adv-x="292" 
d="M233 400h-171q-10 0 -15.5 1t-14 4t-12.5 12t-4 23v60q0 14 4 23t12.5 12t14 4t15.5 1h171q11 0 16.5 -0.5t13 -4t10.5 -12.5t3 -23v-60q0 -14 -3 -23t-10.5 -12.5t-13 -4t-16.5 -0.5zM233 200h-171q-10 0 -15.5 1t-14 4t-12.5 12t-4 23v60q0 14 4 23t12.5 12t14 4
t15.5 1h171q11 0 16.5 -0.5t13 -4t10.5 -12.5t3 -23v-60q0 -14 -3 -23t-10.5 -12.5t-13 -4t-16.5 -0.5z" />
    <glyph glyph-name="greater" unicode="&#x3e;" horiz-adv-x="232" 
d="M18 213v88q0 8 61 38.5t61 34.5t-62 37.5t-62 42.5q0 10 -0.5 29t-0.5 28q0 49 13 49q4 0 12 -5l147 -90q29 -19 29 -89v-17q0 -66 -29 -85q-12 -8 -82.5 -45t-77.5 -37q-9 0 -9 21z" />
    <glyph glyph-name="question" unicode="?" horiz-adv-x="306" 
d="M20 665q0 50 113 50q53 0 88.5 -14.5t50.5 -39t20 -43.5t5 -41q0 -33 -7.5 -62t-15 -44t-22 -38.5t-19.5 -32.5q-14 -26 -24.5 -61.5t-14 -56t-3.5 -25.5q0 -16 -6.5 -22.5t-26.5 -6.5h-50q-28 0 -34.5 9.5t-6.5 33.5q0 66 7.5 103.5t33.5 89.5q11 21 11 65
q0 23 -15.5 37t-26.5 14q-7 0 -16.5 -2.5t-14.5 -2.5q-16 0 -21.5 10.5t-5.5 32.5q0 7 0.5 22.5t0.5 24.5zM172 0h-81q-10 0 -15.5 1t-14 4t-12.5 12t-4 23v100q0 40 46 40h51q51 0 62 -15.5t11 -84.5q0 -57 -7 -68.5t-36 -11.5z" />
    <glyph glyph-name="at" unicode="@" horiz-adv-x="754" 
d="M106 41q-58 55 -76.5 125t-18.5 158v14q0 72 22.5 138t66 121.5t117.5 89t168 33.5h12q160 -3 248.5 -95t88.5 -239q0 -303 -195 -319q-7 -1 -21 -1q-82 0 -104 76q-2 6 -3 6t-3 -2q-22 -14 -89 -14q-62 0 -94 52t-32 128q0 58 12.5 99t29.5 62t43.5 32.5t44 13.5t41.5 2
q19 0 32 -3t19 -6t7 -3q6 0 13 12.5t18 12.5h36q13 0 19 -1t11.5 -9t5.5 -24v-23q0 -10 -1 -69.5t-1 -80.5q0 -60 3 -91t7.5 -38.5t13.5 -7.5q12 0 23 18t20 66.5t9 119.5q0 99 -55 152.5t-153 53.5q-244 0 -244 -287q0 -79 40 -143t115 -77h7l24 1q30 0 30 -43
q0 -52 -7.5 -63t-31.5 -11q-150 0 -218 64zM367 405q-27 0 -34.5 -18.5t-7.5 -56.5q0 -20 1 -32t5 -25.5t13 -20t23 -6.5q15 0 24 6.5t13 20t5 25.5t1 32q0 25 -2 38.5t-12 25t-29 11.5z" />
    <glyph glyph-name="A" unicode="A" 
d="M405 630q28 -171 56 -310.5l38.5 -192t10.5 -77.5q0 -32 -20 -41t-68 -9h-53q-26 0 -35.5 37.5t-14.5 75t-21 37.5h-80q-16 0 -23 -37.5t-17.5 -75t-36.5 -37.5h-47q-45 0 -64 9t-19 41q0 21 5.5 53.5t15.5 80.5t32.5 170l48.5 276q13 80 68 80h154q54 0 70 -80zM220 331
q-1 -6 -1 -15q0 -11 6.5 -13.5t32.5 -2.5q25 0 32 2t7 13q0 9 -1 16q-3 23 -6.5 59.5l-6 61t-6 49t-8.5 37t-11 12.5q-4 0 -8 -6.5t-7 -20t-5.5 -28t-5 -37.5t-4 -40l-4 -44t-4.5 -43z" />
    <glyph glyph-name="B" unicode="B" horiz-adv-x="497" 
d="M386 385q-4 -1 -4 -5t4 -5q50 -17 74 -65.5t24 -107.5t-27 -110q-23 -43 -49.5 -64t-46.5 -24.5t-60 -3.5h-223q-17 0 -29 5t-18 11t-9 19t-3.5 21t-0.5 24v550q0 16 0.5 24t3.5 21t9 19t18 11t29 5h215q90 0 131 -50.5t41 -127.5q0 -105 -79 -147zM238 575
q-35 0 -42.5 -13t-7.5 -55q0 -23 1 -32.5t5.5 -19.5t14.5 -12.5t29 -2.5q50 0 50 67q0 68 -50 68zM243 313q-20 0 -31.5 -4.5t-16.5 -18t-6 -25.5t-1 -40q0 -23 0.5 -33t3 -24t8.5 -19.5t16.5 -9.5t26.5 -4q34 0 44.5 24t10.5 66q0 18 -0.5 27t-3 23t-8 20.5t-16.5 12
t-27 5.5z" />
    <glyph glyph-name="C" unicode="C" horiz-adv-x="369" 
d="M10 365q0 69 12.5 124.5t35.5 93t52 64t64.5 41t70 21t72.5 6.5t38 -32v-88q0 -5 -0.5 -8t-4 -8t-12 -7t-21.5 -2q-11 0 -19.5 1t-12.5 1q-27 0 -46.5 -19.5t-28.5 -43t-14 -58.5t-5.5 -51.5t-0.5 -36.5q0 -26 2 -51t9.5 -69.5t28 -72t51.5 -27.5q5 0 14 1t22 1
q38 0 38 -46v-67q0 -37 -38 -37q-46 0 -86.5 9t-82.5 34t-71.5 65t-48 107t-18.5 155z" />
    <glyph glyph-name="D" unicode="D" horiz-adv-x="492" 
d="M78 710h150q65 0 110.5 -17t72.5 -45t42 -76t20 -97t5 -120q0 -49 -1.5 -84.5t-7.5 -75t-17 -66.5t-29.5 -53.5t-44.5 -41.5t-64 -24.5t-86 -9.5h-150q-17 0 -29 5t-18 11t-9 19t-3.5 21t-0.5 24v550q0 16 0.5 24t3.5 21t9 19t18 11t29 5zM208 575q-13 0 -17 -7t-4 -24
q0 -56 0.5 -175t0.5 -179q0 -50 20 -50q53 0 66.5 44.5t13.5 175.5q0 48 -1 76.5t-5.5 58.5t-13 45.5t-23.5 25t-37 9.5z" />
    <glyph glyph-name="E" unicode="E" horiz-adv-x="399" 
d="M188 253v-70q1 -16 13.5 -24.5t28.5 -8.5q33 0 62 1t35 1q31 0 43 -9.5t12 -32.5v-70q0 -22 -9 -31t-31 -9h-264q-60 0 -60 80v550q0 16 0.5 24t3.5 21t9 19t18 11t29 5h258q20 0 33.5 -8t13.5 -22v-85q0 -16 -11 -20.5t-34 -4.5q-21 0 -52.5 1t-42.5 1q-20 0 -31.5 -3
t-16.5 -11.5t-6 -15.5t-1 -22q0 -30 0.5 -41.5t5.5 -23t15 -14.5t29 -3q36 0 62 1t33 1q37 0 37 -46v-64q0 -14 -7 -21.5t-15.5 -9t-23.5 -1.5q-29 0 -63 1t-41 1q-16 0 -23 -5.5t-8 -13.5t-1 -28z" />
    <glyph glyph-name="F" unicode="F" horiz-adv-x="379" 
d="M250 572q-44 0 -53 -14t-9 -63q0 -40 6.5 -52t37.5 -12q24 0 44 1t25 1q41 0 50 -9.5t9 -44.5v-9q0 -56 -9.5 -69t-58.5 -13q-11 0 -37 1t-33 1q-24 0 -29 -9t-5 -49v-152q0 -16 -0.5 -24t-3.5 -21t-9 -19t-18 -11t-29 -5h-50q-17 0 -29 5t-18 11t-9 19t-3.5 21t-0.5 24
v550q0 16 1 26t6 24.5t18.5 22t34.5 7.5h248q20 0 33.5 -8t13.5 -22v-85q0 -15 -8.5 -20t-35.5 -5q-10 0 -31.5 1t-47.5 1z" />
    <glyph glyph-name="G" unicode="G" horiz-adv-x="511" 
d="M336 185v89q0 21 -9.5 26.5t-27.5 5.5q-23 0 -30 10t-7 33v10q0 62 6.5 74t41.5 12h143q15 0 24.5 -3t13 -10t4.5 -12t1 -15v-312q0 -28 -11.5 -47.5t-25.5 -29.5t-39 -15t-39.5 -5.5t-38.5 -0.5q-51 0 -96 9.5t-89.5 35t-76 65.5t-51 106t-19.5 151q0 82 20.5 146.5
t52 102.5t74 62t81.5 33t79 9q79 0 112.5 -9.5t33.5 -32.5v-79q0 -24 -29 -24q-14 0 -48.5 6.5t-58.5 6.5q-44 0 -75 -27t-44 -68t-18 -70.5t-5 -52.5q0 -37 4.5 -71t15.5 -71.5t36 -60t61 -22.5q34 0 34 45z" />
    <glyph glyph-name="H" unicode="H" horiz-adv-x="486" 
d="M188 630v-125q0 -41 7 -48t48 -7t48 6.5t7 45.5v128q0 16 0.5 24t3.5 21t9 19t18 11t29 5h50q17 0 29 -5t18 -11t9 -19t3.5 -21t0.5 -24v-550q0 -16 -0.5 -24t-3.5 -21t-9 -19t-18 -11t-29 -5h-50q-17 0 -29 5t-18 11t-9 19t-3.5 21t-0.5 24v150q0 49 -8.5 59.5
t-46.5 10.5h-11q-27 0 -35.5 -7.5t-8.5 -43.5v-19v-150q0 -16 -0.5 -24t-3.5 -21t-9 -19t-18 -11t-29 -5h-50q-17 0 -29 5t-18 11t-9 19t-3.5 21t-0.5 24v550q0 16 0.5 24t3.5 21t9 19t18 11t29 5h50q17 0 29 -5t18 -11t9 -19t3.5 -21t0.5 -24z" />
    <glyph glyph-name="I" unicode="I" horiz-adv-x="206" 
d="M188 630v-550q0 -16 -0.5 -24t-3.5 -21t-9 -19t-18 -11t-29 -5h-50q-17 0 -29 5t-18 11t-9 19t-3.5 21t-0.5 24v550q0 16 0.5 24t3.5 21t9 19t18 11t29 5h50q17 0 29 -5t18 -11t9 -19t3.5 -21t0.5 -24z" />
    <glyph glyph-name="J" unicode="J" horiz-adv-x="301" 
d="M122 -5q-63 0 -88 10t-25 46v65q0 29 31 29q6 0 17 -0.5t15 -0.5q26 0 34 12t8 44q0 6 -0.5 26.5t-0.5 34.5v369q0 16 0.5 24t3.5 21t9 19t18 11t29 5h50q17 0 29 -5t18 -11t9 -19t3.5 -21t0.5 -24v-474q0 -90 -41 -125.5t-120 -35.5z" />
    <glyph glyph-name="K" unicode="K" horiz-adv-x="489" 
d="M342 374q134 -295 137 -344q0 -30 -52 -30h-52q-45 0 -58.5 13t-31.5 66q-11 32 -23.5 72.5l-20 63t-16 44.5t-16 31.5t-15.5 9.5t-8 -22q0 -6 1 -22.5t1 -25.5v-150q0 -16 -0.5 -24t-3.5 -21t-9 -19t-18 -11t-29 -5h-50q-17 0 -29 5t-18 11t-9 19t-3.5 21t-0.5 24v550
q0 16 0.5 24t3.5 21t9 19t18 11t29 5h50q17 0 29 -5t18 -11t9 -19t3.5 -21t0.5 -24q0 -133 0.5 -155t4.5 -22q13 0 27 28t27 70t14 44q6 14 14 35.5t12 30t10.5 21t12.5 17t15.5 8t22.5 3.5h58q22 0 32.5 -1t20 -7.5t9.5 -19.5q0 -19 -17 -53q-13 -27 -44 -85l-53.5 -100
t-22.5 -45q0 -1 11 -25z" />
    <glyph glyph-name="L" unicode="L" horiz-adv-x="369" 
d="M219 143q31 0 61 1t37 1q29 0 38 -13t9 -39v-13q0 -16 -0.5 -24t-3.5 -21t-9 -19t-18 -11t-29 -5h-226q-17 0 -29 5t-18 11t-9 19t-3.5 21t-0.5 24v550q0 16 0.5 24t3.5 21t9 19t18 11t29 5h50q17 0 29 -5t18 -11t9 -19t3.5 -21t0.5 -24v-431q0 -17 1 -26t8.5 -19.5
t21.5 -10.5z" />
    <glyph glyph-name="M" unicode="M" horiz-adv-x="616" 
d="M328 477l75 177q15 36 32.5 46t48.5 10h54q17 0 29 -5t18 -11t9 -19t3.5 -21t0.5 -24v-550q0 -16 -0.5 -24t-3.5 -21t-9 -19t-18 -11t-29 -5h-50q-17 0 -29 5t-18 11t-9 19t-3.5 21t-0.5 24v275q0 10 -5 10q-4 0 -9 -10l-26 -54l-20.5 -42.5l-14.5 -31t-11.5 -23t-10 -14
t-11 -8.5t-12.5 -2t-12.5 2t-11 8.5t-10 14t-12 23l-14.5 31l-20 43l-26 53.5q-5 10 -9 10q-5 0 -5 -10v-275q0 -16 -0.5 -24t-3.5 -21t-9 -19t-18 -11t-29 -5h-50q-17 0 -29 5t-18 11t-9 19t-3.5 21t-0.5 24v550q0 16 0.5 24t3.5 21t9 19t18 11t29 5h53q31 0 49 -10.5
t33 -45.5l75 -177q12 -28 20 -28t20 28z" />
    <glyph glyph-name="N" unicode="N" 
d="M319 400q4 -10 9 -10t5 10v230q0 16 0.5 24t3.5 21t9 19t18 11t29 5h50q17 0 29 -5t18 -11t9 -19t3.5 -21t0.5 -24v-550q0 -16 -0.5 -24t-3.5 -21t-9 -19t-18 -11t-29 -5q-62 0 -80.5 9.5t-30.5 36.5l-133 289q-5 10 -8 10q-4 0 -4 -10l1 -255q0 -16 -0.5 -24t-3.5 -21
t-9 -19t-18 -11t-29 -5h-50q-17 0 -29 5t-18 11t-9 19t-3.5 21t-0.5 24v550q0 16 0.5 24t3.5 21t9 19t18 11t29 5h53q26 0 37 -6t22 -29z" />
    <glyph glyph-name="O" unicode="O" horiz-adv-x="471" 
d="M15 355q0 14 -0.5 41t-0.5 40q0 56 3 91.5t16 75t36.5 61.5t66 36.5t104.5 14.5q59 0 99.5 -14.5t63 -36t34.5 -60t15 -73.5t3 -91q0 -31 1.5 -88.5t1.5 -83.5q0 -53 -4 -90t-17 -74t-36.5 -59t-64 -36t-96.5 -14q-62 0 -104.5 14.5t-66 36.5t-36.5 61t-16 74.5t-3 91.5
q0 13 0.5 40.5t0.5 41.5zM235 575q-23 0 -35 -9.5t-13.5 -19t-1.5 -26.5v-315q0 -16 1 -24.5t5 -21t15 -18.5t29 -6t29 6t15 18.5t5 21t1 24.5v315q0 17 -1.5 26.5t-13.5 19t-35 9.5z" />
    <glyph glyph-name="P" unicode="P" horiz-adv-x="470" 
d="M213 244q-16 0 -20.5 -4t-4.5 -13v-147q0 -16 -0.5 -24t-3.5 -21t-9 -19t-18 -11t-29 -5h-50q-17 0 -29 5t-18 11t-9 19t-3.5 21t-0.5 24v550q0 16 0.5 24t3.5 21t9 19t18 11t29 5h217q80 0 124.5 -61t44.5 -167q0 -41 -9.5 -89.5t-21.5 -72.5q-37 -78 -183 -78zM233 575
q-29 0 -37.5 -10.5t-8.5 -38.5q0 -6 0.5 -23t0.5 -28t-0.5 -28t-0.5 -22q0 -25 8 -32t38 -7q19 0 31 7t16.5 21.5t6 27t1.5 33.5q0 100 -55 100z" />
    <glyph glyph-name="Q" unicode="Q" horiz-adv-x="489" 
d="M239 135q24 0 35.5 8.5t13 18t1.5 28.5v335q0 13 -1 19t-5 14.5t-15 12.5t-29 4t-29 -4t-15 -12.5t-5 -14.5t-1 -19v-335q0 -19 1.5 -28.5t13 -18t35.5 -8.5zM353 32q-5 0 -36 -18.5t-73 -18.5q-60 0 -103.5 13.5t-66.5 32t-36 47t-16 50t-3 48.5v261q0 7 -0.5 23.5
t-0.5 24.5q0 37 3 63t16 58t36.5 52t67 33.5t104.5 13.5q58 0 99 -13.5t63 -33.5t34 -53.5t15 -61.5t3 -69q0 -30 0.5 -92t0.5 -96q0 -110 -27 -137q-5 -5 -5 -12q0 -12 12 -12q3 0 9.5 0.5t9.5 0.5q20 0 20 -20q0 -12 -0.5 -28.5t-0.5 -24.5q0 -6 0.5 -20.5t0.5 -22.5
q0 -25 -27 -25q-28 0 -47.5 6t-26.5 12.5l-13 12.5t-12 6z" />
    <glyph glyph-name="R" unicode="R" horiz-adv-x="485" 
d="M78 710h195q191 0 191 -225q0 -44 -2.5 -66t-15.5 -49.5t-40 -50.5q-10 -9 -23.5 -14t-18 -11t-4.5 -23q0 -35 11.5 -63t34.5 -28q8 0 15 1t11.5 2.5t5.5 1.5q22 0 29.5 -17.5t7.5 -55.5q0 -10 -0.5 -36.5t-0.5 -42.5q0 -18 -12 -28t-48 -10q-64 0 -103 40t-55 102
q-11 42 -25 69t-22 33.5t-13 6.5q-8 0 -8 -24v-142q0 -16 -0.5 -24t-3.5 -21t-9 -19t-18 -11t-29 -5h-70q-14 0 -23 6t-12.5 20t-4 24t-0.5 30v550q0 16 0.5 24t3.5 21t9 19t18 11t29 5zM233 575q-30 0 -38 -8t-8 -35q0 -6 0.5 -26t0.5 -31t-0.5 -28t-0.5 -22q0 -25 8 -32
t38 -7q55 0 55 89q0 100 -55 100z" />
    <glyph glyph-name="S" unicode="S" horiz-adv-x="396" 
d="M19 503q0 56 14.5 97.5t35 62.5t51 33.5t53.5 15.5t53 3q64 0 101.5 -11t37.5 -32v-77q0 -30 -38 -30h-8q-6 0 -35.5 5.5t-45.5 5.5q-43 0 -43 -40q0 -24 9.5 -39.5t38.5 -39.5q84 -69 113.5 -125.5t29.5 -123.5q0 -86 -27 -127q-37 -56 -107 -75q-42 -11 -96 -11
q-62 0 -104 13t-42 41v77q0 24 37 24q9 0 41 -7.5t64 -7.5q23 0 44.5 15.5t21.5 37.5q0 14 -2.5 23t-16.5 29t-43 48q-57 56 -79.5 80.5t-40 59.5t-17.5 75z" />
    <glyph glyph-name="T" unicode="T" horiz-adv-x="389" 
d="M280 537v-464q-1 -19 -2.5 -28.5t-7 -21.5t-18 -17.5t-32.5 -5.5h-50q-17 0 -29 5t-18 11t-9 19t-3.5 21t-0.5 24v457q0 19 -5 25t-21 6q-3 0 -12.5 -0.5t-16.5 -0.5q-45 0 -45 28v85q0 14 13.5 22t33.5 8h276q20 0 33.5 -8t13.5 -22v-85q0 -28 -45 -28q-3 0 -12 0.5
t-16 0.5q-18 0 -22.5 -5.5t-4.5 -25.5z" />
    <glyph glyph-name="U" unicode="U" horiz-adv-x="473" 
d="M457 631v-428q0 -43 -3 -70t-15 -56t-34.5 -45t-63 -26.5t-99.5 -10.5q-52 0 -90 6.5t-62.5 21t-39.5 31t-22.5 43.5t-9.5 51.5t-2 61.5l1 420q0 16 0.5 24t3.5 21t9 19t18 11t29 5h50q17 0 29 -5t18 -11t9 -19t3.5 -21t0.5 -24v-440q0 -15 1 -22t5.5 -16t16.5 -13t32 -4
q21 0 31.5 8.5t12 18t1.5 28.5v441q0 16 0.5 24t3.5 20.5t9 18.5t18 11t29 5h50q17 0 29 -5t18 -11t9 -18.5t3.5 -20.5t0.5 -24z" />
    <glyph glyph-name="V" unicode="V" horiz-adv-x="498" 
d="M288 384l15 128q18 149 29 174q20 24 49 25h39q36 0 52 -8.5t16 -36.5q0 -9 -3 -29t-12 -67l-20 -102l-32 -164.5l-43 -223.5q-16 -80 -70 -80h-125q-55 0 -69 80l-59 329.5l-36.5 197t-8.5 59.5q0 29 16.5 37.5t56.5 8.5h43q28 0 41.5 -11.5t22 -47t17.5 -117.5
q6 -50 11 -102l8 -85t6.5 -65l5.5 -50t5 -33t5.5 -20.5t6.5 -5.5q3 0 6.5 10.5t6.5 32t5.5 44l6.5 58.5t8 64z" />
    <glyph glyph-name="W" unicode="W" horiz-adv-x="711" 
d="M362 203q-6 0 -42 -133q-9 -33 -21.5 -49t-23.5 -18.5t-33 -2.5h-55q-21 0 -34 4.5t-21.5 17t-12 24t-8.5 34.5q-16 78 -58.5 330.5t-42.5 273.5q0 16 4.5 21t20.5 5h108q18 0 25 -10t10 -33l65 -433q0 -5 4 -5q3 0 5 5q1 7 16.5 123t15.5 126l-10 64l-12.5 79t-6.5 44
q-1 5 -1 14q0 26 24 26q8 0 32 -1t34 -1q4 0 42.5 1t43.5 1q23 0 23 -26q0 -2 -0.5 -6.5t-0.5 -7.5q0 -4 -5 -44t-8.5 -80t-3.5 -64l45 -248q0 -5 4 -5q3 0 5 5l43 436q2 40 33 40h117q12 0 15.5 -5.5t3.5 -18.5q0 -24 -36.5 -278.5t-50.5 -327.5q-4 -24 -7 -34t-9.5 -23
t-18.5 -18t-30 -5h-72q-23 0 -33 2.5t-20 18t-18 49.5q-32 133 -44 133z" />
    <glyph glyph-name="X" unicode="X" horiz-adv-x="512" 
d="M251 478q1 -4 5 -4q2 0 11.5 34.5l24 84.5t23.5 77l2 5q8 25 20.5 30t74.5 5h13q28 0 38.5 -1t18.5 -7.5t8 -21.5q0 -19 -57.5 -155.5t-57.5 -148.5q0 -11 63.5 -167.5t63.5 -178.5q0 -33 -78 -33q-12 0 -29 1t-21 1q-16 0 -25 1t-15.5 2t-10.5 7l-6 9t-6 16t-7 21
l-54 192q-2 4 -5 4t-5 -4l-45 -192q-13 -41 -25.5 -48.5t-61.5 -7.5h-30q-68 0 -68 31q0 15 56.5 174.5t56.5 171.5t-51.5 148.5t-51.5 155.5t15 25t48 6q9 0 35.5 -0.5t43.5 -0.5q11 0 18 -4.5t9.5 -9t7.5 -15.5q0 -1 1 -2t1 -2t1 -2t1 -2t1 -3q8 -28 20 -76l20.5 -81.5
t8.5 -34.5z" />
    <glyph glyph-name="Y" unicode="Y" horiz-adv-x="497" 
d="M270 0h-50q-17 0 -29 5t-18 11t-9 19t-3.5 21t-0.5 24v151q0 58 -70 221l-3 7q-20 44 -49.5 125t-29.5 100q0 26 29 26h114q21 0 31.5 -21t18.5 -59q4 -19 23 -85.5t19 -67.5q2 -11 10 -11q9 0 10 10q0 4 8 34.5l18 70t13 49.5q6 24 11 38.5t17 28t29 13.5h89q18 0 25 -1
t11.5 -6.5t4.5 -18.5q0 -19 -29.5 -101.5t-48.5 -123.5q-4 -9 -11 -26.5l-17.5 -44l-18.5 -47.5q-24 -60 -29 -85.5t-5 -90.5v-89q0 -19 -1 -29t-6 -23t-18.5 -18.5t-34.5 -5.5z" />
    <glyph glyph-name="Z" unicode="Z" horiz-adv-x="450" 
d="M224 178q-5 -13 -5 -18q0 -10 20 -10q31 0 83 1t59 1q55 0 55 -52v-71q0 -14 -7.5 -20.5t-15 -7.5t-23.5 -1h-311q-28 0 -45.5 13.5t-17.5 55.5v49q0 12 3.5 22.5t8 19t17 30t23.5 42.5l165 309q4 8 4 13q0 18 -29 18h-48q-35 -2 -76 -2q-33 0 -43 12.5t-10 33.5v24
q0 18 1 26.5t6 20.5t18.5 17.5t34.5 5.5h248q57 0 72.5 -16t15.5 -87q0 -12 -2.5 -21.5t-5 -15.5t-14.5 -28.5l-22 -41.5z" />
    <glyph glyph-name="bracketleft" unicode="[" horiz-adv-x="252" 
d="M173 543l-2 -331q0 -61 16 -61q30 0 37 -7.5t7 -33.5v-70q0 -22 -8.5 -31t-31.5 -9h-114q-60 0 -60 80v550q0 16 0.5 24t3.5 21t9 19t18 11t29 5h108q20 0 33.5 -8t13.5 -22v-85q0 -27 -29 -27q-20 0 -25 -4.5t-5 -20.5z" />
    <glyph glyph-name="backslash" unicode="\" horiz-adv-x="347" 
d="M342 18q0 -8 -6 -15.5t-17 -7.5h-80q-15 0 -23.5 2.5t-14.5 6t-11 17t-8.5 24.5t-11.5 39l-15 52q-36 117 -90 311.5t-60 231.5q-1 5 -1 13q0 14 12 18.5t48 4.5q26 0 37.5 -0.5t24 -5.5t16 -11t10.5 -23.5t10.5 -35.5t14.5 -54.5l23 -73.5q15 -46 44.5 -148.5
t45.5 -153.5q52 -162 52 -191z" />
    <glyph glyph-name="bracketright" unicode="]" horiz-adv-x="255" 
d="M81 212l-2 331q0 16 -5 20.5t-25 4.5q-29 0 -29 27v85q0 14 13.5 22t33.5 8h108q17 0 29 -5t18 -11t9 -19t3.5 -21t0.5 -24v-550q0 -80 -60 -80h-114q-23 0 -31.5 9t-8.5 31v70q0 26 7 33.5t37 7.5q16 0 16 61z" />
    <glyph glyph-name="asciicircum" unicode="^" horiz-adv-x="342" 
d="M129 577l-88 1q-21 0 -21 9q0 13 51 100q14 25 64 25h40q45 0 60.5 -4t26.5 -22l55 -87q5 -8 5 -12q0 -9 -28 -9h-78q-9 0 -25 31t-20 31t-19 -31.5t-23 -31.5z" />
    <glyph glyph-name="underscore" unicode="_" horiz-adv-x="614" 
d="M604 -160h-591q-10 0 -15.5 1t-14 4t-12.5 12t-4 23v60q0 14 4 23t12.5 12t14 4t15.5 1h591q11 0 16.5 -0.5t13 -4t10.5 -12.5t3 -23v-60q0 -14 -3 -23t-10.5 -12.5t-13 -4t-16.5 -0.5z" />
    <glyph glyph-name="grave" unicode="`" horiz-adv-x="251" 
d="M37 831q-17 17 -17 22q0 17 30 17q18 1 39 1q31 0 42.5 -4.5t28.5 -21.5l66 -72q15 -15 15 -27q0 -3 -6 -9q-6 -3 -64 -3q-43 0 -73 32z" />
    <glyph glyph-name="a" unicode="a" 
d="M405 630q28 -171 56 -310.5l38.5 -192t10.5 -77.5q0 -32 -20 -41t-68 -9h-53q-26 0 -35.5 37.5t-14.5 75t-21 37.5h-80q-16 0 -23 -37.5t-17.5 -75t-36.5 -37.5h-47q-45 0 -64 9t-19 41q0 21 5.5 53.5t15.5 80.5t32.5 170l48.5 276q13 80 68 80h154q54 0 70 -80zM220 331
q-1 -6 -1 -15q0 -11 6.5 -13.5t32.5 -2.5q25 0 32 2t7 13q0 9 -1 16q-3 23 -6.5 59.5l-6 61t-6 49t-8.5 37t-11 12.5q-4 0 -8 -6.5t-7 -20t-5.5 -28t-5 -37.5t-4 -40l-4 -44t-4.5 -43z" />
    <glyph glyph-name="b" unicode="b" horiz-adv-x="497" 
d="M386 385q-4 -1 -4 -5t4 -5q50 -17 74 -65.5t24 -107.5t-27 -110q-23 -43 -49.5 -64t-46.5 -24.5t-60 -3.5h-223q-17 0 -29 5t-18 11t-9 19t-3.5 21t-0.5 24v550q0 16 0.5 24t3.5 21t9 19t18 11t29 5h215q90 0 131 -50.5t41 -127.5q0 -105 -79 -147zM238 575
q-35 0 -42.5 -13t-7.5 -55q0 -23 1 -32.5t5.5 -19.5t14.5 -12.5t29 -2.5q50 0 50 67q0 68 -50 68zM243 313q-20 0 -31.5 -4.5t-16.5 -18t-6 -25.5t-1 -40q0 -23 0.5 -33t3 -24t8.5 -19.5t16.5 -9.5t26.5 -4q34 0 44.5 24t10.5 66q0 18 -0.5 27t-3 23t-8 20.5t-16.5 12
t-27 5.5z" />
    <glyph glyph-name="c" unicode="c" horiz-adv-x="369" 
d="M10 365q0 69 12.5 124.5t35.5 93t52 64t64.5 41t70 21t72.5 6.5t38 -32v-88q0 -5 -0.5 -8t-4 -8t-12 -7t-21.5 -2q-11 0 -19.5 1t-12.5 1q-27 0 -46.5 -19.5t-28.5 -43t-14 -58.5t-5.5 -51.5t-0.5 -36.5q0 -26 2 -51t9.5 -69.5t28 -72t51.5 -27.5q5 0 14 1t22 1
q38 0 38 -46v-67q0 -37 -38 -37q-46 0 -86.5 9t-82.5 34t-71.5 65t-48 107t-18.5 155z" />
    <glyph glyph-name="d" unicode="d" horiz-adv-x="492" 
d="M78 710h150q65 0 110.5 -17t72.5 -45t42 -76t20 -97t5 -120q0 -49 -1.5 -84.5t-7.5 -75t-17 -66.5t-29.5 -53.5t-44.5 -41.5t-64 -24.5t-86 -9.5h-150q-17 0 -29 5t-18 11t-9 19t-3.5 21t-0.5 24v550q0 16 0.5 24t3.5 21t9 19t18 11t29 5zM208 575q-13 0 -17 -7t-4 -24
q0 -56 0.5 -175t0.5 -179q0 -50 20 -50q53 0 66.5 44.5t13.5 175.5q0 48 -1 76.5t-5.5 58.5t-13 45.5t-23.5 25t-37 9.5z" />
    <glyph glyph-name="e" unicode="e" horiz-adv-x="399" 
d="M188 253v-70q1 -16 13.5 -24.5t28.5 -8.5q33 0 62 1t35 1q31 0 43 -9.5t12 -32.5v-70q0 -22 -9 -31t-31 -9h-264q-60 0 -60 80v550q0 16 0.5 24t3.5 21t9 19t18 11t29 5h258q20 0 33.5 -8t13.5 -22v-85q0 -16 -11 -20.5t-34 -4.5q-21 0 -52.5 1t-42.5 1q-20 0 -31.5 -3
t-16.5 -11.5t-6 -15.5t-1 -22q0 -30 0.5 -41.5t5.5 -23t15 -14.5t29 -3q36 0 62 1t33 1q37 0 37 -46v-64q0 -14 -7 -21.5t-15.5 -9t-23.5 -1.5q-29 0 -63 1t-41 1q-16 0 -23 -5.5t-8 -13.5t-1 -28z" />
    <glyph glyph-name="f" unicode="f" horiz-adv-x="379" 
d="M250 572q-44 0 -53 -14t-9 -63q0 -40 6.5 -52t37.5 -12q24 0 44 1t25 1q41 0 50 -9.5t9 -44.5v-9q0 -56 -9.5 -69t-58.5 -13q-11 0 -37 1t-33 1q-24 0 -29 -9t-5 -49v-152q0 -16 -0.5 -24t-3.5 -21t-9 -19t-18 -11t-29 -5h-50q-17 0 -29 5t-18 11t-9 19t-3.5 21t-0.5 24
v550q0 16 1 26t6 24.5t18.5 22t34.5 7.5h248q20 0 33.5 -8t13.5 -22v-85q0 -15 -8.5 -20t-35.5 -5q-10 0 -31.5 1t-47.5 1z" />
    <glyph glyph-name="g" unicode="g" horiz-adv-x="511" 
d="M336 185v89q0 21 -9.5 26.5t-27.5 5.5q-23 0 -30 10t-7 33v10q0 62 6.5 74t41.5 12h143q15 0 24.5 -3t13 -10t4.5 -12t1 -15v-312q0 -28 -11.5 -47.5t-25.5 -29.5t-39 -15t-39.5 -5.5t-38.5 -0.5q-51 0 -96 9.5t-89.5 35t-76 65.5t-51 106t-19.5 151q0 82 20.5 146.5
t52 102.5t74 62t81.5 33t79 9q79 0 112.5 -9.5t33.5 -32.5v-79q0 -24 -29 -24q-14 0 -48.5 6.5t-58.5 6.5q-44 0 -75 -27t-44 -68t-18 -70.5t-5 -52.5q0 -37 4.5 -71t15.5 -71.5t36 -60t61 -22.5q34 0 34 45z" />
    <glyph glyph-name="h" unicode="h" horiz-adv-x="486" 
d="M188 630v-125q0 -41 7 -48t48 -7t48 6.5t7 45.5v128q0 16 0.5 24t3.5 21t9 19t18 11t29 5h50q17 0 29 -5t18 -11t9 -19t3.5 -21t0.5 -24v-550q0 -16 -0.5 -24t-3.5 -21t-9 -19t-18 -11t-29 -5h-50q-17 0 -29 5t-18 11t-9 19t-3.5 21t-0.5 24v150q0 49 -8.5 59.5
t-46.5 10.5h-11q-27 0 -35.5 -7.5t-8.5 -43.5v-19v-150q0 -16 -0.5 -24t-3.5 -21t-9 -19t-18 -11t-29 -5h-50q-17 0 -29 5t-18 11t-9 19t-3.5 21t-0.5 24v550q0 16 0.5 24t3.5 21t9 19t18 11t29 5h50q17 0 29 -5t18 -11t9 -19t3.5 -21t0.5 -24z" />
    <glyph glyph-name="i" unicode="i" horiz-adv-x="206" 
d="M188 630v-550q0 -16 -0.5 -24t-3.5 -21t-9 -19t-18 -11t-29 -5h-50q-17 0 -29 5t-18 11t-9 19t-3.5 21t-0.5 24v550q0 16 0.5 24t3.5 21t9 19t18 11t29 5h50q17 0 29 -5t18 -11t9 -19t3.5 -21t0.5 -24z" />
    <glyph glyph-name="j" unicode="j" horiz-adv-x="301" 
d="M122 -5q-63 0 -88 10t-25 46v65q0 29 31 29q6 0 17 -0.5t15 -0.5q26 0 34 12t8 44q0 6 -0.5 26.5t-0.5 34.5v369q0 16 0.5 24t3.5 21t9 19t18 11t29 5h50q17 0 29 -5t18 -11t9 -19t3.5 -21t0.5 -24v-474q0 -90 -41 -125.5t-120 -35.5z" />
    <glyph glyph-name="k" unicode="k" horiz-adv-x="495" 
d="M342 374q134 -295 137 -344q0 -30 -52 -30h-52q-45 0 -58.5 13t-31.5 66q-11 32 -23.5 72.5l-20 63t-16 44.5t-16 31.5t-15.5 9.5t-8 -22q0 -6 1 -22.5t1 -25.5v-150q0 -16 -0.5 -24t-3.5 -21t-9 -19t-18 -11t-29 -5h-50q-17 0 -29 5t-18 11t-9 19t-3.5 21t-0.5 24v550
q0 16 0.5 24t3.5 21t9 19t18 11t29 5h50q17 0 29 -5t18 -11t9 -19t3.5 -21t0.5 -24q0 -133 0.5 -155t4.5 -22q13 0 27 28t27 70t14 44q6 14 14 35.5t12 30t10.5 21t12.5 17t15.5 8t22.5 3.5h58q22 0 32.5 -1t20 -7.5t9.5 -19.5q0 -19 -17 -53q-13 -27 -44 -85l-53.5 -100
t-22.5 -45q0 -1 11 -25z" />
    <glyph glyph-name="l" unicode="l" horiz-adv-x="369" 
d="M219 143q31 0 61 1t37 1q29 0 38 -13t9 -39v-13q0 -16 -0.5 -24t-3.5 -21t-9 -19t-18 -11t-29 -5h-226q-17 0 -29 5t-18 11t-9 19t-3.5 21t-0.5 24v550q0 16 0.5 24t3.5 21t9 19t18 11t29 5h50q17 0 29 -5t18 -11t9 -19t3.5 -21t0.5 -24v-431q0 -17 1 -26t8.5 -19.5
t21.5 -10.5z" />
    <glyph glyph-name="m" unicode="m" horiz-adv-x="616" 
d="M328 477l75 177q15 36 32.5 46t48.5 10h54q17 0 29 -5t18 -11t9 -19t3.5 -21t0.5 -24v-550q0 -16 -0.5 -24t-3.5 -21t-9 -19t-18 -11t-29 -5h-50q-17 0 -29 5t-18 11t-9 19t-3.5 21t-0.5 24v275q0 10 -5 10q-4 0 -9 -10l-26 -54l-20.5 -42.5l-14.5 -31t-11.5 -23t-10 -14
t-11 -8.5t-12.5 -2t-12.5 2t-11 8.5t-10 14t-12 23l-14.5 31l-20 43l-26 53.5q-5 10 -9 10q-5 0 -5 -10v-275q0 -16 -0.5 -24t-3.5 -21t-9 -19t-18 -11t-29 -5h-50q-17 0 -29 5t-18 11t-9 19t-3.5 21t-0.5 24v550q0 16 0.5 24t3.5 21t9 19t18 11t29 5h53q31 0 49 -10.5
t33 -45.5l75 -177q12 -28 20 -28t20 28z" />
    <glyph glyph-name="n" unicode="n" 
d="M319 400q4 -10 9 -10t5 10v230q0 16 0.5 24t3.5 21t9 19t18 11t29 5h50q17 0 29 -5t18 -11t9 -19t3.5 -21t0.5 -24v-550q0 -16 -0.5 -24t-3.5 -21t-9 -19t-18 -11t-29 -5q-62 0 -80.5 9.5t-30.5 36.5l-133 289q-5 10 -8 10q-4 0 -4 -10l1 -255q0 -16 -0.5 -24t-3.5 -21
t-9 -19t-18 -11t-29 -5h-50q-17 0 -29 5t-18 11t-9 19t-3.5 21t-0.5 24v550q0 16 0.5 24t3.5 21t9 19t18 11t29 5h53q26 0 37 -6t22 -29z" />
    <glyph glyph-name="o" unicode="o" horiz-adv-x="471" 
d="M15 355q0 14 -0.5 41t-0.5 40q0 56 3 91.5t16 75t36.5 61.5t66 36.5t104.5 14.5q59 0 99.5 -14.5t63 -36t34.5 -60t15 -73.5t3 -91q0 -31 1.5 -88.5t1.5 -83.5q0 -53 -4 -90t-17 -74t-36.5 -59t-64 -36t-96.5 -14q-62 0 -104.5 14.5t-66 36.5t-36.5 61t-16 74.5t-3 91.5
q0 13 0.5 40.5t0.5 41.5zM235 575q-23 0 -35 -9.5t-13.5 -19t-1.5 -26.5v-315q0 -16 1 -24.5t5 -21t15 -18.5t29 -6t29 6t15 18.5t5 21t1 24.5v315q0 17 -1.5 26.5t-13.5 19t-35 9.5z" />
    <glyph glyph-name="p" unicode="p" horiz-adv-x="470" 
d="M213 244q-16 0 -20.5 -4t-4.5 -13v-147q0 -16 -0.5 -24t-3.5 -21t-9 -19t-18 -11t-29 -5h-50q-17 0 -29 5t-18 11t-9 19t-3.5 21t-0.5 24v550q0 16 0.5 24t3.5 21t9 19t18 11t29 5h217q80 0 124.5 -61t44.5 -167q0 -41 -9.5 -89.5t-21.5 -72.5q-37 -78 -183 -78zM233 575
q-29 0 -37.5 -10.5t-8.5 -38.5q0 -6 0.5 -23t0.5 -28t-0.5 -28t-0.5 -22q0 -25 8 -32t38 -7q19 0 31 7t16.5 21.5t6 27t1.5 33.5q0 100 -55 100z" />
    <glyph glyph-name="q" unicode="q" horiz-adv-x="489" 
d="M239 135q24 0 35.5 8.5t13 18t1.5 28.5v335q0 13 -1 19t-5 14.5t-15 12.5t-29 4t-29 -4t-15 -12.5t-5 -14.5t-1 -19v-335q0 -19 1.5 -28.5t13 -18t35.5 -8.5zM353 32q-5 0 -36 -18.5t-73 -18.5q-60 0 -103.5 13.5t-66.5 32t-36 47t-16 50t-3 48.5v261q0 7 -0.5 23.5
t-0.5 24.5q0 37 3 63t16 58t36.5 52t67 33.5t104.5 13.5q58 0 99 -13.5t63 -33.5t34 -53.5t15 -61.5t3 -69q0 -30 0.5 -92t0.5 -96q0 -110 -27 -137q-5 -5 -5 -12q0 -12 12 -12q3 0 9.5 0.5t9.5 0.5q20 0 20 -20q0 -12 -0.5 -28.5t-0.5 -24.5q0 -6 0.5 -20.5t0.5 -22.5
q0 -25 -27 -25q-28 0 -47.5 6t-26.5 12.5l-13 12.5t-12 6z" />
    <glyph glyph-name="r" unicode="r" horiz-adv-x="485" 
d="M78 710h195q191 0 191 -225q0 -44 -2.5 -66t-15.5 -49.5t-40 -50.5q-10 -9 -23.5 -14t-18 -11t-4.5 -23q0 -35 11.5 -63t34.5 -28q8 0 15 1t11.5 2.5t5.5 1.5q22 0 29.5 -17.5t7.5 -55.5q0 -10 -0.5 -36.5t-0.5 -42.5q0 -18 -12 -28t-48 -10q-64 0 -103 40t-55 102
q-11 42 -25 69t-22 33.5t-13 6.5q-8 0 -8 -24v-142q0 -16 -0.5 -24t-3.5 -21t-9 -19t-18 -11t-29 -5h-70q-14 0 -23 6t-12.5 20t-4 24t-0.5 30v550q0 16 0.5 24t3.5 21t9 19t18 11t29 5zM233 575q-30 0 -38 -8t-8 -35q0 -6 0.5 -26t0.5 -31t-0.5 -28t-0.5 -22q0 -25 8 -32
t38 -7q55 0 55 89q0 100 -55 100z" />
    <glyph glyph-name="s" unicode="s" horiz-adv-x="396" 
d="M19 503q0 56 14.5 97.5t35 62.5t51 33.5t53.5 15.5t53 3q64 0 101.5 -11t37.5 -32v-77q0 -30 -38 -30h-8q-6 0 -35.5 5.5t-45.5 5.5q-43 0 -43 -40q0 -24 9.5 -39.5t38.5 -39.5q84 -69 113.5 -125.5t29.5 -123.5q0 -86 -27 -127q-37 -56 -107 -75q-42 -11 -96 -11
q-62 0 -104 13t-42 41v77q0 24 37 24q9 0 41 -7.5t64 -7.5q23 0 44.5 15.5t21.5 37.5q0 14 -2.5 23t-16.5 29t-43 48q-57 56 -79.5 80.5t-40 59.5t-17.5 75z" />
    <glyph glyph-name="t" unicode="t" horiz-adv-x="389" 
d="M280 537v-464q-1 -19 -2.5 -28.5t-7 -21.5t-18 -17.5t-32.5 -5.5h-50q-17 0 -29 5t-18 11t-9 19t-3.5 21t-0.5 24v457q0 19 -5 25t-21 6q-3 0 -12.5 -0.5t-16.5 -0.5q-45 0 -45 28v85q0 14 13.5 22t33.5 8h276q20 0 33.5 -8t13.5 -22v-85q0 -28 -45 -28q-3 0 -12 0.5
t-16 0.5q-18 0 -22.5 -5.5t-4.5 -25.5z" />
    <glyph glyph-name="u" unicode="u" horiz-adv-x="473" 
d="M457 631v-428q0 -43 -3 -70t-15 -56t-34.5 -45t-63 -26.5t-99.5 -10.5q-52 0 -90 6.5t-62.5 21t-39.5 31t-22.5 43.5t-9.5 51.5t-2 61.5l1 420q0 16 0.5 24t3.5 21t9 19t18 11t29 5h50q17 0 29 -5t18 -11t9 -19t3.5 -21t0.5 -24v-440q0 -15 1 -22t5.5 -16t16.5 -13t32 -4
q21 0 31.5 8.5t12 18t1.5 28.5v441q0 16 0.5 24t3.5 20.5t9 18.5t18 11t29 5h50q17 0 29 -5t18 -11t9 -18.5t3.5 -20.5t0.5 -24z" />
    <glyph glyph-name="v" unicode="v" horiz-adv-x="498" 
d="M288 384l15 128q18 149 29 174q20 24 49 25h39q36 0 52 -8.5t16 -36.5q0 -9 -3 -29t-12 -67l-20 -102l-32 -164.5l-43 -223.5q-16 -80 -70 -80h-125q-55 0 -69 80l-59 329.5l-36.5 197t-8.5 59.5q0 29 16.5 37.5t56.5 8.5h43q28 0 41.5 -11.5t22 -47t17.5 -117.5
q6 -50 11 -102l8 -85t6.5 -65l5.5 -50t5 -33t5.5 -20.5t6.5 -5.5q3 0 6.5 10.5t6.5 32t5.5 44l6.5 58.5t8 64z" />
    <glyph glyph-name="w" unicode="w" horiz-adv-x="711" 
d="M362 203q-6 0 -42 -133q-9 -33 -21.5 -49t-23.5 -18.5t-33 -2.5h-55q-21 0 -34 4.5t-21.5 17t-12 24t-8.5 34.5q-16 78 -58.5 330.5t-42.5 273.5q0 16 4.5 21t20.5 5h108q18 0 25 -10t10 -33l65 -433q0 -5 4 -5q3 0 5 5q1 7 16.5 123t15.5 126l-10 64l-12.5 79t-6.5 44
q-1 5 -1 14q0 26 24 26q8 0 32 -1t34 -1q4 0 42.5 1t43.5 1q23 0 23 -26q0 -2 -0.5 -6.5t-0.5 -7.5q0 -4 -5 -44t-8.5 -80t-3.5 -64l45 -248q0 -5 4 -5q3 0 5 5l43 436q2 40 33 40h117q12 0 15.5 -5.5t3.5 -18.5q0 -24 -36.5 -278.5t-50.5 -327.5q-4 -24 -7 -34t-9.5 -23
t-18.5 -18t-30 -5h-72q-23 0 -33 2.5t-20 18t-18 49.5q-32 133 -44 133z" />
    <glyph glyph-name="x" unicode="x" horiz-adv-x="512" 
d="M251 478q1 -4 5 -4q2 0 11.5 34.5l24 84.5t23.5 77l2 5q8 25 20.5 30t74.5 5h13q28 0 38.5 -1t18.5 -7.5t8 -21.5q0 -19 -57.5 -155.5t-57.5 -148.5q0 -11 63.5 -167.5t63.5 -178.5q0 -33 -78 -33q-12 0 -29 1t-21 1q-16 0 -25 1t-15.5 2t-10.5 7l-6 9t-6 16t-7 21
l-54 192q-2 4 -5 4t-5 -4l-45 -192q-13 -41 -25.5 -48.5t-61.5 -7.5h-30q-68 0 -68 31q0 15 56.5 174.5t56.5 171.5t-51.5 148.5t-51.5 155.5t15 25t48 6q9 0 35.5 -0.5t43.5 -0.5q11 0 18 -4.5t9.5 -9t7.5 -15.5q0 -1 1 -2t1 -2t1 -2t1 -2t1 -3q8 -28 20 -76l20.5 -81.5
t8.5 -34.5z" />
    <glyph glyph-name="y" unicode="y" horiz-adv-x="497" 
d="M270 0h-50q-17 0 -29 5t-18 11t-9 19t-3.5 21t-0.5 24v151q0 58 -70 221l-3 7q-20 44 -49.5 125t-29.5 100q0 26 29 26h114q21 0 31.5 -21t18.5 -59q4 -19 23 -85.5t19 -67.5q2 -11 10 -11q9 0 10 10q0 4 8 34.5l18 70t13 49.5q6 24 11 38.5t17 28t29 13.5h89q18 0 25 -1
t11.5 -6.5t4.5 -18.5q0 -19 -29.5 -101.5t-48.5 -123.5q-4 -9 -11 -26.5l-17.5 -44l-18.5 -47.5q-24 -60 -29 -85.5t-5 -90.5v-89q0 -19 -1 -29t-6 -23t-18.5 -18.5t-34.5 -5.5z" />
    <glyph glyph-name="z" unicode="z" horiz-adv-x="452" 
d="M224 178q-5 -13 -5 -18q0 -10 20 -10q31 0 83 1t59 1q55 0 55 -52v-71q0 -14 -7.5 -20.5t-15 -7.5t-23.5 -1h-311q-28 0 -45.5 13.5t-17.5 55.5v49q0 12 3.5 22.5t8 19t17 30t23.5 42.5l165 309q4 8 4 13q0 18 -29 18h-48q-35 -2 -76 -2q-33 0 -43 12.5t-10 33.5v24
q0 18 1 26.5t6 20.5t18.5 17.5t34.5 5.5h248q57 0 72.5 -16t15.5 -87q0 -12 -2.5 -21.5t-5 -15.5t-14.5 -28.5l-22 -41.5z" />
    <glyph glyph-name="braceleft" unicode="{" horiz-adv-x="323" 
d="M60 425h10q9 0 14.5 3t5.5 6l1 3q1 84 16 140t43.5 82.5t58.5 36t73 9.5q22 0 22 -34v-50q0 -12 -2.5 -21t-5.5 -13t-6 -6t-6 -3h-2q-36 0 -47 -19.5t-11 -62.5v-41q0 -41 -30 -52q-26 -8 -38 -20q-11 -12 -11 -42q0 -23 9 -35q4 -7 37 -20t33 -44v-15q0 -26 1 -38.5
t6.5 -29.5t19 -24.5t36.5 -7.5q17 0 17 -35v-65q0 -32 -25 -32q-84 0 -137 61.5t-53 201.5v5q-1 9 -4 10.5t-15 1.5h-29q-15 0 -24 11t-10.5 19t-1.5 13v60q0 47 55 47z" />
    <glyph glyph-name="bar" unicode="|" horiz-adv-x="180" 
d="M155 710v-700q0 -16 -0.5 -24t-3.5 -21t-9 -19t-18 -11t-29 -5h-10q-17 0 -29 5t-18 11t-9 19t-3.5 21t-0.5 24v700q0 16 0.5 24t3.5 21t9 19t18 11t29 5h10q17 0 29 -5t18 -11t9 -19t3.5 -21t0.5 -24z" />
    <glyph glyph-name="braceright" unicode="}" horiz-adv-x="323" 
d="M254 425h10q55 0 55 -47v-60q0 -5 -1.5 -13t-10.5 -19t-24 -11h-29q-13 0 -15.5 -1.5t-3.5 -10.5v-5q0 -140 -53 -201.5t-137 -61.5q-25 0 -25 32v65q0 35 17 35q23 0 36.5 7.5t19 24.5t6.5 29.5t1 38.5v15q0 31 33 44t37 20q9 12 9 38q0 27 -11 39q-12 12 -38 20
q-30 11 -30 52v41q0 43 -11 62.5t-47 19.5q-1 0 -2.5 0.5t-5 2.5t-6.5 6t-5.5 13t-2.5 21v50q0 34 22 34q43 0 73 -9.5t58.5 -36t43.5 -82.5t16 -140q0 -12 21 -12z" />
    <glyph glyph-name="asciitilde" unicode="~" horiz-adv-x="426" 
d="M414 534q0 -55 -37.5 -114.5t-86.5 -59.5q-39 0 -66 13.5t-38 30t-26 30t-33 13.5q-26 0 -39 -18.5t-19 -37.5t-13 -20q-3 0 -10.5 -1t-11.5 -1q-18 0 -19 12q0 33 14 73t42 71.5t61 31.5q39 0 65.5 -14t37.5 -30.5t27.5 -30t37.5 -13.5q27 0 39.5 18t18.5 38t14 22h21
q20 0 21 -13z" />
    <glyph glyph-name="exclamdown" unicode="&#xa1;" horiz-adv-x="214" 
d="M67 510h81q11 0 16.5 -0.5t13 -4t10.5 -12.5t3 -23q0 -99 -6 -115q-7 -22 -40 -25h-78q-46 0 -46 40v100q0 14 4 23t12.5 12t14 4t15.5 1zM156 -200h-100q-19 0 -28 10t-10.5 20t-1.5 30q0 59 10.5 164t13.5 155q0 9 1 24q3 61 11 71q10 9 50 8h30q25 0 31 -12t8 -61
q0 -19 1 -30q3 -49 13.5 -154.5t10.5 -164.5q0 -20 -1.5 -30t-10.5 -20t-28 -10z" />
    <glyph glyph-name="cent" unicode="&#xa2;" horiz-adv-x="372" 
d="M10 365q0 226 144 279q1 0 2.5 1t2.5 1.5t2.5 2t2 4t0.5 5.5v32q0 20 23 20h45q17 0 17 -18v-21q0 -3 1 -4.5t3.5 -2.5t3.5 -1q20 2 60 2q38 0 38 -32v-88q0 -5 -0.5 -8t-4 -8t-12 -7t-21.5 -2q-11 0 -19.5 1t-12.5 1q-95 0 -95 -159q0 -160 91 -160q5 0 14 1t22 1
q38 0 38 -46v-67q0 -37 -38 -37q-39 0 -58 1q-11 0 -11 -10q0 -5 0.5 -14.5t0.5 -11.5q0 -20 -20 -20h-45q-14 0 -17 4.5t-3 16.5v35q0 13 -7 16q-147 51 -147 293z" />
    <glyph glyph-name="sterling" unicode="&#xa3;" horiz-adv-x="476" 
d="M316 526l1 23q0 13 -7 24q-13 17 -51 17q-33 0 -46.5 -16t-13.5 -48q0 -72 9 -95.5t46 -23.5q8 0 53 1.5t76 1.5q20 0 24.5 -9t4.5 -40v-11q0 -52 -27 -52q-14 0 -24 1t-22 1q-48 0 -61.5 -2.5t-13.5 -15.5q0 -102 6 -124.5t38 -22.5q22 0 30 10t6.5 22.5t3.5 22.5t20 10
h62q32 0 32 -32q0 -18 -1.5 -34.5t-10 -44t-22.5 -46.5t-43 -33.5t-69 -14.5q-28 0 -70.5 10t-54.5 10q-30 0 -57.5 -10t-53.5 -10q-24 0 -39 5t-20.5 14.5t-7 15.5t-1.5 15v53q0 13 1 19t8 12t21 6q50 0 50 24v121q0 21 -25 21q-5 0 -14.5 -1t-12.5 -1q-19 0 -23.5 10
t-4.5 35v5q0 19 1 29t7 20t19 10q3 0 11 -0.5t13 -0.5q22 0 22 12q0 10 -18 49.5t-18 71.5q0 83 53 128q56 47 156 47q82 0 123 -27q60 -40 60 -140q0 -34 -6.5 -41t-32.5 -7h-59q-9 0 -13.5 1t-9 7t-4.5 18z" />
    <glyph glyph-name="yen" unicode="&#xa5;" horiz-adv-x="497" 
d="M384 270h-46q-9 0 -9 -33q0 -6 0.5 -23t0.5 -52v-86q0 -19 -1 -29t-6 -23t-18.5 -18.5t-34.5 -5.5h-50q-22 0 -34.5 5t-18 17.5t-6.5 22.5t-1 31v180q0 14 -9 14h-39q-10 0 -15.5 1t-14 4t-12.5 12t-4 23v30q0 23 10 29.5t38 6.5h5q9 0 9 7l-29.5 68.5l-33 76.5l-28 67.5
t-22 58t-7.5 30.5q0 26 29 26h114q21 0 31.5 -21t18.5 -59q4 -19 23 -85.5t19 -67.5q2 -11 9 -11q10 0 11 10q0 4 8 34.5l18 70t13 49.5q6 24 11 38.5t17 28t29 13.5h89q18 0 25 -1t11.5 -6.5t4.5 -18.5q0 -31 -108 -301q0 -7 9 -7h12q25 0 25 -36v-30q0 -14 -3 -23
t-10.5 -12.5t-13 -4t-16.5 -0.5z" />
    <glyph glyph-name="dieresis" unicode="&#xa8;" horiz-adv-x="452" 
d="M138 729h-66q-13 0 -20.5 1t-16.5 9t-9 23v27q0 32 46 32h66q15 0 22 -1t14 -8.5t7 -22.5v-27q0 -15 -7 -23t-14 -9t-22 -1zM383 729h-66q-13 0 -20.5 1t-16.5 9t-9 23v26q0 15 9 23t16.5 9t20.5 1h66q15 0 22 -1t14 -9t7 -23v-26q0 -15 -7 -23t-14 -9t-22 -1z" />
    <glyph glyph-name="guillemotleft" unicode="&#xab;" horiz-adv-x="348" 
d="M157 332v-88q0 -21 -9 -21q-7 0 -48 21.5t-53 29.5q-29 19 -29 85v17q0 70 29 89l86 55q8 5 12 5q13 0 13 -49q0 -9 -0.5 -28t-0.5 -29q0 -9 -31.5 -25t-31.5 -20t31.5 -19t31.5 -23zM327 332v-88q0 -21 -9 -21q-7 0 -48 21.5t-53 29.5q-29 19 -29 85v17q0 70 29 89
l86 55q8 5 12 5q13 0 13 -49q0 -9 -0.5 -28t-0.5 -29q0 -9 -31.5 -25t-31.5 -20t31.5 -19t31.5 -23z" />
    <glyph glyph-name="macron" unicode="&#xaf;" horiz-adv-x="331" 
d="M268 731h-201q-10 0 -15.5 1t-14 4t-12.5 12t-4 23v10q0 14 4 23t12.5 12t14 4t15.5 1h201q11 0 16.5 -0.5t13 -4t10.5 -12.5t3 -23v-10q0 -14 -3 -23t-10.5 -12.5t-13 -4t-16.5 -0.5z" />
    <glyph glyph-name="degree" unicode="&#xb0;" horiz-adv-x="284" 
d="M138 427q-62 0 -96.5 38.5t-34.5 91.5q0 56 35.5 97t98.5 41q61 0 94 -37.5t33 -90.5q0 -56 -35 -98t-95 -42zM139 611q-18 0 -28.5 -14.5t-10.5 -33.5t10.5 -33t28.5 -14q19 0 30 14t11 33t-11 33.5t-30 14.5z" />
    <glyph glyph-name="acute" unicode="&#xb4;" horiz-adv-x="251" 
d="M224 831l-61 -65q-30 -32 -75 -32q-56 0 -63 4q-5 2 -5 8q0 12 15 27l66 72q18 18 29.5 23t41.5 5q21 0 39 -1q30 0 30 -19q0 -5 -17 -22z" />
    <glyph glyph-name="periodcentered" unicode="&#xb7;" horiz-adv-x="202" 
d="M143 280h-81q-10 0 -15.5 1t-14 4t-12.5 12t-4 23v100q0 14 4 23t12.5 12t14 4t15.5 1h81q11 0 16.5 -0.5t13 -4t10.5 -12.5t3 -23v-100q0 -14 -3 -23t-10.5 -12.5t-13 -4t-16.5 -0.5z" />
    <glyph glyph-name="cedilla" unicode="&#xb8;" horiz-adv-x="156" 
d="M145 -60q0 -49 -11 -87q-10 -32 -25.5 -42.5t-40.5 -10.5h-33q-23 0 -23 33q0 20 9 25t21.5 7t16.5 14q6 16 -5 28t-11 33q0 40 31 40h28q11 0 16.5 -0.5t13 -4t10.5 -12.5t3 -23z" />
    <glyph glyph-name="guillemotright" unicode="&#xbb;" horiz-adv-x="348" 
d="M21 244v88q0 8 31.5 23t31.5 19t-31.5 20t-31.5 25t-0.5 28t-0.5 30t1 23.5t4 18.5t8 6q4 0 12 -5l86 -55q14 -9 20.5 -27t7 -32t-1 -36.5t-1.5 -25.5q0 -54 -25 -70q-12 -8 -53 -29.5t-48 -21.5q-9 0 -9 21zM191 244v88q0 8 31.5 23t31.5 19t-31.5 20t-31.5 25t-0.5 28
t-0.5 30t1 23.5t4 18.5t8 6q4 0 12 -5l86 -55q14 -9 20.5 -27t7 -32t-1 -36.5t-1.5 -25.5q0 -54 -25 -70q-12 -8 -53 -29.5t-48 -21.5q-9 0 -9 21z" />
    <glyph glyph-name="questiondown" unicode="&#xbf;" horiz-adv-x="306" 
d="M295 49q0 -50 -112 -50q-53 0 -88.5 14.5t-50.5 38.5t-20.5 44t-5.5 41q0 33 7.5 62t15 44t22 38.5t19.5 32.5q14 26 24.5 61.5t14 56t3.5 25.5q0 16 6.5 22.5t26.5 6.5h50q28 0 34.5 -9.5t6.5 -33.5q0 -66 -7.5 -103.5t-33.5 -89.5q-11 -21 -11 -65q0 -23 15.5 -37
t26.5 -14q7 0 16.5 2.5t14.5 2.5q16 0 21.5 -10.5t5.5 -32.5q0 -7 -0.5 -22.5t-0.5 -24.5zM143 714h81q10 0 15.5 -1t14 -4t12.5 -12t4 -23v-100q0 -40 -46 -40h-51q-51 0 -62 15.5t-11 84.5q0 57 7 68.5t36 11.5z" />
    <glyph glyph-name="Agrave" unicode="&#xc0;" 
d="M113 831q-17 17 -17 22q0 17 30 17q18 1 39 1q31 0 42.5 -4.5t28.5 -21.5l66 -72q15 -15 15 -27q0 -3 -6 -9q-6 -3 -64 -3q-43 0 -73 32zM405 630q28 -171 56 -310.5l38.5 -192t10.5 -77.5q0 -32 -20 -41t-68 -9h-53q-26 0 -35.5 37.5t-14.5 75t-21 37.5h-80
q-16 0 -23 -37.5t-17.5 -75t-36.5 -37.5h-47q-45 0 -64 9t-19 41q0 21 5.5 53.5t15.5 80.5t32.5 170l48.5 276q13 80 68 80h154q54 0 70 -80zM220 331q-1 -6 -1 -15q0 -11 6.5 -13.5t32.5 -2.5q25 0 32 2t7 13q0 9 -1 16q-3 23 -6.5 59.5l-6 61t-6 49t-8.5 37t-11 12.5
q-4 0 -8 -6.5t-7 -20t-5.5 -28t-5 -37.5t-4 -40l-4 -44t-4.5 -43z" />
    <glyph glyph-name="Aacute" unicode="&#xc1;" 
d="M414 831l-61 -65q-30 -32 -75 -32q-56 0 -63 4q-5 2 -5 8q0 12 15 27l66 72q18 18 29.5 23t41.5 5q21 0 39 -1q30 0 30 -19q0 -5 -17 -22zM405 630q28 -171 56 -310.5l38.5 -192t10.5 -77.5q0 -32 -20 -41t-68 -9h-53q-26 0 -35.5 37.5t-14.5 75t-21 37.5h-80
q-16 0 -23 -37.5t-17.5 -75t-36.5 -37.5h-47q-45 0 -64 9t-19 41q0 21 5.5 53.5t15.5 80.5t32.5 170l48.5 276q13 80 68 80h154q54 0 70 -80zM220 331q-1 -6 -1 -15q0 -11 6.5 -13.5t32.5 -2.5q25 0 32 2t7 13q0 9 -1 16q-3 23 -6.5 59.5l-6 61t-6 49t-8.5 37t-11 12.5
q-4 0 -8 -6.5t-7 -20t-5.5 -28t-5 -37.5t-4 -40l-4 -44t-4.5 -43z" />
    <glyph glyph-name="Acircumflex" unicode="&#xc2;" 
d="M218 737l-88 1q-21 0 -21 9q0 13 51 100q14 25 64 25h40q45 0 60.5 -4t26.5 -22l55 -87q5 -8 5 -12q0 -9 -28 -9h-78q-9 0 -25 31t-20 31t-19 -31.5t-23 -31.5zM405 630q28 -171 56 -310.5l38.5 -192t10.5 -77.5q0 -32 -20 -41t-68 -9h-53q-26 0 -35.5 37.5t-14.5 75
t-21 37.5h-80q-16 0 -23 -37.5t-17.5 -75t-36.5 -37.5h-47q-45 0 -64 9t-19 41q0 21 5.5 53.5t15.5 80.5t32.5 170l48.5 276q13 80 68 80h154q54 0 70 -80zM220 331q-1 -6 -1 -15q0 -11 6.5 -13.5t32.5 -2.5q25 0 32 2t7 13q0 9 -1 16q-3 23 -6.5 59.5l-6 61t-6 49t-8.5 37
t-11 12.5q-4 0 -8 -6.5t-7 -20t-5.5 -28t-5 -37.5t-4 -40l-4 -44t-4.5 -43z" />
    <glyph glyph-name="Atilde" unicode="&#xc3;" 
d="M412 852v-28q0 -42 -19.5 -64.5t-82.5 -22.5q-30 0 -46 5.5t-18.5 12t-9.5 12t-21 5.5q-15 0 -24.5 -15t-28.5 -15h-44q-18 0 -18 14v26q0 43 22 65.5t93 22.5q27 0 41.5 -5.5t17.5 -12t11.5 -12t24.5 -5.5q15 0 22.5 15t23.5 15h40q16 0 16 -13zM405 630
q28 -171 56 -310.5l38.5 -192t10.5 -77.5q0 -32 -20 -41t-68 -9h-53q-26 0 -35.5 37.5t-14.5 75t-21 37.5h-80q-16 0 -23 -37.5t-17.5 -75t-36.5 -37.5h-47q-45 0 -64 9t-19 41q0 21 5.5 53.5t15.5 80.5t32.5 170l48.5 276q13 80 68 80h154q54 0 70 -80zM220 331
q-1 -6 -1 -15q0 -11 6.5 -13.5t32.5 -2.5q25 0 32 2t7 13q0 9 -1 16q-3 23 -6.5 59.5l-6 61t-6 49t-8.5 37t-11 12.5q-4 0 -8 -6.5t-7 -20t-5.5 -28t-5 -37.5t-4 -40l-4 -44t-4.5 -43z" />
    <glyph glyph-name="Adieresis" unicode="&#xc4;" horiz-adv-x="529" 
d="M514 50q0 -36 -15.5 -43t-76.5 -7h-49q-26 0 -35.5 37.5t-14.5 75t-21 37.5h-80q-16 0 -23 -37.5t-17.5 -75t-36.5 -37.5h-44q-57 0 -71.5 7t-14.5 43q0 24 11 67t38.5 166.5t57.5 292.5q3 16 24 23.5t21 27.5v8q0 46 6 63t32 17h114q28 0 34.5 -18.5t6.5 -69.5
q0 -20 25.5 -27.5t28.5 -23.5q30 -169 56 -298l35 -171t9 -57zM224 331l-1 -15q0 -11 6.5 -13.5t32.5 -2.5h18.5t11.5 1.5t7.5 4.5t1.5 9l-1 16q-7 81 -18.5 150t-19.5 69q-9 0 -21 -70.5t-17 -148.5zM99 623h-26q-13 0 -20.5 1t-16.5 9t-9 23v27q0 32 46 32h26q15 0 22 -1
t14 -8.5t7 -22.5v-27q0 -15 -7 -23t-14 -9t-22 -1zM457 623h-26q-13 0 -20.5 1t-16.5 9t-9 23v27q0 32 46 32h26q15 0 22 -1t14 -8.5t7 -22.5v-27q0 -15 -7 -23t-14 -9t-22 -1z" />
    <glyph glyph-name="Aring" unicode="&#xc5;" 
d="M398 578q29 -159 58 -285t41.5 -176t12.5 -71q0 -29 -20 -37.5t-68 -8.5h-53q-21 0 -31.5 21.5t-12 47t-8 47t-19.5 21.5h-80q-13 0 -20.5 -21.5t-10.5 -47t-14.5 -47t-31.5 -21.5h-47q-44 0 -63.5 8.5t-19.5 37.5q0 22 8.5 59.5l37 165.5t62.5 307q0 1 0.5 3t0.5 3
q8 47 24 63q-17 25 -17 83q0 50 38 78.5t90 28.5q53 0 91 -30t38 -86q0 -49 -18 -75q20 -14 32 -68zM220 302q-1 -6 -1 -14q0 -10 6.5 -12t32.5 -2h19.5t11 1.5t7 4t1.5 7.5q0 8 -1 15q-3 25 -9.5 93.5t-12.5 103t-16 34.5q-6 0 -11 -14.5t-9 -42t-6.5 -53l-6 -63.5
t-5.5 -58zM259 677q17 0 26.5 13t9.5 31q0 19 -10 32.5t-28 13.5q-19 0 -29 -12t-10 -30q0 -19 11 -33.5t30 -14.5z" />
    <glyph glyph-name="AE" unicode="&#xc6;" horiz-adv-x="705" 
d="M493 253v-70q1 -16 13.5 -24.5t28.5 -8.5q33 0 62 1t35 1q31 0 43 -9.5t12 -32.5v-70q0 -22 -8.5 -31t-31.5 -9h-280q-12 0 -19.5 7t-10.5 21.5t-3.5 25.5t-0.5 32v6q0 58 -18 58h-90q-13 0 -23.5 -23.5t-17 -51.5t-21 -51.5t-34.5 -23.5h-47q-41 0 -59 7t-18 32
q0 7 1 11q3 21 12.5 53.5t25.5 80.5l54.5 170l83.5 276q24 80 78 80h381q20 0 33.5 -8t13.5 -22v-85q0 -16 -11 -20.5t-34 -4.5q-21 0 -52.5 1t-42.5 1q-20 0 -31.5 -3t-16.5 -11.5t-6 -15.5t-1 -22q0 -30 0.5 -41.5t5.5 -23t15 -14.5t29 -3q36 0 62 1t33 1q37 0 37 -46v-64
q0 -14 -7 -21.5t-15.5 -9t-23.5 -1.5q-29 0 -63 1t-41 1q-16 0 -23 -5.5t-8 -13.5t-1 -28zM251 331q-3 -9 -3 -15v-4q0 -8 6.5 -10t30.5 -2q26 0 33.5 2t8.5 13q5 16 5 68q0 17 -0.5 47.5t-0.5 40.5q0 79 -14 79q-3 0 -7 -4t-7.5 -12.5t-7 -18t-7.5 -24.5l-7.5 -27.5
t-7.5 -32l-7 -33l-7.5 -34.5t-7.5 -33z" />
    <glyph glyph-name="Ccedilla" unicode="&#xc7;" horiz-adv-x="372" 
d="M272 -60v-18q0 -32 -11 -69q-10 -32 -25.5 -42.5t-40.5 -10.5h-33q-23 0 -23 33q0 20 9 25t21.5 7t16.5 14q3 8 3 13q0 6 -9.5 17t-9.5 31q0 40 31 40h28q11 0 16.5 -0.5t13 -4t10.5 -12.5t3 -23zM10 365q0 69 12.5 124.5t35.5 93t52 64t64.5 41t70 21t72.5 6.5t38 -32
v-88q0 -5 -0.5 -8t-4 -8t-12 -7t-21.5 -2q-11 0 -19.5 1t-12.5 1q-27 0 -46.5 -19.5t-28.5 -43t-14 -58.5t-5.5 -51.5t-0.5 -36.5q0 -26 2 -51t9.5 -69.5t28 -72t51.5 -27.5q5 0 14 1t22 1q38 0 38 -46v-67q0 -37 -38 -37q-46 0 -86.5 9t-82.5 34t-71.5 65t-48 107
t-18.5 155z" />
    <glyph glyph-name="Egrave" unicode="&#xc8;" horiz-adv-x="399" 
d="M77 831q-17 17 -17 22q0 17 30 17q18 1 39 1q31 0 42.5 -4.5t28.5 -21.5l66 -72q15 -15 15 -27q0 -3 -6 -9q-6 -3 -64 -3q-43 0 -73 32zM187 253v-70q1 -16 13.5 -24.5t28.5 -8.5q33 0 62 1t35 1q31 0 43 -9.5t12 -32.5v-70q0 -22 -8.5 -31t-31.5 -9h-264q-60 0 -60 80
v550q0 16 0.5 24t3.5 21t9 19t18 11t29 5h258q20 0 33.5 -8t13.5 -22v-85q0 -16 -11 -20.5t-34 -4.5q-21 0 -52.5 1t-42.5 1q-20 0 -31.5 -3t-16.5 -11.5t-6 -15.5t-1 -22q0 -30 0.5 -41.5t5.5 -23t15 -14.5t29 -3q36 0 62 1t33 1q37 0 37 -46v-64q0 -14 -7 -21.5t-15.5 -9
t-23.5 -1.5q-29 0 -63 1t-41 1q-16 0 -23 -5.5t-8 -13.5t-1 -28z" />
    <glyph glyph-name="Eacute" unicode="&#xc9;" horiz-adv-x="399" 
d="M334 831l-61 -65q-30 -32 -75 -32q-56 0 -63 4q-5 2 -5 8q0 12 15 27l66 72q18 18 29.5 23t41.5 5q21 0 39 -1q30 0 30 -19q0 -5 -17 -22zM187 253v-70q1 -16 13.5 -24.5t28.5 -8.5q33 0 62 1t35 1q31 0 43 -9.5t12 -32.5v-70q0 -22 -8.5 -31t-31.5 -9h-264q-60 0 -60 80
v550q0 16 0.5 24t3.5 21t9 19t18 11t29 5h258q20 0 33.5 -8t13.5 -22v-85q0 -16 -11 -20.5t-34 -4.5q-21 0 -52.5 1t-42.5 1q-20 0 -31.5 -3t-16.5 -11.5t-6 -15.5t-1 -22q0 -30 0.5 -41.5t5.5 -23t15 -14.5t29 -3q36 0 62 1t33 1q37 0 37 -46v-64q0 -14 -7 -21.5t-15.5 -9
t-23.5 -1.5q-29 0 -63 1t-41 1q-16 0 -23 -5.5t-8 -13.5t-1 -28z" />
    <glyph glyph-name="Ecircumflex" unicode="&#xca;" horiz-adv-x="399" 
d="M157 737l-88 1q-21 0 -21 9q0 13 51 100q14 25 64 25h40q45 0 60.5 -4t26.5 -22l55 -87q5 -8 5 -12q0 -9 -28 -9h-78q-9 0 -25 31t-20 31t-19 -31.5t-23 -31.5zM187 253v-70q1 -16 13.5 -24.5t28.5 -8.5q33 0 62 1t35 1q31 0 43 -9.5t12 -32.5v-70q0 -22 -8.5 -31
t-31.5 -9h-264q-60 0 -60 80v550q0 16 0.5 24t3.5 21t9 19t18 11t29 5h258q20 0 33.5 -8t13.5 -22v-85q0 -16 -11 -20.5t-34 -4.5q-21 0 -52.5 1t-42.5 1q-20 0 -31.5 -3t-16.5 -11.5t-6 -15.5t-1 -22q0 -30 0.5 -41.5t5.5 -23t15 -14.5t29 -3q36 0 62 1t33 1q37 0 37 -46
v-64q0 -14 -7 -21.5t-15.5 -9t-23.5 -1.5q-29 0 -63 1t-41 1q-16 0 -23 -5.5t-8 -13.5t-1 -28z" />
    <glyph glyph-name="Edieresis" unicode="&#xcb;" horiz-adv-x="399" 
d="M132 729h-66q-13 0 -20.5 1t-16.5 9t-9 23v27q0 32 46 32h66q15 0 22 -1t14 -8.5t7 -22.5v-27q0 -15 -7 -23t-14 -9t-22 -1zM337 729h-66q-13 0 -20.5 1t-16.5 9t-9 23v26q0 15 9 23t16.5 9t20.5 1h66q15 0 22 -1t14 -9t7 -23v-26q0 -15 -7 -23t-14 -9t-22 -1zM187 253
v-70q1 -16 13.5 -24.5t28.5 -8.5q33 0 62 1t35 1q31 0 43 -9.5t12 -32.5v-70q0 -22 -8.5 -31t-31.5 -9h-264q-60 0 -60 80v550q0 16 0.5 24t3.5 21t9 19t18 11t29 5h258q20 0 33.5 -8t13.5 -22v-85q0 -16 -11 -20.5t-34 -4.5q-21 0 -52.5 1t-42.5 1q-20 0 -31.5 -3
t-16.5 -11.5t-6 -15.5t-1 -22q0 -30 0.5 -41.5t5.5 -23t15 -14.5t29 -3q36 0 62 1t33 1q37 0 37 -46v-64q0 -14 -7 -21.5t-15.5 -9t-23.5 -1.5q-29 0 -63 1t-41 1q-16 0 -23 -5.5t-8 -13.5t-1 -28z" />
    <glyph glyph-name="Igrave" unicode="&#xcc;" horiz-adv-x="203" 
d="M-51 831q-17 17 -17 22q0 17 30 17q18 1 39 1q31 0 42.5 -4.5t28.5 -21.5l66 -72q15 -15 15 -27q0 -3 -6 -9q-6 -3 -64 -3q-43 0 -73 32zM187 630v-550q0 -16 -0.5 -24t-3.5 -21t-9 -19t-18 -11t-29 -5h-50q-17 0 -29 5t-18 11t-9 19t-3.5 21t-0.5 24v550q0 16 0.5 24
t3.5 21t9 19t18 11t29 5h50q17 0 29 -5t18 -11t9 -19t3.5 -21t0.5 -24z" />
    <glyph glyph-name="Iacute" unicode="&#xcd;" horiz-adv-x="203" 
d="M254 831l-61 -65q-30 -32 -75 -32q-56 0 -63 4q-5 2 -5 8q0 12 15 27l66 72q18 18 29.5 23t41.5 5q21 0 39 -1q30 0 30 -19q0 -5 -17 -22zM187 630v-550q0 -16 -0.5 -24t-3.5 -21t-9 -19t-18 -11t-29 -5h-50q-17 0 -29 5t-18 11t-9 19t-3.5 21t-0.5 24v550q0 16 0.5 24
t3.5 21t9 19t18 11t29 5h50q17 0 29 -5t18 -11t9 -19t3.5 -21t0.5 -24z" />
    <glyph glyph-name="Icircumflex" unicode="&#xce;" horiz-adv-x="203" 
d="M60 737l-88 1q-21 0 -21 9q0 13 51 100q14 25 64 25h40q45 0 60.5 -4t26.5 -22l55 -87q5 -8 5 -12q0 -9 -28 -9h-78q-9 0 -25 31t-20 31t-19 -31.5t-23 -31.5zM187 630v-550q0 -16 -0.5 -24t-3.5 -21t-9 -19t-18 -11t-29 -5h-50q-17 0 -29 5t-18 11t-9 19t-3.5 21
t-0.5 24v550q0 16 0.5 24t3.5 21t9 19t18 11t29 5h50q17 0 29 -5t18 -11t9 -19t3.5 -21t0.5 -24z" />
    <glyph glyph-name="Idieresis" unicode="&#xcf;" horiz-adv-x="203" 
d="M51 729h-26q-13 0 -20.5 1t-16.5 9t-9 23v27q0 32 46 32h26q15 0 22 -1t14 -8.5t7 -22.5v-27q0 -15 -7 -23t-14 -9t-22 -1zM186 729h-26q-13 0 -20.5 1t-16.5 9t-9 23v26q0 15 9 23t16.5 9t20.5 1h26q15 0 22 -1t14 -9t7 -23v-26q0 -15 -7 -23t-14 -9t-22 -1zM187 630
v-550q0 -16 -0.5 -24t-3.5 -21t-9 -19t-18 -11t-29 -5h-50q-17 0 -29 5t-18 11t-9 19t-3.5 21t-0.5 24v550q0 16 0.5 24t3.5 21t9 19t18 11t29 5h50q17 0 29 -5t18 -11t9 -19t3.5 -21t0.5 -24z" />
    <glyph glyph-name="Ntilde" unicode="&#xd1;" horiz-adv-x="519" 
d="M318 400q4 -10 9 -10t5 10v230q0 16 0.5 24t3.5 21t9 19t18 11t29 5h50q17 0 29 -5t18 -11t9 -19t3.5 -21t0.5 -24v-550q0 -16 -0.5 -24t-3.5 -21t-9 -19t-18 -11t-29 -5q-67 0 -81 6t-30 40l-133 289q-5 10 -8 10q-4 0 -4 -10l1 -255q0 -16 -0.5 -24t-3.5 -21t-9 -19
t-18 -11t-29 -5h-50q-17 0 -29 5t-18 11t-9 19t-3.5 21t-0.5 24v550q0 16 0.5 24t3.5 21t9 19t18 11t29 5h53q26 0 37 -6t22 -29zM413 850v-28q0 -42 -19.5 -64.5t-82.5 -22.5q-30 0 -46 5.5t-18.5 12t-9.5 12t-21 5.5q-15 0 -24.5 -15t-28.5 -15h-44q-18 0 -18 14v26
q0 43 22 65.5t93 22.5q27 0 41.5 -5.5t17.5 -12t11.5 -12t24.5 -5.5q15 0 22.5 15t23.5 15h40q16 0 16 -13z" />
    <glyph glyph-name="Ograve" unicode="&#xd2;" horiz-adv-x="471" 
d="M118 831q-17 17 -17 22q0 17 30 17q18 1 39 1q31 0 42.5 -4.5t28.5 -21.5l66 -72q15 -15 15 -27q0 -3 -6 -9q-6 -3 -64 -3q-43 0 -73 32zM15 355q0 14 -0.5 41t-0.5 40q0 56 3 91.5t16 75t36.5 61.5t66 36.5t104.5 14.5q59 0 99.5 -14.5t63 -36t34.5 -60t15 -73.5t3 -91
q0 -31 1.5 -88.5t1.5 -83.5q0 -53 -4 -90t-17 -74t-36.5 -59t-64 -36t-96.5 -14q-62 0 -104.5 14.5t-66 36.5t-36.5 61t-16 74.5t-3 91.5q0 13 0.5 40.5t0.5 41.5zM235 575q-23 0 -35 -9.5t-13.5 -19t-1.5 -26.5v-315q0 -16 1 -24.5t5 -21t15 -18.5t29 -6t29 6t15 18.5t5 21
t1 24.5v315q0 17 -1.5 26.5t-13.5 19t-35 9.5z" />
    <glyph glyph-name="Oacute" unicode="&#xd3;" horiz-adv-x="471" 
d="M379 831l-61 -65q-30 -32 -75 -32q-56 0 -63 4q-5 2 -5 8q0 12 15 27l66 72q18 18 29.5 23t41.5 5q21 0 39 -1q30 0 30 -19q0 -5 -17 -22zM15 355q0 14 -0.5 41t-0.5 40q0 56 3 91.5t16 75t36.5 61.5t66 36.5t104.5 14.5q59 0 99.5 -14.5t63 -36t34.5 -60t15 -73.5t3 -91
q0 -31 1.5 -88.5t1.5 -83.5q0 -53 -4 -90t-17 -74t-36.5 -59t-64 -36t-96.5 -14q-62 0 -104.5 14.5t-66 36.5t-36.5 61t-16 74.5t-3 91.5q0 13 0.5 40.5t0.5 41.5zM235 575q-23 0 -35 -9.5t-13.5 -19t-1.5 -26.5v-315q0 -16 1 -24.5t5 -21t15 -18.5t29 -6t29 6t15 18.5t5 21
t1 24.5v315q0 17 -1.5 26.5t-13.5 19t-35 9.5z" />
    <glyph glyph-name="Ocircumflex" unicode="&#xd4;" horiz-adv-x="471" 
d="M194 737l-88 1q-21 0 -21 9q0 13 51 100q14 25 64 25h40q45 0 60.5 -4t26.5 -22l55 -87q5 -8 5 -12q0 -9 -28 -9h-78q-9 0 -25 31t-20 31t-19 -31.5t-23 -31.5zM15 355q0 14 -0.5 41t-0.5 40q0 56 3 91.5t16 75t36.5 61.5t66 36.5t104.5 14.5q59 0 99.5 -14.5t63 -36
t34.5 -60t15 -73.5t3 -91q0 -31 1.5 -88.5t1.5 -83.5q0 -53 -4 -90t-17 -74t-36.5 -59t-64 -36t-96.5 -14q-62 0 -104.5 14.5t-66 36.5t-36.5 61t-16 74.5t-3 91.5q0 13 0.5 40.5t0.5 41.5zM235 575q-23 0 -35 -9.5t-13.5 -19t-1.5 -26.5v-315q0 -16 1 -24.5t5 -21t15 -18.5
t29 -6t29 6t15 18.5t5 21t1 24.5v315q0 17 -1.5 26.5t-13.5 19t-35 9.5z" />
    <glyph glyph-name="Otilde" unicode="&#xd5;" horiz-adv-x="471" 
d="M389 852v-28q0 -42 -19.5 -64.5t-82.5 -22.5q-30 0 -46 5.5t-18.5 12t-9.5 12t-21 5.5q-15 0 -24.5 -15t-28.5 -15h-44q-18 0 -18 14v26q0 43 22 65.5t93 22.5q27 0 41.5 -5.5t17.5 -12t11.5 -12t24.5 -5.5q15 0 22.5 15t23.5 15h40q16 0 16 -13zM15 355q0 14 -0.5 41
t-0.5 40q0 56 3 91.5t16 75t36.5 61.5t66 36.5t104.5 14.5q59 0 99.5 -14.5t63 -36t34.5 -60t15 -73.5t3 -91q0 -31 1.5 -88.5t1.5 -83.5q0 -53 -4 -90t-17 -74t-36.5 -59t-64 -36t-96.5 -14q-62 0 -104.5 14.5t-66 36.5t-36.5 61t-16 74.5t-3 91.5q0 13 0.5 40.5t0.5 41.5z
M235 575q-23 0 -35 -9.5t-13.5 -19t-1.5 -26.5v-315q0 -16 1 -24.5t5 -21t15 -18.5t29 -6t29 6t15 18.5t5 21t1 24.5v315q0 17 -1.5 26.5t-13.5 19t-35 9.5z" />
    <glyph glyph-name="Odieresis" unicode="&#xd6;" horiz-adv-x="471" 
d="M15 257v134q0 44 3 72.5t16 62t36.5 53t66.5 32.5t104 13q58 0 99.5 -13t63.5 -32.5t34.5 -52.5t15.5 -61.5t3 -71.5v-142q0 -48 -3.5 -82t-16.5 -69.5t-36 -56.5t-63 -34.5t-97 -13.5q-61 0 -104 14t-66.5 35.5t-36.5 58.5t-16 70t-3 84zM238 495q-18 0 -29.5 -3.5
t-16 -11.5t-5.5 -13.5t-1 -16.5v-270q0 -12 1 -18t5.5 -13.5t15.5 -10.5t30 -3q23 0 34 7t12.5 14.5t1.5 23.5v270q0 11 -1 16.5t-5 13.5t-14.5 11.5t-27.5 3.5zM98 623h-26q-13 0 -20.5 1t-16.5 9t-9 23v27q0 32 46 32h26q15 0 22 -1t14 -8.5t7 -22.5v-27q0 -15 -7 -23
t-14 -9t-22 -1zM403 623h-26q-13 0 -20.5 1t-16.5 9t-9 23v26q0 15 9 23t16.5 9t20.5 1h26q15 0 22 -1t14 -9t7 -23v-26q0 -15 -7 -23t-14 -9t-22 -1z" />
    <glyph glyph-name="Oslash" unicode="&#xd8;" horiz-adv-x="472" 
d="M14 13q2 11 16 34.5t14 32.5q0 5 -9 20q-20 46 -20 173v163q0 57 3 92t15.5 74.5t36 61.5t66 36.5t104.5 14.5q74 0 111 -18q10 -5 13 -5q4 0 11 9t21 9h39q23 0 23 -17q-1 -3 -4.5 -9.5t-10.5 -21l-14 -29.5q-2 -4 -2 -6q0 -3 4 -11.5t9.5 -24t8.5 -33.5q9 -42 9 -118
v-172q0 -53 -4 -90t-17 -74t-36.5 -59t-64 -36t-96.5 -14q-29 0 -53.5 5.5t-38.5 10.5t-17 5q-2 0 -3 -2q-5 -10 -9 -12t-15 -2h-64q-26 0 -26 13zM184 335l103 219q0 8 -16.5 14.5t-35.5 6.5q-60 0 -60 -55v-195q0 -7 1 -7t8 17zM295 205v147q0 8 -1 8l-3 -5
q-93 -197 -93 -208q0 -12 37 -12q60 0 60 70z" />
    <glyph glyph-name="Ugrave" unicode="&#xd9;" horiz-adv-x="473" 
d="M97 831q-17 17 -17 22q0 17 30 17q18 1 39 1q31 0 42.5 -4.5t28.5 -21.5l66 -72q15 -15 15 -27q0 -3 -6 -9q-6 -3 -64 -3q-43 0 -73 32zM457 631v-428q0 -43 -3 -70t-15 -56t-34.5 -45t-63 -26.5t-99.5 -10.5q-52 0 -90 6.5t-62.5 21t-39.5 31t-22.5 43.5t-9.5 51.5
t-2 61.5l1 420q0 16 0.5 24t3.5 21t9 19t18 11t29 5h50q17 0 29 -5t18 -11t9 -19t3.5 -21t0.5 -24v-440q0 -15 1 -22t5.5 -16t16.5 -13t32 -4q21 0 31.5 8.5t12 18t1.5 28.5v441q0 16 0.5 24t3.5 20.5t9 18.5t18 11t29 5h50q17 0 29 -5t18 -11t9 -18.5t3.5 -20.5t0.5 -24z
" />
    <glyph glyph-name="Uacute" unicode="&#xda;" horiz-adv-x="473" 
d="M384 831l-61 -65q-30 -32 -75 -32q-56 0 -63 4q-5 2 -5 8q0 12 15 27l66 72q18 18 29.5 23t41.5 5q21 0 39 -1q30 0 30 -19q0 -5 -17 -22zM457 631v-428q0 -43 -3 -70t-15 -56t-34.5 -45t-63 -26.5t-99.5 -10.5q-52 0 -90 6.5t-62.5 21t-39.5 31t-22.5 43.5t-9.5 51.5
t-2 61.5l1 420q0 16 0.5 24t3.5 21t9 19t18 11t29 5h50q17 0 29 -5t18 -11t9 -19t3.5 -21t0.5 -24v-440q0 -15 1 -22t5.5 -16t16.5 -13t32 -4q21 0 31.5 8.5t12 18t1.5 28.5v441q0 16 0.5 24t3.5 20.5t9 18.5t18 11t29 5h50q17 0 29 -5t18 -11t9 -18.5t3.5 -20.5t0.5 -24z
" />
    <glyph glyph-name="Ucircumflex" unicode="&#xdb;" horiz-adv-x="473" 
d="M194 737l-88 1q-21 0 -21 9q0 13 51 100q14 25 64 25h40q45 0 60.5 -4t26.5 -22l55 -87q5 -8 5 -12q0 -9 -28 -9h-78q-9 0 -25 31t-20 31t-19 -31.5t-23 -31.5zM457 631v-428q0 -43 -3 -70t-15 -56t-34.5 -45t-63 -26.5t-99.5 -10.5q-52 0 -90 6.5t-62.5 21t-39.5 31
t-22.5 43.5t-9.5 51.5t-2 61.5l1 420q0 16 0.5 24t3.5 21t9 19t18 11t29 5h50q17 0 29 -5t18 -11t9 -19t3.5 -21t0.5 -24v-440q0 -15 1 -22t5.5 -16t16.5 -13t32 -4q21 0 31.5 8.5t12 18t1.5 28.5v441q0 16 0.5 24t3.5 20.5t9 18.5t18 11t29 5h50q17 0 29 -5t18 -11t9 -18.5
t3.5 -20.5t0.5 -24z" />
    <glyph glyph-name="Udieresis" unicode="&#xdc;" horiz-adv-x="471" 
d="M455 514v-105v-59v5v-152q0 -44 -3 -70.5t-15 -56t-34.5 -45t-63 -26t-99.5 -10.5q-52 0 -90 6.5t-62.5 21t-39.5 30.5t-22.5 43.5t-9.5 51.5t-2 62l1 303q0 16 0.5 24t3.5 21t9 19t18 11t29 5h50q17 0 29 -5t18 -11t9 -19t3.5 -21t0.5 -24v-323q0 -15 1 -22t5.5 -16
t16.5 -13t32 -4q21 0 31.5 8.5t12 18t1.5 28.5v324q0 16 0.5 24t3.5 20.5t9 18.5t18 11t29 5h50q17 0 29 -5t18 -11t9 -18.5t3.5 -20.5t0.5 -24zM137 623h-66q-13 0 -20.5 1t-16.5 9t-9 23v27q0 32 46 32h66q15 0 22 -1t14 -8.5t7 -22.5v-27q0 -15 -7 -23t-14 -9t-22 -1z
M402 623h-66q-13 0 -20.5 1t-16.5 9t-9 23v26q0 15 9 23t16.5 9t20.5 1h66q15 0 22 -1t14 -9t7 -23v-26q0 -15 -7 -23t-14 -9t-22 -1z" />
    <glyph glyph-name="germandbls" unicode="&#xdf;" horiz-adv-x="711" 
d="M86 518q1 112 59.5 154.5t173.5 42.5q50 0 61 -13.5t11 -62.5q0 -21 -0.5 -30.5t-3 -22t-9 -17t-16.5 -4.5q-8 0 -23 1t-22 1q-23 0 -33 -11t-10 -45q0 -41 22.5 -116t24.5 -95q6 -56 6 -74q0 -36 -6 -64t-20 -51t-23.5 -35t-30.5 -34q-46 -47 -143 -47q-45 0 -68 9
t-23 38q0 10 -0.5 28.5t-0.5 25.5q0 25 6 37t23 12q9 0 24 -1.5t22 -1.5q21 0 37.5 20.5t16.5 68.5q0 41 -27.5 138t-27.5 149zM394 518q1 112 59.5 154.5t173.5 42.5q50 0 61 -13.5t11 -62.5q0 -21 -0.5 -30.5t-3 -22t-9 -17t-16.5 -4.5q-8 0 -23 1t-22 1q-23 0 -33 -11
t-10 -45q0 -41 22.5 -116t24.5 -95q6 -56 6 -74q0 -36 -6 -64t-20 -51t-23.5 -35t-30.5 -34q-46 -47 -143 -47q-45 0 -68 9t-23 38q0 10 -0.5 28.5t-0.5 25.5q0 25 6 37t23 12q9 0 24 -1.5t22 -1.5q21 0 37.5 20.5t16.5 68.5q0 41 -27.5 138t-27.5 149z" />
    <glyph glyph-name="agrave" unicode="&#xe0;" 
d="M113 831q-17 17 -17 22q0 17 30 17q18 1 39 1q31 0 42.5 -4.5t28.5 -21.5l66 -72q15 -15 15 -27q0 -3 -6 -9q-6 -3 -64 -3q-43 0 -73 32zM405 630q28 -171 56 -310.5l38.5 -192t10.5 -77.5q0 -32 -20 -41t-68 -9h-53q-26 0 -35.5 37.5t-14.5 75t-21 37.5h-80
q-16 0 -23 -37.5t-17.5 -75t-36.5 -37.5h-47q-45 0 -64 9t-19 41q0 21 5.5 53.5t15.5 80.5t32.5 170l48.5 276q13 80 68 80h154q54 0 70 -80zM220 331q-1 -6 -1 -15q0 -11 6.5 -13.5t32.5 -2.5q25 0 32 2t7 13q0 9 -1 16q-3 23 -6.5 59.5l-6 61t-6 49t-8.5 37t-11 12.5
q-4 0 -8 -6.5t-7 -20t-5.5 -28t-5 -37.5t-4 -40l-4 -44t-4.5 -43z" />
    <glyph glyph-name="aacute" unicode="&#xe1;" 
d="M414 831l-61 -65q-30 -32 -75 -32q-56 0 -63 4q-5 2 -5 8q0 12 15 27l66 72q18 18 29.5 23t41.5 5q21 0 39 -1q30 0 30 -19q0 -5 -17 -22zM405 630q28 -171 56 -310.5l38.5 -192t10.5 -77.5q0 -32 -20 -41t-68 -9h-53q-26 0 -35.5 37.5t-14.5 75t-21 37.5h-80
q-16 0 -23 -37.5t-17.5 -75t-36.5 -37.5h-47q-45 0 -64 9t-19 41q0 21 5.5 53.5t15.5 80.5t32.5 170l48.5 276q13 80 68 80h154q54 0 70 -80zM220 331q-1 -6 -1 -15q0 -11 6.5 -13.5t32.5 -2.5q25 0 32 2t7 13q0 9 -1 16q-3 23 -6.5 59.5l-6 61t-6 49t-8.5 37t-11 12.5
q-4 0 -8 -6.5t-7 -20t-5.5 -28t-5 -37.5t-4 -40l-4 -44t-4.5 -43z" />
    <glyph glyph-name="acircumflex" unicode="&#xe2;" 
d="M218 737l-88 1q-21 0 -21 9q0 13 51 100q14 25 64 25h40q45 0 60.5 -4t26.5 -22l55 -87q5 -8 5 -12q0 -9 -28 -9h-78q-9 0 -25 31t-20 31t-19 -31.5t-23 -31.5zM405 630q28 -171 56 -310.5l38.5 -192t10.5 -77.5q0 -32 -20 -41t-68 -9h-53q-26 0 -35.5 37.5t-14.5 75
t-21 37.5h-80q-16 0 -23 -37.5t-17.5 -75t-36.5 -37.5h-47q-45 0 -64 9t-19 41q0 21 5.5 53.5t15.5 80.5t32.5 170l48.5 276q13 80 68 80h154q54 0 70 -80zM220 331q-1 -6 -1 -15q0 -11 6.5 -13.5t32.5 -2.5q25 0 32 2t7 13q0 9 -1 16q-3 23 -6.5 59.5l-6 61t-6 49t-8.5 37
t-11 12.5q-4 0 -8 -6.5t-7 -20t-5.5 -28t-5 -37.5t-4 -40l-4 -44t-4.5 -43z" />
    <glyph glyph-name="atilde" unicode="&#xe3;" 
d="M412 852v-28q0 -42 -19.5 -64.5t-82.5 -22.5q-30 0 -46 5.5t-18.5 12t-9.5 12t-21 5.5q-15 0 -24.5 -15t-28.5 -15h-44q-18 0 -18 14v26q0 43 22 65.5t93 22.5q27 0 41.5 -5.5t17.5 -12t11.5 -12t24.5 -5.5q15 0 22.5 15t23.5 15h40q16 0 16 -13zM405 630
q28 -171 56 -310.5l38.5 -192t10.5 -77.5q0 -32 -20 -41t-68 -9h-53q-26 0 -35.5 37.5t-14.5 75t-21 37.5h-80q-16 0 -23 -37.5t-17.5 -75t-36.5 -37.5h-47q-45 0 -64 9t-19 41q0 21 5.5 53.5t15.5 80.5t32.5 170l48.5 276q13 80 68 80h154q54 0 70 -80zM220 331
q-1 -6 -1 -15q0 -11 6.5 -13.5t32.5 -2.5q25 0 32 2t7 13q0 9 -1 16q-3 23 -6.5 59.5l-6 61t-6 49t-8.5 37t-11 12.5q-4 0 -8 -6.5t-7 -20t-5.5 -28t-5 -37.5t-4 -40l-4 -44t-4.5 -43z" />
    <glyph glyph-name="adieresis" unicode="&#xe4;" horiz-adv-x="529" 
d="M514 50q0 -36 -15.5 -43t-76.5 -7h-49q-26 0 -35.5 37.5t-14.5 75t-21 37.5h-80q-16 0 -23 -37.5t-17.5 -75t-36.5 -37.5h-44q-57 0 -71.5 7t-14.5 43q0 24 11 67t38.5 166.5t57.5 292.5q3 16 24 23.5t21 27.5v8q0 46 6 63t32 17h114q28 0 34.5 -18.5t6.5 -69.5
q0 -20 25.5 -27.5t28.5 -23.5q30 -169 56 -298l35 -171t9 -57zM224 331l-1 -15q0 -11 6.5 -13.5t32.5 -2.5h18.5t11.5 1.5t7.5 4.5t1.5 9l-1 16q-7 81 -18.5 150t-19.5 69q-9 0 -21 -70.5t-17 -148.5zM99 623h-26q-13 0 -20.5 1t-16.5 9t-9 23v27q0 32 46 32h26q15 0 22 -1
t14 -8.5t7 -22.5v-27q0 -15 -7 -23t-14 -9t-22 -1zM457 623h-26q-13 0 -20.5 1t-16.5 9t-9 23v27q0 32 46 32h26q15 0 22 -1t14 -8.5t7 -22.5v-27q0 -15 -7 -23t-14 -9t-22 -1z" />
    <glyph glyph-name="aring" unicode="&#xe5;" 
d="M398 578q29 -159 58 -285t41.5 -176t12.5 -71q0 -29 -20 -37.5t-68 -8.5h-53q-21 0 -31.5 21.5t-12 47t-8 47t-19.5 21.5h-80q-13 0 -20.5 -21.5t-10.5 -47t-14.5 -47t-31.5 -21.5h-47q-44 0 -63.5 8.5t-19.5 37.5q0 22 8.5 59.5l37 165.5t62.5 307q0 1 0.5 3t0.5 3
q8 47 24 63q-17 25 -17 83q0 50 38 78.5t90 28.5q53 0 91 -30t38 -86q0 -49 -18 -75q20 -14 32 -68zM220 302q-1 -6 -1 -14q0 -10 6.5 -12t32.5 -2h19.5t11 1.5t7 4t1.5 7.5q0 8 -1 15q-3 25 -9.5 93.5t-12.5 103t-16 34.5q-6 0 -11 -14.5t-9 -42t-6.5 -53l-6 -63.5
t-5.5 -58zM259 677q17 0 26.5 13t9.5 31q0 19 -10 32.5t-28 13.5q-19 0 -29 -12t-10 -30q0 -19 11 -33.5t30 -14.5z" />
    <glyph glyph-name="ae" unicode="&#xe6;" horiz-adv-x="705" 
d="M493 253v-70q1 -16 13.5 -24.5t28.5 -8.5q33 0 62 1t35 1q31 0 43 -9.5t12 -32.5v-70q0 -22 -8.5 -31t-31.5 -9h-280q-12 0 -19.5 7t-10.5 21.5t-3.5 25.5t-0.5 32v6q0 58 -18 58h-90q-13 0 -23.5 -23.5t-17 -51.5t-21 -51.5t-34.5 -23.5h-47q-41 0 -59 7t-18 32
q0 7 1 11q3 21 12.5 53.5t25.5 80.5l54.5 170l83.5 276q24 80 78 80h381q20 0 33.5 -8t13.5 -22v-85q0 -16 -11 -20.5t-34 -4.5q-21 0 -52.5 1t-42.5 1q-20 0 -31.5 -3t-16.5 -11.5t-6 -15.5t-1 -22q0 -30 0.5 -41.5t5.5 -23t15 -14.5t29 -3q36 0 62 1t33 1q37 0 37 -46v-64
q0 -14 -7 -21.5t-15.5 -9t-23.5 -1.5q-29 0 -63 1t-41 1q-16 0 -23 -5.5t-8 -13.5t-1 -28zM251 331q-3 -9 -3 -15v-4q0 -8 6.5 -10t30.5 -2q26 0 33.5 2t8.5 13q5 16 5 68q0 17 -0.5 47.5t-0.5 40.5q0 79 -14 79q-3 0 -7 -4t-7.5 -12.5t-7 -18t-7.5 -24.5l-7.5 -27.5
t-7.5 -32l-7 -33l-7.5 -34.5t-7.5 -33z" />
    <glyph glyph-name="ccedilla" unicode="&#xe7;" horiz-adv-x="372" 
d="M272 -60v-18q0 -32 -11 -69q-10 -32 -25.5 -42.5t-40.5 -10.5h-33q-23 0 -23 33q0 20 9 25t21.5 7t16.5 14q3 8 3 13q0 6 -9.5 17t-9.5 31q0 40 31 40h28q11 0 16.5 -0.5t13 -4t10.5 -12.5t3 -23zM10 365q0 69 12.5 124.5t35.5 93t52 64t64.5 41t70 21t72.5 6.5t38 -32
v-88q0 -5 -0.5 -8t-4 -8t-12 -7t-21.5 -2q-11 0 -19.5 1t-12.5 1q-27 0 -46.5 -19.5t-28.5 -43t-14 -58.5t-5.5 -51.5t-0.5 -36.5q0 -26 2 -51t9.5 -69.5t28 -72t51.5 -27.5q5 0 14 1t22 1q38 0 38 -46v-67q0 -37 -38 -37q-46 0 -86.5 9t-82.5 34t-71.5 65t-48 107
t-18.5 155z" />
    <glyph glyph-name="egrave" unicode="&#xe8;" horiz-adv-x="399" 
d="M77 831q-17 17 -17 22q0 17 30 17q18 1 39 1q31 0 42.5 -4.5t28.5 -21.5l66 -72q15 -15 15 -27q0 -3 -6 -9q-6 -3 -64 -3q-43 0 -73 32zM187 253v-70q1 -16 13.5 -24.5t28.5 -8.5q33 0 62 1t35 1q31 0 43 -9.5t12 -32.5v-70q0 -22 -8.5 -31t-31.5 -9h-264q-60 0 -60 80
v550q0 16 0.5 24t3.5 21t9 19t18 11t29 5h258q20 0 33.5 -8t13.5 -22v-85q0 -16 -11 -20.5t-34 -4.5q-21 0 -52.5 1t-42.5 1q-20 0 -31.5 -3t-16.5 -11.5t-6 -15.5t-1 -22q0 -30 0.5 -41.5t5.5 -23t15 -14.5t29 -3q36 0 62 1t33 1q37 0 37 -46v-64q0 -14 -7 -21.5t-15.5 -9
t-23.5 -1.5q-29 0 -63 1t-41 1q-16 0 -23 -5.5t-8 -13.5t-1 -28z" />
    <glyph glyph-name="eacute" unicode="&#xe9;" horiz-adv-x="399" 
d="M324 831l-61 -65q-30 -32 -75 -32q-56 0 -63 4q-5 2 -5 8q0 12 15 27l66 72q18 18 29.5 23t41.5 5q21 0 39 -1q30 0 30 -19q0 -5 -17 -22zM187 253v-70q1 -16 13.5 -24.5t28.5 -8.5q33 0 62 1t35 1q31 0 43 -9.5t12 -32.5v-70q0 -22 -8.5 -31t-31.5 -9h-264q-60 0 -60 80
v550q0 16 0.5 24t3.5 21t9 19t18 11t29 5h258q20 0 33.5 -8t13.5 -22v-85q0 -16 -11 -20.5t-34 -4.5q-21 0 -52.5 1t-42.5 1q-20 0 -31.5 -3t-16.5 -11.5t-6 -15.5t-1 -22q0 -30 0.5 -41.5t5.5 -23t15 -14.5t29 -3q36 0 62 1t33 1q37 0 37 -46v-64q0 -14 -7 -21.5t-15.5 -9
t-23.5 -1.5q-29 0 -63 1t-41 1q-16 0 -23 -5.5t-8 -13.5t-1 -28z" />
    <glyph glyph-name="ecircumflex" unicode="&#xea;" horiz-adv-x="399" 
d="M157 737l-88 1q-21 0 -21 9q0 13 51 100q14 25 64 25h40q45 0 60.5 -4t26.5 -22l55 -87q5 -8 5 -12q0 -9 -28 -9h-78q-9 0 -25 31t-20 31t-19 -31.5t-23 -31.5zM187 253v-70q1 -16 13.5 -24.5t28.5 -8.5q33 0 62 1t35 1q31 0 43 -9.5t12 -32.5v-70q0 -22 -8.5 -31
t-31.5 -9h-264q-60 0 -60 80v550q0 16 0.5 24t3.5 21t9 19t18 11t29 5h258q20 0 33.5 -8t13.5 -22v-85q0 -16 -11 -20.5t-34 -4.5q-21 0 -52.5 1t-42.5 1q-20 0 -31.5 -3t-16.5 -11.5t-6 -15.5t-1 -22q0 -30 0.5 -41.5t5.5 -23t15 -14.5t29 -3q36 0 62 1t33 1q37 0 37 -46
v-64q0 -14 -7 -21.5t-15.5 -9t-23.5 -1.5q-29 0 -63 1t-41 1q-16 0 -23 -5.5t-8 -13.5t-1 -28z" />
    <glyph glyph-name="edieresis" unicode="&#xeb;" horiz-adv-x="399" 
d="M132 729h-66q-13 0 -20.5 1t-16.5 9t-9 23v27q0 32 46 32h66q15 0 22 -1t14 -8.5t7 -22.5v-27q0 -15 -7 -23t-14 -9t-22 -1zM337 729h-66q-13 0 -20.5 1t-16.5 9t-9 23v26q0 15 9 23t16.5 9t20.5 1h66q15 0 22 -1t14 -9t7 -23v-26q0 -15 -7 -23t-14 -9t-22 -1zM187 253
v-70q1 -16 13.5 -24.5t28.5 -8.5q33 0 62 1t35 1q31 0 43 -9.5t12 -32.5v-70q0 -22 -8.5 -31t-31.5 -9h-264q-60 0 -60 80v550q0 16 0.5 24t3.5 21t9 19t18 11t29 5h258q20 0 33.5 -8t13.5 -22v-85q0 -16 -11 -20.5t-34 -4.5q-21 0 -52.5 1t-42.5 1q-20 0 -31.5 -3
t-16.5 -11.5t-6 -15.5t-1 -22q0 -30 0.5 -41.5t5.5 -23t15 -14.5t29 -3q36 0 62 1t33 1q37 0 37 -46v-64q0 -14 -7 -21.5t-15.5 -9t-23.5 -1.5q-29 0 -63 1t-41 1q-16 0 -23 -5.5t-8 -13.5t-1 -28z" />
    <glyph glyph-name="igrave" unicode="&#xec;" horiz-adv-x="203" 
d="M-51 831q-17 17 -17 22q0 17 30 17q18 1 39 1q31 0 42.5 -4.5t28.5 -21.5l66 -72q15 -15 15 -27q0 -3 -6 -9q-6 -3 -64 -3q-43 0 -73 32zM187 630v-550q0 -16 -0.5 -24t-3.5 -21t-9 -19t-18 -11t-29 -5h-50q-17 0 -29 5t-18 11t-9 19t-3.5 21t-0.5 24v550q0 16 0.5 24
t3.5 21t9 19t18 11t29 5h50q17 0 29 -5t18 -11t9 -19t3.5 -21t0.5 -24z" />
    <glyph glyph-name="iacute" unicode="&#xed;" horiz-adv-x="203" 
d="M254 831l-61 -65q-30 -32 -75 -32q-56 0 -63 4q-5 2 -5 8q0 12 15 27l66 72q18 18 29.5 23t41.5 5q21 0 39 -1q30 0 30 -19q0 -5 -17 -22zM187 630v-550q0 -16 -0.5 -24t-3.5 -21t-9 -19t-18 -11t-29 -5h-50q-17 0 -29 5t-18 11t-9 19t-3.5 21t-0.5 24v550q0 16 0.5 24
t3.5 21t9 19t18 11t29 5h50q17 0 29 -5t18 -11t9 -19t3.5 -21t0.5 -24z" />
    <glyph glyph-name="icircumflex" unicode="&#xee;" horiz-adv-x="203" 
d="M60 737l-88 1q-21 0 -21 9q0 13 51 100q14 25 64 25h40q45 0 60.5 -4t26.5 -22l55 -87q5 -8 5 -12q0 -9 -28 -9h-78q-9 0 -25 31t-20 31t-19 -31.5t-23 -31.5zM187 630v-550q0 -16 -0.5 -24t-3.5 -21t-9 -19t-18 -11t-29 -5h-50q-17 0 -29 5t-18 11t-9 19t-3.5 21
t-0.5 24v550q0 16 0.5 24t3.5 21t9 19t18 11t29 5h50q17 0 29 -5t18 -11t9 -19t3.5 -21t0.5 -24z" />
    <glyph glyph-name="idieresis" unicode="&#xef;" horiz-adv-x="203" 
d="M51 729h-26q-13 0 -20.5 1t-16.5 9t-9 23v27q0 32 46 32h26q15 0 22 -1t14 -8.5t7 -22.5v-27q0 -15 -7 -23t-14 -9t-22 -1zM186 729h-26q-13 0 -20.5 1t-16.5 9t-9 23v26q0 15 9 23t16.5 9t20.5 1h26q15 0 22 -1t14 -9t7 -23v-26q0 -15 -7 -23t-14 -9t-22 -1zM187 630
v-550q0 -16 -0.5 -24t-3.5 -21t-9 -19t-18 -11t-29 -5h-50q-17 0 -29 5t-18 11t-9 19t-3.5 21t-0.5 24v550q0 16 0.5 24t3.5 21t9 19t18 11t29 5h50q17 0 29 -5t18 -11t9 -19t3.5 -21t0.5 -24z" />
    <glyph glyph-name="ntilde" unicode="&#xf1;" horiz-adv-x="519" 
d="M318 400q4 -10 9 -10t5 10v230q0 16 0.5 24t3.5 21t9 19t18 11t29 5h50q17 0 29 -5t18 -11t9 -19t3.5 -21t0.5 -24v-550q0 -16 -0.5 -24t-3.5 -21t-9 -19t-18 -11t-29 -5q-67 0 -81 6t-30 40l-133 289q-5 10 -8 10q-4 0 -4 -10l1 -255q0 -16 -0.5 -24t-3.5 -21t-9 -19
t-18 -11t-29 -5h-50q-17 0 -29 5t-18 11t-9 19t-3.5 21t-0.5 24v550q0 16 0.5 24t3.5 21t9 19t18 11t29 5h53q26 0 37 -6t22 -29zM413 850v-28q0 -42 -19.5 -64.5t-82.5 -22.5q-30 0 -46 5.5t-18.5 12t-9.5 12t-21 5.5q-15 0 -24.5 -15t-28.5 -15h-44q-18 0 -18 14v26
q0 43 22 65.5t93 22.5q27 0 41.5 -5.5t17.5 -12t11.5 -12t24.5 -5.5q15 0 22.5 15t23.5 15h40q16 0 16 -13z" />
    <glyph glyph-name="ograve" unicode="&#xf2;" horiz-adv-x="471" 
d="M118 831q-17 17 -17 22q0 17 30 17q18 1 39 1q31 0 42.5 -4.5t28.5 -21.5l66 -72q15 -15 15 -27q0 -3 -6 -9q-6 -3 -64 -3q-43 0 -73 32zM15 355q0 14 -0.5 41t-0.5 40q0 56 3 91.5t16 75t36.5 61.5t66 36.5t104.5 14.5q59 0 99.5 -14.5t63 -36t34.5 -60t15 -73.5t3 -91
q0 -31 1.5 -88.5t1.5 -83.5q0 -53 -4 -90t-17 -74t-36.5 -59t-64 -36t-96.5 -14q-62 0 -104.5 14.5t-66 36.5t-36.5 61t-16 74.5t-3 91.5q0 13 0.5 40.5t0.5 41.5zM235 575q-23 0 -35 -9.5t-13.5 -19t-1.5 -26.5v-315q0 -16 1 -24.5t5 -21t15 -18.5t29 -6t29 6t15 18.5t5 21
t1 24.5v315q0 17 -1.5 26.5t-13.5 19t-35 9.5z" />
    <glyph glyph-name="oacute" unicode="&#xf3;" horiz-adv-x="471" 
d="M379 831l-61 -65q-30 -32 -75 -32q-56 0 -63 4q-5 2 -5 8q0 12 15 27l66 72q18 18 29.5 23t41.5 5q21 0 39 -1q30 0 30 -19q0 -5 -17 -22zM15 355q0 14 -0.5 41t-0.5 40q0 56 3 91.5t16 75t36.5 61.5t66 36.5t104.5 14.5q59 0 99.5 -14.5t63 -36t34.5 -60t15 -73.5t3 -91
q0 -31 1.5 -88.5t1.5 -83.5q0 -53 -4 -90t-17 -74t-36.5 -59t-64 -36t-96.5 -14q-62 0 -104.5 14.5t-66 36.5t-36.5 61t-16 74.5t-3 91.5q0 13 0.5 40.5t0.5 41.5zM235 575q-23 0 -35 -9.5t-13.5 -19t-1.5 -26.5v-315q0 -16 1 -24.5t5 -21t15 -18.5t29 -6t29 6t15 18.5t5 21
t1 24.5v315q0 17 -1.5 26.5t-13.5 19t-35 9.5z" />
    <glyph glyph-name="ocircumflex" unicode="&#xf4;" horiz-adv-x="471" 
d="M194 737l-88 1q-21 0 -21 9q0 13 51 100q14 25 64 25h40q45 0 60.5 -4t26.5 -22l55 -87q5 -8 5 -12q0 -9 -28 -9h-78q-9 0 -25 31t-20 31t-19 -31.5t-23 -31.5zM15 355q0 14 -0.5 41t-0.5 40q0 56 3 91.5t16 75t36.5 61.5t66 36.5t104.5 14.5q59 0 99.5 -14.5t63 -36
t34.5 -60t15 -73.5t3 -91q0 -31 1.5 -88.5t1.5 -83.5q0 -53 -4 -90t-17 -74t-36.5 -59t-64 -36t-96.5 -14q-62 0 -104.5 14.5t-66 36.5t-36.5 61t-16 74.5t-3 91.5q0 13 0.5 40.5t0.5 41.5zM235 575q-23 0 -35 -9.5t-13.5 -19t-1.5 -26.5v-315q0 -16 1 -24.5t5 -21t15 -18.5
t29 -6t29 6t15 18.5t5 21t1 24.5v315q0 17 -1.5 26.5t-13.5 19t-35 9.5z" />
    <glyph glyph-name="otilde" unicode="&#xf5;" horiz-adv-x="471" 
d="M389 852v-28q0 -42 -19.5 -64.5t-82.5 -22.5q-30 0 -46 5.5t-18.5 12t-9.5 12t-21 5.5q-15 0 -24.5 -15t-28.5 -15h-44q-18 0 -18 14v26q0 43 22 65.5t93 22.5q27 0 41.5 -5.5t17.5 -12t11.5 -12t24.5 -5.5q15 0 22.5 15t23.5 15h40q16 0 16 -13zM15 355q0 14 -0.5 41
t-0.5 40q0 56 3 91.5t16 75t36.5 61.5t66 36.5t104.5 14.5q59 0 99.5 -14.5t63 -36t34.5 -60t15 -73.5t3 -91q0 -31 1.5 -88.5t1.5 -83.5q0 -53 -4 -90t-17 -74t-36.5 -59t-64 -36t-96.5 -14q-62 0 -104.5 14.5t-66 36.5t-36.5 61t-16 74.5t-3 91.5q0 13 0.5 40.5t0.5 41.5z
M235 575q-23 0 -35 -9.5t-13.5 -19t-1.5 -26.5v-315q0 -16 1 -24.5t5 -21t15 -18.5t29 -6t29 6t15 18.5t5 21t1 24.5v315q0 17 -1.5 26.5t-13.5 19t-35 9.5z" />
    <glyph glyph-name="odieresis" unicode="&#xf6;" horiz-adv-x="471" 
d="M15 257v134q0 44 3 72.5t16 62t36.5 53t66.5 32.5t104 13q58 0 99.5 -13t63.5 -32.5t34.5 -52.5t15.5 -61.5t3 -71.5v-142q0 -48 -3.5 -82t-16.5 -69.5t-36 -56.5t-63 -34.5t-97 -13.5q-61 0 -104 14t-66.5 35.5t-36.5 58.5t-16 70t-3 84zM238 495q-18 0 -29.5 -3.5
t-16 -11.5t-5.5 -13.5t-1 -16.5v-270q0 -12 1 -18t5.5 -13.5t15.5 -10.5t30 -3q23 0 34 7t12.5 14.5t1.5 23.5v270q0 11 -1 16.5t-5 13.5t-14.5 11.5t-27.5 3.5zM98 623h-26q-13 0 -20.5 1t-16.5 9t-9 23v27q0 32 46 32h26q15 0 22 -1t14 -8.5t7 -22.5v-27q0 -15 -7 -23
t-14 -9t-22 -1zM403 623h-26q-13 0 -20.5 1t-16.5 9t-9 23v26q0 15 9 23t16.5 9t20.5 1h26q15 0 22 -1t14 -9t7 -23v-26q0 -15 -7 -23t-14 -9t-22 -1z" />
    <glyph glyph-name="divide" unicode="&#xf7;" horiz-adv-x="292" 
d="M233 300h-171q-10 0 -15.5 1t-14 4t-12.5 12t-4 23v60q0 14 4 23t12.5 12t14 4t15.5 1h171q11 0 16.5 -0.5t13 -4t10.5 -12.5t3 -23v-60q0 -14 -3 -23t-10.5 -12.5t-13 -4t-16.5 -0.5zM159 501h-26q-13 0 -20.5 1t-16.5 9t-9 23v26q0 15 9 23t16.5 9t20.5 1h26
q15 0 22 -1t14 -9t7 -23v-26q0 -15 -7 -23t-14 -9t-22 -1zM159 148h-26q-13 0 -20.5 1t-16.5 9t-9 23v26q0 15 9 23t16.5 9t20.5 1h26q15 0 22 -1t14 -9t7 -23v-26q0 -15 -7 -23t-14 -9t-22 -1z" />
    <glyph glyph-name="oslash" unicode="&#xf8;" horiz-adv-x="472" 
d="M14 13q2 11 16 34.5t14 32.5q0 5 -9 20q-20 46 -20 173v163q0 57 3 92t15.5 74.5t36 61.5t66 36.5t104.5 14.5q74 0 111 -18q10 -5 13 -5q4 0 11 9t21 9h39q23 0 23 -17q-1 -3 -4.5 -9.5t-10.5 -21l-14 -29.5q-2 -4 -2 -6q0 -3 4 -11.5t9.5 -24t8.5 -33.5q9 -42 9 -118
v-172q0 -53 -4 -90t-17 -74t-36.5 -59t-64 -36t-96.5 -14q-29 0 -53.5 5.5t-38.5 10.5t-17 5q-2 0 -3 -2q-5 -10 -9 -12t-15 -2h-64q-26 0 -26 13zM184 335l103 219q0 8 -16.5 14.5t-35.5 6.5q-60 0 -60 -55v-195q0 -7 1 -7t8 17zM295 205v147q0 8 -1 8l-3 -5
q-93 -197 -93 -208q0 -12 37 -12q60 0 60 70z" />
    <glyph glyph-name="ugrave" unicode="&#xf9;" horiz-adv-x="473" 
d="M97 831q-17 17 -17 22q0 17 30 17q18 1 39 1q31 0 42.5 -4.5t28.5 -21.5l66 -72q15 -15 15 -27q0 -3 -6 -9q-6 -3 -64 -3q-43 0 -73 32zM457 631v-428q0 -43 -3 -70t-15 -56t-34.5 -45t-63 -26.5t-99.5 -10.5q-52 0 -90 6.5t-62.5 21t-39.5 31t-22.5 43.5t-9.5 51.5
t-2 61.5l1 420q0 16 0.5 24t3.5 21t9 19t18 11t29 5h50q17 0 29 -5t18 -11t9 -19t3.5 -21t0.5 -24v-440q0 -15 1 -22t5.5 -16t16.5 -13t32 -4q21 0 31.5 8.5t12 18t1.5 28.5v441q0 16 0.5 24t3.5 20.5t9 18.5t18 11t29 5h50q17 0 29 -5t18 -11t9 -18.5t3.5 -20.5t0.5 -24z
" />
    <glyph glyph-name="uacute" unicode="&#xfa;" horiz-adv-x="473" 
d="M384 831l-61 -65q-30 -32 -75 -32q-56 0 -63 4q-5 2 -5 8q0 12 15 27l66 72q18 18 29.5 23t41.5 5q21 0 39 -1q30 0 30 -19q0 -5 -17 -22zM457 631v-428q0 -43 -3 -70t-15 -56t-34.5 -45t-63 -26.5t-99.5 -10.5q-52 0 -90 6.5t-62.5 21t-39.5 31t-22.5 43.5t-9.5 51.5
t-2 61.5l1 420q0 16 0.5 24t3.5 21t9 19t18 11t29 5h50q17 0 29 -5t18 -11t9 -19t3.5 -21t0.5 -24v-440q0 -15 1 -22t5.5 -16t16.5 -13t32 -4q21 0 31.5 8.5t12 18t1.5 28.5v441q0 16 0.5 24t3.5 20.5t9 18.5t18 11t29 5h50q17 0 29 -5t18 -11t9 -18.5t3.5 -20.5t0.5 -24z
" />
    <glyph glyph-name="ucircumflex" unicode="&#xfb;" horiz-adv-x="473" 
d="M194 737l-88 1q-21 0 -21 9q0 13 51 100q14 25 64 25h40q45 0 60.5 -4t26.5 -22l55 -87q5 -8 5 -12q0 -9 -28 -9h-78q-9 0 -25 31t-20 31t-19 -31.5t-23 -31.5zM457 631v-428q0 -43 -3 -70t-15 -56t-34.5 -45t-63 -26.5t-99.5 -10.5q-52 0 -90 6.5t-62.5 21t-39.5 31
t-22.5 43.5t-9.5 51.5t-2 61.5l1 420q0 16 0.5 24t3.5 21t9 19t18 11t29 5h50q17 0 29 -5t18 -11t9 -19t3.5 -21t0.5 -24v-440q0 -15 1 -22t5.5 -16t16.5 -13t32 -4q21 0 31.5 8.5t12 18t1.5 28.5v441q0 16 0.5 24t3.5 20.5t9 18.5t18 11t29 5h50q17 0 29 -5t18 -11t9 -18.5
t3.5 -20.5t0.5 -24z" />
    <glyph glyph-name="udieresis" unicode="&#xfc;" horiz-adv-x="471" 
d="M455 514v-105v-59v5v-152q0 -44 -3 -70.5t-15 -56t-34.5 -45t-63 -26t-99.5 -10.5q-52 0 -90 6.5t-62.5 21t-39.5 30.5t-22.5 43.5t-9.5 51.5t-2 62l1 303q0 16 0.5 24t3.5 21t9 19t18 11t29 5h50q17 0 29 -5t18 -11t9 -19t3.5 -21t0.5 -24v-323q0 -15 1 -22t5.5 -16
t16.5 -13t32 -4q21 0 31.5 8.5t12 18t1.5 28.5v324q0 16 0.5 24t3.5 20.5t9 18.5t18 11t29 5h50q17 0 29 -5t18 -11t9 -18.5t3.5 -20.5t0.5 -24zM137 623h-66q-13 0 -20.5 1t-16.5 9t-9 23v27q0 32 46 32h66q15 0 22 -1t14 -8.5t7 -22.5v-27q0 -15 -7 -23t-14 -9t-22 -1z
M402 623h-66q-13 0 -20.5 1t-16.5 9t-9 23v26q0 15 9 23t16.5 9t20.5 1h66q15 0 22 -1t14 -9t7 -23v-26q0 -15 -7 -23t-14 -9t-22 -1z" />
    <glyph glyph-name="ydieresis" unicode="&#xff;" horiz-adv-x="497" 
d="M130 739h-66q-13 0 -20.5 1t-16.5 9t-9 23v27q0 32 46 32h66q15 0 22 -1t14 -8.5t7 -22.5v-27q0 -15 -7 -23t-14 -9t-22 -1zM442 739h-66q-13 0 -20.5 1t-16.5 9t-9 23v26q0 15 9 23t16.5 9t20.5 1h66q15 0 22 -1t14 -9t7 -23v-26q0 -15 -7 -23t-14 -9t-22 -1zM270 0h-50
q-17 0 -29 5t-18 11t-9 19t-3.5 21t-0.5 24v151q0 58 -70 221l-3 7q-20 44 -49.5 125t-29.5 100q0 26 29 26h114q21 0 31.5 -21t18.5 -59q4 -19 23 -85.5t19 -67.5q2 -11 10 -11q9 0 10 10q0 4 8 34.5l18 70t13 49.5q6 24 11 38.5t17 28t29 13.5h89q18 0 25 -1t11.5 -6.5
t4.5 -18.5q0 -19 -29.5 -101.5t-48.5 -123.5q-4 -9 -11 -26.5l-17.5 -44l-18.5 -47.5q-24 -60 -29 -85.5t-5 -90.5v-89q0 -19 -1 -29t-6 -23t-18.5 -18.5t-34.5 -5.5z" />
    <glyph glyph-name="dotlessi" unicode="&#x131;" horiz-adv-x="203" 
d="M187 630v-550q0 -16 -0.5 -24t-3.5 -21t-9 -19t-18 -11t-29 -5h-50q-17 0 -29 5t-18 11t-9 19t-3.5 21t-0.5 24v550q0 16 0.5 24t3.5 21t9 19t18 11t29 5h50q17 0 29 -5t18 -11t9 -19t3.5 -21t0.5 -24z" />
    <glyph glyph-name="OE" unicode="&#x152;" horiz-adv-x="665" 
d="M15 355q0 14 -0.5 41t-0.5 40q0 56 3 91.5t16 75t36.5 61.5t66 36.5t104.5 14.5q22 0 53.5 -2.5t49.5 -2.5h258q20 0 33.5 -8t13.5 -22v-85q0 -16 -11 -20.5t-34 -4.5q-21 0 -52.5 1t-42.5 1q-20 0 -31.5 -3t-16.5 -11.5t-6 -15.5t-1 -22q0 -30 0.5 -41.5t5.5 -23
t15 -14.5t29 -3q36 0 62 1t33 1q37 0 37 -46v-64q0 -14 -7 -21.5t-15.5 -9t-23.5 -1.5q-29 0 -63 1t-41 1q-28 0 -31 -21v-11q0 -8 -0.5 -23.5t-0.5 -22.5v-39q1 -16 13.5 -24.5t28.5 -8.5q33 0 62 1t35 1q31 0 43 -9.5t12 -32.5v-70q0 -22 -8.5 -31t-31.5 -9h-264
q-18 0 -49 -2.5t-54 -2.5q-62 0 -104.5 14.5t-66 36.5t-36.5 61t-16 74.5t-3 91.5q0 13 0.5 40.5t0.5 41.5zM235 575q-23 0 -35 -9.5t-13.5 -19t-1.5 -26.5v-315q0 -16 1 -24.5t5 -21t15 -18.5t29 -6t29 6t15 18.5t5 21t1 24.5v315q0 17 -1.5 26.5t-13.5 19t-35 9.5z" />
    <glyph glyph-name="oe" unicode="&#x153;" horiz-adv-x="665" 
d="M15 355q0 14 -0.5 41t-0.5 40q0 56 3 91.5t16 75t36.5 61.5t66 36.5t104.5 14.5q22 0 53.5 -2.5t49.5 -2.5h258q20 0 33.5 -8t13.5 -22v-85q0 -16 -11 -20.5t-34 -4.5q-21 0 -52.5 1t-42.5 1q-20 0 -31.5 -3t-16.5 -11.5t-6 -15.5t-1 -22q0 -30 0.5 -41.5t5.5 -23
t15 -14.5t29 -3q36 0 62 1t33 1q37 0 37 -46v-64q0 -14 -7 -21.5t-15.5 -9t-23.5 -1.5q-29 0 -63 1t-41 1q-28 0 -31 -21v-11q0 -8 -0.5 -23.5t-0.5 -22.5v-39q1 -16 13.5 -24.5t28.5 -8.5q33 0 62 1t35 1q31 0 43 -9.5t12 -32.5v-70q0 -22 -8.5 -31t-31.5 -9h-264
q-18 0 -49 -2.5t-54 -2.5q-62 0 -104.5 14.5t-66 36.5t-36.5 61t-16 74.5t-3 91.5q0 13 0.5 40.5t0.5 41.5zM235 575q-23 0 -35 -9.5t-13.5 -19t-1.5 -26.5v-315q0 -16 1 -24.5t5 -21t15 -18.5t29 -6t29 6t15 18.5t5 21t1 24.5v315q0 17 -1.5 26.5t-13.5 19t-35 9.5z" />
    <glyph glyph-name="Ydieresis" unicode="&#x178;" horiz-adv-x="497" 
d="M130 739h-66q-13 0 -20.5 1t-16.5 9t-9 23v27q0 32 46 32h66q15 0 22 -1t14 -8.5t7 -22.5v-27q0 -15 -7 -23t-14 -9t-22 -1zM442 739h-66q-13 0 -20.5 1t-16.5 9t-9 23v26q0 15 9 23t16.5 9t20.5 1h66q15 0 22 -1t14 -9t7 -23v-26q0 -15 -7 -23t-14 -9t-22 -1zM270 0h-50
q-17 0 -29 5t-18 11t-9 19t-3.5 21t-0.5 24v151q0 58 -70 221l-3 7q-20 44 -49.5 125t-29.5 100q0 26 29 26h114q21 0 31.5 -21t18.5 -59q4 -19 23 -85.5t19 -67.5q2 -11 10 -11q9 0 10 10q0 4 8 34.5l18 70t13 49.5q6 24 11 38.5t17 28t29 13.5h89q18 0 25 -1t11.5 -6.5
t4.5 -18.5q0 -19 -29.5 -101.5t-48.5 -123.5q-4 -9 -11 -26.5l-17.5 -44l-18.5 -47.5q-24 -60 -29 -85.5t-5 -90.5v-89q0 -19 -1 -29t-6 -23t-18.5 -18.5t-34.5 -5.5z" />
    <glyph glyph-name="circumflex" unicode="&#x2c6;" horiz-adv-x="342" 
d="M129 737l-88 1q-21 0 -21 9q0 13 51 100q14 25 64 25h40q45 0 60.5 -4t26.5 -22l55 -87q5 -8 5 -12q0 -9 -28 -9h-78q-9 0 -25 31t-20 31t-19 -31.5t-23 -31.5z" />
    <glyph glyph-name="caron" unicode="&#x2c7;" horiz-adv-x="342" 
d="M41 873l88 1q8 0 23 -31.5t19 -31.5t20 32t25 32q10 0 29 0.5t28 0.5q49 0 49 -12q0 -4 -5 -12l-55 -87q-13 -22 -58 -22h-72q-47 0 -61 21q-8 12 -29.5 52.5t-21.5 47.5q0 9 21 9z" />
    <glyph glyph-name="dotaccent" unicode="&#x2d9;" horiz-adv-x="207" 
d="M138 729h-66q-13 0 -20.5 1t-16.5 9t-9 23v27q0 32 46 32h66q15 0 22 -1t14 -8.5t7 -22.5v-27q0 -15 -7 -23t-14 -9t-22 -1z" />
    <glyph glyph-name="ogonek" unicode="&#x2db;" horiz-adv-x="156" 
d="M12 -60q0 14 3 23t10.5 12.5t13 4t16.5 0.5h28q31 0 31 -40q0 -21 -11 -33t-5 -28q4 -12 16.5 -14t21.5 -7t9 -25q0 -33 -23 -33h-33q-25 0 -40.5 10.5t-25.5 42.5q-11 38 -11 87z" />
    <glyph glyph-name="tilde" unicode="&#x2dc;" horiz-adv-x="354" 
d="M332 852v-28q0 -42 -19.5 -64.5t-82.5 -22.5q-30 0 -46 5.5t-18.5 12t-9.5 12t-21 5.5q-15 0 -24.5 -15t-28.5 -15h-44q-18 0 -18 14v26q0 43 22 65.5t93 22.5q27 0 41.5 -5.5t17.5 -12t11.5 -12t24.5 -5.5q15 0 22.5 15t23.5 15h40q16 0 16 -13z" />
    <glyph glyph-name="hungarumlaut" unicode="&#x2dd;" horiz-adv-x="458" 
d="M224 831l-61 -65q-30 -32 -63 -32h-16q-31 0 -39 4q-5 2 -5 8t15 27l46 72q25 27 53 27q2 0 57 -2q30 0 30 -17q0 -5 -17 -22zM425 831l-61 -65q-30 -32 -63 -32h-13q-32 0 -42 4q-5 1 -5 8q0 6 15 27l46 72q25 27 53 27q2 0 57 -2q30 0 30 -17q0 -5 -17 -22z" />
    <glyph glyph-name="endash" unicode="&#x2013;" horiz-adv-x="524" 
d="M464 300h-401q-10 0 -15.5 1t-14 4t-12.5 12t-4 23v60q0 14 4 23t12.5 12t14 4t15.5 1h401q11 0 16.5 -0.5t13 -4t10.5 -12.5t3 -23v-60q0 -14 -3 -23t-10.5 -12.5t-13 -4t-16.5 -0.5z" />
    <glyph glyph-name="emdash" unicode="&#x2014;" horiz-adv-x="614" 
d="M554 300h-491q-10 0 -15.5 1t-14 4t-12.5 12t-4 23v60q0 14 4 23t12.5 12t14 4t15.5 1h491q11 0 16.5 -0.5t13 -4t10.5 -12.5t3 -23v-60q0 -14 -3 -23t-10.5 -12.5t-13 -4t-16.5 -0.5z" />
    <glyph glyph-name="quoteleft" unicode="&#x2018;" horiz-adv-x="196" 
d="M12 457v101q0 29 17 81q11 34 24.5 46t35.5 12h33q15 0 19.5 -3t4.5 -16q0 -10 -13 -25t-13 -36q0 -14 4 -17t16 -3q16 0 29 -12.5t13 -27.5v-100q0 -14 -4 -23t-12.5 -12t-14 -4t-15.5 -1h-81q-11 0 -16.5 0.5t-13 4t-10.5 12.5t-3 23z" />
    <glyph glyph-name="quoteright" unicode="&#x2019;" horiz-adv-x="196" 
d="M182 665v-101q0 -29 -17 -81q-11 -34 -24.5 -46t-35.5 -12h-33q-15 0 -19.5 3t-4.5 16q0 10 13 25t13 36q0 14 -4 17t-16 3q-16 0 -29 12.5t-13 27.5v100q0 14 4 23t12.5 12t14 4t15.5 1h81q11 0 16.5 -0.5t13 -4t10.5 -12.5t3 -23z" />
    <glyph glyph-name="quotesinglbase" unicode="&#x201a;" horiz-adv-x="196" 
d="M182 235v-101q0 -29 -17 -81q-11 -34 -24.5 -46t-35.5 -12h-33q-15 0 -19.5 3t-4.5 16q0 10 13 25t13 36q0 14 -4 17t-16 3q-16 0 -29 12.5t-13 27.5v100q0 14 4 23t12.5 12t14 4t15.5 1h81q11 0 16.5 -0.5t13 -4t10.5 -12.5t3 -23z" />
    <glyph glyph-name="quotedblleft" unicode="&#x201c;" horiz-adv-x="413" 
d="M12 457v101q0 29 17 81q11 34 24.5 46t35.5 12h33q15 0 19.5 -3t4.5 -16q0 -10 -13 -25t-13 -36q0 -14 4 -17t16 -3q16 0 29 -12.5t13 -27.5v-100q0 -14 -4 -23t-12.5 -12t-14 -4t-15.5 -1h-81q-11 0 -16.5 0.5t-13 4t-10.5 12.5t-3 23zM229 457v101q0 29 17 81
q11 34 24.5 46t35.5 12h33q15 0 19.5 -3t4.5 -16q0 -10 -13 -25t-13 -36q0 -14 4 -17t16 -3q16 0 29 -12.5t13 -27.5v-100q0 -14 -4 -23t-12.5 -12t-14 -4t-15.5 -1h-81q-11 0 -16.5 0.5t-13 4t-10.5 12.5t-3 23z" />
    <glyph glyph-name="quotedblright" unicode="&#x201d;" horiz-adv-x="413" 
d="M182 657v-101q0 -29 -17 -81q-11 -34 -24.5 -46t-35.5 -12h-33q-15 0 -19.5 3t-4.5 16q0 10 13 25t13 36q0 14 -4 17t-16 3q-16 0 -29 12.5t-13 27.5v100q0 14 4 23t12.5 12t14 4t15.5 1h81q11 0 16.5 -0.5t13 -4t10.5 -12.5t3 -23zM399 657v-101q0 -29 -17 -81
q-11 -34 -24.5 -46t-35.5 -12h-33q-15 0 -19.5 3t-4.5 16q0 10 13 25t13 36q0 14 -4 17t-16 3q-16 0 -29 12.5t-13 27.5v100q0 14 4 23t12.5 12t14 4t15.5 1h81q11 0 16.5 -0.5t13 -4t10.5 -12.5t3 -23z" />
    <glyph glyph-name="quotedblbase" unicode="&#x201e;" horiz-adv-x="196" 
d="M182 235v-101q0 -29 -17 -81q-11 -34 -24.5 -46t-35.5 -12h-33q-15 0 -19.5 3t-4.5 16q0 10 13 25t13 36q0 14 -4 17t-16 3q-16 0 -29 12.5t-13 27.5v100q0 14 4 23t12.5 12t14 4t15.5 1h81q11 0 16.5 -0.5t13 -4t10.5 -12.5t3 -23z" />
    <glyph glyph-name="dagger" unicode="&#x2020;" horiz-adv-x="345" 
d="M282 376h-15q-14 0 -17.5 -3.5t-4.5 -14.5l-12 -308q-2 -28 -10 -39t-29 -11h-46q-21 0 -27 10t-8 40l-12 308q0 6 -1 8.5t-3.5 5.5t-7.5 3.5t-15 0.5h-8q-13 0 -21 1.5t-16.5 11.5t-8.5 28v30q0 18 11 26.5t23.5 10t39.5 1.5h6q7 0 7 27q0 22 -6 82.5t-6 78.5t9 27.5
t33 9.5h72q45 0 45 -37q0 -19 -6 -82t-6 -79q0 -27 8 -27h5q19 0 28 -0.5t20.5 -4t16.5 -11.5t5 -22v-30q0 -19 -6.5 -28.5t-14 -11t-22.5 -1.5z" />
    <glyph glyph-name="daggerdbl" unicode="&#x2021;" horiz-adv-x="349" 
d="M289 496h-23q-14 0 -21 -5.5t-7 -22.5v-118q0 -58 22 -58h42q17 0 26 -8t9 -32v-30q0 -14 -3 -23t-10.5 -12.5t-13 -4t-16.5 -0.5h-44q-9 0 -9 -16q0 -12 8 -54.5t8 -61.5q0 -50 -31 -50h-100q-34 0 -34 49q0 20 8 62.5t8 54.5q0 16 -9 16h-41q-10 0 -15.5 1t-14 4
t-12.5 12t-4 23v30q0 39 35 39h38q26 0 26 64v45l-1 68q-1 11 -1.5 15t-3.5 8t-7.5 4.5t-14.5 0.5h-17q-13 0 -21 1.5t-16.5 11.5t-8.5 28v30q0 40 56 40q24 0 24 21q0 6 -2.5 21.5t-2.5 23.5q0 18 8 27.5t32 9.5h66q31 0 40 -9t9 -28q0 -7 -1.5 -20.5t-1.5 -19.5
q0 -26 25 -26q12 0 18.5 -1t16 -4t14 -12t4.5 -23v-30q0 -25 -9 -33t-27 -8z" />
    <glyph glyph-name="bullet" unicode="&#x2022;" horiz-adv-x="237" 
d="M169 183h-101q-11 0 -18 1t-16 5.5t-13.5 15t-4.5 27.5v121q0 22 10.5 33t19.5 12.5t25 1.5h98q18 0 27 -1.5t17 -12.5t8 -33v-121q0 -23 -8 -34.5t-17 -13t-27 -1.5z" />
    <glyph glyph-name="ellipsis" unicode="&#x2026;" horiz-adv-x="633" 
d="M143 0h-81q-10 0 -15.5 1t-14 4t-12.5 12t-4 23v100q0 14 4 23t12.5 12t14 4t15.5 1h81q11 0 16.5 -0.5t13 -4t10.5 -12.5t3 -23v-100q0 -14 -3 -23t-10.5 -12.5t-13 -4t-16.5 -0.5zM358 0h-81q-10 0 -15.5 1t-14 4t-12.5 12t-4 23v100q0 14 4 23t12.5 12t14 4t15.5 1h81
q11 0 16.5 -0.5t13 -4t10.5 -12.5t3 -23v-100q0 -14 -3 -23t-10.5 -12.5t-13 -4t-16.5 -0.5zM574 0h-81q-10 0 -15.5 1t-14 4t-12.5 12t-4 23v100q0 14 4 23t12.5 12t14 4t15.5 1h81q11 0 16.5 -0.5t13 -4t10.5 -12.5t3 -23v-100q0 -14 -3 -23t-10.5 -12.5t-13 -4
t-16.5 -0.5z" />
    <glyph glyph-name="guilsinglleft" unicode="&#x2039;" horiz-adv-x="175" 
d="M154 332v-88q0 -21 -9 -21q-7 0 -48 21.5t-53 29.5q-29 19 -29 85v17q0 70 29 89l86 55q8 5 12 5q13 0 13 -49q0 -9 -0.5 -28t-0.5 -29q0 -9 -31.5 -25t-31.5 -20t31.5 -19t31.5 -23z" />
    <glyph glyph-name="guilsinglright" unicode="&#x203a;" horiz-adv-x="175" 
d="M17 244v88q0 8 31.5 23t31.5 19t-31.5 20t-31.5 25q0 10 -0.5 29t-0.5 28q0 49 13 49q4 0 12 -5l86 -55q29 -19 29 -89v-17q0 -66 -29 -85q-12 -8 -53 -29.5t-48 -21.5q-9 0 -9 21z" />
    <glyph glyph-name="fraction" unicode="&#x2044;" horiz-adv-x="347" 
d="M4 18q0 29 52 191q19 58 71 237t73 242q6 19 21.5 23t60.5 4q36 0 48 -4.5t12 -18.5q0 -8 -1 -13q-9 -40 -63.5 -238.5t-86.5 -304.5q-7 -21 -14 -45.5t-10 -36t-8 -25t-8.5 -18t-10 -9.5t-14 -6t-19.5 -1h-80q-11 0 -17 7.5t-6 15.5z" />
    <glyph glyph-name="Euro" unicode="&#x20ac;" horiz-adv-x="444" 
d="M267 330h117q11 0 16.5 -0.5t13 -4t10.5 -12.5t3 -23v-10q0 -14 -3 -23t-10.5 -12.5t-13 -4t-16.5 -0.5h-107q-2 0 -2 -3q0 -4 2 -8q11 -41 37 -62.5t75 -21.5q38 0 38 -43v-70q0 -37 -38 -37q-42 0 -82.5 10.5t-83 34.5t-76.5 72.5t-50 116.5q-3 11 -7 11h-39
q-10 0 -15.5 1t-14 4t-12.5 12t-4 23v10q0 14 4 23t12.5 12t14 4t15.5 1h24q9 1 9 35q0 35 -9 35h-24q-10 0 -15.5 1t-14 4t-12.5 12t-4 23v10q0 14 4 23t12.5 12t14 4t15.5 1h45q5 0 6 5q16 61 49 106t74.5 68.5t82 34.5t81.5 11q18 0 28 -12t10 -28v-85q0 -7 -1.5 -10
t-10 -6.5t-26.5 -3.5q-42 0 -64.5 -14.5t-39.5 -51.5q-4 -9 -4 -12q0 -2 3 -2h100q11 0 16.5 -0.5t13 -4t10.5 -12.5t3 -23v-10q0 -14 -3 -23t-10.5 -12.5t-13 -4t-16.5 -0.5h-119q-9 0 -9 -24q0 -46 11 -46z" />
    <glyph glyph-name="trademark" unicode="&#x2122;" horiz-adv-x="616" 
d="M176 597v-201q0 -12 -1.5 -19.5t-9 -13.5t-22.5 -6h-47q-15 0 -22.5 7t-8.5 14t-1 22v197q0 10 -3 13t-11 3h-16q-24 0 -24 15v66q0 16 25 16h169q26 0 26 -16v-66q0 -15 -25 -15h-15q-9 0 -11.5 -3t-2.5 -13zM431 584l41 96q8 19 17.5 24.5t25.5 5.5h50q15 0 22.5 -7.5
t8.5 -14.5t1 -21v-267q0 -15 -1 -22t-8.5 -14t-22.5 -7h-47q-15 0 -23 7t-9 14t-1 22v118q0 6 -2 6q-3 0 -5 -6l-14.5 -29t-11 -23t-8 -16.5l-6.5 -12.5t-5 -7.5t-6 -4.5t-7 -1t-6.5 1t-5.5 4.5t-5.5 7.5t-6.5 12.5l-8 16.5l-11 23l-14 29q-1 6 -5 6q-2 0 -2 -6v-118
q0 -15 -1 -22t-9 -14t-23 -7h-47q-15 0 -22.5 7t-8.5 14t-1 22v267q0 14 1 21t8.5 14.5t22.5 7.5h49q17 0 26.5 -5.5t17.5 -24.5l41 -96q6 -15 10 -15q5 0 11 15z" />
    <glyph glyph-name="E.ss01" horiz-adv-x="505" 
d="M188 253v-82q3 -21 31 -21h14q57 0 127 1t72 1q31 0 43 -9.5t12 -32.5v-70q0 -22 -8.5 -31t-31.5 -9h-369q-60 0 -60 80v550q0 16 0.5 24t3.5 21t9 19t18 11t29 5h363q20 0 33.5 -8t13.5 -22v-85q0 -25 -53 -25q-1 0 -67 1t-125 1q-39 0 -47 -8.5t-8 -43.5q0 -58 7 -70
t43 -12q56 0 119 1t71 1q47 0 47 -50v-60q0 -14 -7 -21.5t-15.5 -9t-23.5 -1.5q-23 0 -99.5 1t-98.5 1q-30 0 -36.5 -7t-6.5 -40z" />
    <glyph glyph-name="H.ss01" horiz-adv-x="587" 
d="M188 630v-125q0 -38 9 -46q12 -10 86 -10h14h18q61 0 72.5 8.5t11.5 47.5v125q0 16 0.5 24t3.5 21t9 19t18 11t29 5h50q17 0 29 -5t18 -11t9 -19t3.5 -21t0.5 -24v-550q0 -16 -0.5 -24t-3.5 -21t-9 -19t-18 -11t-29 -5h-50q-17 0 -29 5t-18 11t-9 19t-3.5 21t-0.5 24v150
q0 48 -8 60t-42 12q-8 0 -43 -1t-63 -1q-41 0 -48 -9t-7 -61v-150q0 -16 -0.5 -24t-3.5 -21t-9 -19t-18 -11t-29 -5h-50q-17 0 -29 5t-18 11t-9 19t-3.5 21t-0.5 24v550q0 16 0.5 24t3.5 21t9 19t18 11t29 5h50q17 0 29 -5t18 -11t9 -19t3.5 -21t0.5 -24z" />
    <glyph glyph-name="K.ss01" horiz-adv-x="597" 
d="M411 377l2 -4l83.5 -157l54.5 -105.5t20 -39.5q16 -29 16 -44q0 -27 -50 -27h-62q-18 0 -28.5 1.5t-19.5 9.5t-12 12.5t-13.5 24.5l-16.5 31q-120 213 -138 223q-13 7 -36 7q-15 0 -19 -8.5t-4 -29.5v-191q0 -16 -0.5 -24t-3.5 -21t-9 -19t-18 -11t-29 -5h-50
q-17 0 -29 5t-18 11t-9 19t-3.5 21t-0.5 24v550q0 16 0.5 24t3.5 21t9 19t18 11t29 5h50q17 0 29 -5t18 -11t9 -19t3.5 -21t0.5 -24q0 -35 -0.5 -78.5t-0.5 -53.5q0 -42 6 -51.5t30 -9.5q35 0 47 21l40 71l33 59.5l25.5 45t22 35.5t19.5 22.5t21 14.5t22 4h80q36 0 36 -24
q0 -20 -22 -57q-18 -31 -55.5 -90l-63 -100t-25.5 -43q0 -6 8 -19z" />
    <glyph glyph-name="O.ss01" horiz-adv-x="611" 
d="M15 271v164q0 130 67 205t199 75q86 0 129 -6.5t72 -26.5q52 -36 83 -99.5t31 -142.5v-169q0 -71 -28.5 -132t-72.5 -100q-50 -44 -165 -44q-86 0 -129.5 7.5t-73.5 29.5q-51 37 -81.5 99t-30.5 140zM185 383v-54q0 -48 3.5 -77.5t15 -59t37.5 -43.5t67 -14h-5
q35 0 58.5 12t36 28.5t19 49t8 58t1.5 71.5q0 44 -1.5 70.5t-8 59t-19 49.5t-36.5 29.5t-58 12.5h5q-33 0 -56.5 -11.5t-36 -28t-20 -44t-9 -51t-1.5 -57.5z" />
    <glyph glyph-name="odieresis.001" horiz-adv-x="611" 
d="M320 439h-26q-13 0 -20.5 1t-16.5 9t-9 23v27q0 32 46 32h26q15 0 22 -1t14 -8.5t7 -22.5v-27q0 -15 -7 -23t-14 -9t-22 -1zM321 317h-26q-13 0 -20.5 1t-16.5 9t-9 23v26q0 15 9 23t16.5 9t20.5 1h26q15 0 22 -1t14 -9t7 -23v-26q0 -15 -7 -23t-14 -9t-22 -1zM15 271
v164q0 130 67 205t199 75q86 0 129 -6.5t72 -26.5q52 -36 83 -99.5t31 -142.5v-169q0 -71 -28.5 -132t-72.5 -100q-50 -44 -165 -44q-86 0 -129.5 7.5t-73.5 29.5q-51 37 -81.5 99t-30.5 140zM185 383v-54q0 -48 3.5 -77.5t15 -59t37.5 -43.5t67 -14h-5q35 0 58.5 12
t36 28.5t19 49t8 58t1.5 71.5q0 44 -1.5 70.5t-8 59t-19 49.5t-36.5 29.5t-58 12.5h5q-33 0 -56.5 -11.5t-36 -28t-20 -44t-9 -51t-1.5 -57.5z" />
    <glyph glyph-name="edieresis.001" horiz-adv-x="506" 
d="M190 729h-66q-13 0 -20.5 1t-16.5 9t-9 23v27q0 32 46 32h66q15 0 22 -1t14 -8.5t7 -22.5v-27q0 -15 -7 -23t-14 -9t-22 -1zM395 729h-66q-13 0 -20.5 1t-16.5 9t-9 23v26q0 15 9 23t16.5 9t20.5 1h66q15 0 22 -1t14 -9t7 -23v-26q0 -15 -7 -23t-14 -9t-22 -1zM189 253
v-82q3 -21 31 -21h14q57 0 127 1t72 1q31 0 43 -9.5t12 -32.5v-70q0 -22 -9 -31t-31 -9h-369q-60 0 -60 80v550q0 16 0.5 24t3.5 21t9 19t18 11t29 5h363q20 0 33.5 -8t13.5 -22v-85q0 -25 -53 -25q-1 0 -67 1t-125 1q-39 0 -47 -8.5t-8 -43.5q0 -58 7 -70t43 -12
q57 0 119 1t71 1q47 0 47 -50v-60q0 -14 -7 -21.5t-15.5 -9t-23.5 -1.5q-23 0 -99.5 1t-98.5 1q-30 0 -36.5 -7t-6.5 -40z" />
    <glyph glyph-name="eacute.001" horiz-adv-x="506" 
d="M388 831l-61 -65q-30 -32 -75 -32q-56 0 -63 4q-5 2 -5 8q0 12 15 27l66 72q18 18 29.5 23t41.5 5q21 0 39 -1q30 0 30 -19q0 -5 -17 -22zM189 253v-82q3 -21 31 -21h14q57 0 127 1t72 1q31 0 43 -9.5t12 -32.5v-70q0 -22 -9 -31t-31 -9h-369q-60 0 -60 80v550
q0 16 0.5 24t3.5 21t9 19t18 11t29 5h363q20 0 33.5 -8t13.5 -22v-85q0 -25 -53 -25q-1 0 -67 1t-125 1q-39 0 -47 -8.5t-8 -43.5q0 -58 7 -70t43 -12q57 0 119 1t71 1q47 0 47 -50v-60q0 -14 -7 -21.5t-15.5 -9t-23.5 -1.5q-23 0 -99.5 1t-98.5 1q-30 0 -36.5 -7t-6.5 -40z
" />
    <glyph glyph-name="egrave.001" horiz-adv-x="506" 
d="M126 831q-17 17 -17 22q0 17 30 17q18 1 39 1q31 0 42.5 -4.5t28.5 -21.5l66 -72q15 -15 15 -27q0 -3 -6 -9q-6 -3 -64 -3q-43 0 -73 32zM189 253v-82q3 -21 31 -21h14q57 0 127 1t72 1q31 0 43 -9.5t12 -32.5v-70q0 -22 -9 -31t-31 -9h-369q-60 0 -60 80v550
q0 16 0.5 24t3.5 21t9 19t18 11t29 5h363q20 0 33.5 -8t13.5 -22v-85q0 -25 -53 -25q-1 0 -67 1t-125 1q-39 0 -47 -8.5t-8 -43.5q0 -58 7 -70t43 -12q57 0 119 1t71 1q47 0 47 -50v-60q0 -14 -7 -21.5t-15.5 -9t-23.5 -1.5q-23 0 -99.5 1t-98.5 1q-30 0 -36.5 -7t-6.5 -40z
" />
    <glyph glyph-name="oacute.001" horiz-adv-x="611" 
d="M15 271v164q0 130 67 205t199 75q86 0 129 -6.5t72 -26.5q52 -36 83 -99.5t31 -142.5v-169q0 -71 -28.5 -132t-72.5 -100q-50 -44 -165 -44q-86 0 -129.5 7.5t-73.5 29.5q-51 37 -81.5 99t-30.5 140zM185 383v-54q0 -48 3.5 -77.5t15 -59t37.5 -43.5t67 -14h-5
q35 0 58.5 12t36 28.5t19 49t8 58t1.5 71.5q0 44 -1.5 70.5t-8 59t-19 49.5t-36.5 29.5t-58 12.5h5q-33 0 -56.5 -11.5t-36 -28t-20 -44t-9 -51t-1.5 -57.5zM449 831l-61 -65q-30 -32 -63 -32q-68 0 -75 4q-5 2 -5 8q0 12 15 27l66 72q25 27 53 27q2 0 57 -2q30 0 30 -17
q0 -5 -17 -22z" />
    <glyph glyph-name="ograve.001" horiz-adv-x="611" 
d="M15 271v164q0 130 67 205t199 75q86 0 129 -6.5t72 -26.5q52 -36 83 -99.5t31 -142.5v-169q0 -71 -28.5 -132t-72.5 -100q-50 -44 -165 -44q-86 0 -129.5 7.5t-73.5 29.5q-51 37 -81.5 99t-30.5 140zM185 383v-54q0 -48 3.5 -77.5t15 -59t37.5 -43.5t67 -14h-5
q35 0 58.5 12t36 28.5t19 49t8 58t1.5 71.5q0 44 -1.5 70.5t-8 59t-19 49.5t-36.5 29.5t-58 12.5h5q-33 0 -56.5 -11.5t-36 -28t-20 -44t-9 -51t-1.5 -57.5zM171 831q-17 17 -17 22q0 17 30 17q18 1 39 1q31 0 42.5 -4.5t28.5 -21.5l66 -72q15 -15 15 -27q0 -3 -6 -9
q-6 -3 -64 -3q-43 0 -73 32z" />
    <glyph glyph-name="ocircumflex.001" horiz-adv-x="611" 
d="M268 737l-88 1q-21 0 -21 9q0 13 51 100q14 25 64 25h40q45 0 60.5 -4t26.5 -22l55 -87q5 -8 5 -12q0 -9 -28 -9h-78q-9 0 -25 31t-20 31t-19 -31.5t-23 -31.5zM15 271v164q0 130 67 205t199 75q86 0 129 -6.5t72 -26.5q52 -36 83 -99.5t31 -142.5v-169q0 -71 -28.5 -132
t-72.5 -100q-50 -44 -165 -44q-86 0 -129.5 7.5t-73.5 29.5q-51 37 -81.5 99t-30.5 140zM185 383v-54q0 -48 3.5 -77.5t15 -59t37.5 -43.5t67 -14h-5q35 0 58.5 12t36 28.5t19 49t8 58t1.5 71.5q0 44 -1.5 70.5t-8 59t-19 49.5t-36.5 29.5t-58 12.5h5q-33 0 -56.5 -11.5
t-36 -28t-20 -44t-9 -51t-1.5 -57.5z" />
    <glyph glyph-name="ecircumflex.001" horiz-adv-x="506" 
d="M211 737l-88 1q-21 0 -21 9q0 13 51 100q14 25 64 25h40q45 0 60.5 -4t26.5 -22l55 -87q5 -8 5 -12q0 -9 -28 -9h-78q-9 0 -25 31t-20 31t-19 -31.5t-23 -31.5zM189 253v-82q3 -21 31 -21h14q57 0 127 1t72 1q31 0 43 -9.5t12 -32.5v-70q0 -22 -9 -31t-31 -9h-369
q-60 0 -60 80v550q0 16 0.5 24t3.5 21t9 19t18 11t29 5h363q20 0 33.5 -8t13.5 -22v-85q0 -25 -53 -25q-1 0 -67 1t-125 1q-39 0 -47 -8.5t-8 -43.5q0 -58 7 -70t43 -12q57 0 119 1t71 1q47 0 47 -50v-60q0 -14 -7 -21.5t-15.5 -9t-23.5 -1.5q-23 0 -99.5 1t-98.5 1
q-30 0 -36.5 -7t-6.5 -40z" />
    <glyph glyph-name="otilde.001" horiz-adv-x="611" 
d="M15 271v164q0 130 67 205t199 75q86 0 129 -6.5t72 -26.5q52 -36 83 -99.5t31 -142.5v-169q0 -71 -28.5 -132t-72.5 -100q-50 -44 -165 -44q-86 0 -129.5 7.5t-73.5 29.5q-51 37 -81.5 99t-30.5 140zM185 383v-54q0 -48 3.5 -77.5t15 -59t37.5 -43.5t67 -14h-5
q35 0 58.5 12t36 28.5t19 49t8 58t1.5 71.5q0 44 -1.5 70.5t-8 59t-19 49.5t-36.5 29.5t-58 12.5h5q-33 0 -56.5 -11.5t-36 -28t-20 -44t-9 -51t-1.5 -57.5zM462 852v-28q0 -42 -19.5 -64.5t-82.5 -22.5q-30 0 -46 5.5t-18.5 12t-9.5 12t-21 5.5q-15 0 -24.5 -15t-28.5 -15
h-44q-18 0 -18 14v26q0 43 22 65.5t93 22.5q27 0 41.5 -5.5t17.5 -12t11.5 -12t24.5 -5.5q15 0 22.5 15t23.5 15h40q16 0 16 -13z" />
    </font>
</defs>
</svg>
